<svg width="1346" height="448" viewBox="0 0 1346 448" fill="none" xmlns="http://www.w3.org/2000/svg">
<path d="M1344.59 367.536C1344.35 367.536 1344.12 367.445 1343.94 367.282C1343.77 367.118 1343.66 366.894 1343.64 366.655C1342.86 356.026 1338.09 346.084 1330.3 338.819C1322.5 331.553 1312.24 327.501 1301.58 327.472C1300.31 327.472 1298.97 327.537 1297.6 327.665C1297.42 327.682 1297.24 327.646 1297.08 327.562C1296.92 327.479 1296.78 327.35 1296.69 327.193C1291.8 318.631 1284.5 311.7 1275.69 307.263C1266.88 302.827 1256.97 301.082 1247.18 302.247C1237.38 303.411 1228.15 307.434 1220.63 313.812C1213.11 320.19 1207.64 328.641 1204.89 338.111C1204.83 338.311 1204.71 338.486 1204.54 338.61C1204.37 338.733 1204.17 338.798 1203.96 338.795L1203.64 338.785C1203.48 338.78 1203.31 338.774 1203.14 338.774C1195.05 338.799 1187.21 341.591 1180.92 346.686C1174.63 351.781 1170.28 358.872 1168.57 366.784C1168.53 366.997 1168.41 367.188 1168.24 367.325C1168.07 367.462 1167.86 367.536 1167.65 367.536H1087.95C1087.7 367.536 1087.46 367.437 1087.28 367.259C1087.1 367.081 1087 366.84 1087 366.589C1087 366.338 1087.1 366.097 1087.28 365.919C1087.46 365.741 1087.7 365.641 1087.95 365.641H1166.88C1168.82 357.472 1173.45 350.193 1180.03 344.975C1186.61 339.758 1194.75 336.906 1203.14 336.879C1203.19 336.879 1203.24 336.879 1203.28 336.88C1206.5 326.452 1212.88 317.285 1221.55 310.652C1230.6 303.71 1241.7 299.964 1253.11 300C1262.18 300.018 1271.1 302.399 1278.98 306.91C1286.86 311.42 1293.42 317.905 1298.03 325.725C1299.25 325.627 1300.44 325.577 1301.58 325.577C1312.72 325.607 1323.44 329.842 1331.59 337.434C1339.73 345.026 1344.72 355.415 1345.53 366.522C1345.54 366.647 1345.53 366.771 1345.49 366.889C1345.45 367.007 1345.39 367.116 1345.3 367.21C1345.22 367.304 1345.12 367.381 1345.01 367.437C1344.9 367.492 1344.78 367.525 1344.65 367.534C1344.63 367.536 1344.61 367.536 1344.59 367.536Z" fill="#E5E5E5" style="fill:#E5E5E5;fill:color(display-p3 0.8980 0.8980 0.8980);fill-opacity:1;"/>
<path d="M1298.95 382.789H1135.34C1135.08 382.789 1134.84 382.689 1134.67 382.511C1134.49 382.333 1134.39 382.093 1134.39 381.842C1134.39 381.591 1134.49 381.35 1134.67 381.173C1134.84 380.995 1135.08 380.895 1135.34 380.894H1298.95C1299.2 380.895 1299.44 380.995 1299.62 381.173C1299.8 381.35 1299.9 381.591 1299.9 381.842C1299.9 382.093 1299.8 382.333 1299.62 382.511C1299.44 382.689 1299.2 382.789 1298.95 382.789Z" fill="#E5E5E5" style="fill:#E5E5E5;fill:color(display-p3 0.8980 0.8980 0.8980);fill-opacity:1;"/>
<path d="M1182.92 400.039H1117.49C1117.24 400.039 1117 399.939 1116.82 399.761C1116.64 399.584 1116.54 399.343 1116.54 399.091C1116.54 398.84 1116.64 398.599 1116.82 398.421C1117 398.244 1117.24 398.144 1117.49 398.144H1182.92C1183.17 398.144 1183.41 398.244 1183.59 398.421C1183.77 398.599 1183.87 398.84 1183.87 399.091C1183.87 399.343 1183.77 399.584 1183.59 399.761C1183.41 399.939 1183.17 400.039 1182.92 400.039Z" fill="#E5E5E5" style="fill:#E5E5E5;fill:color(display-p3 0.8980 0.8980 0.8980);fill-opacity:1;"/>
<path d="M333.46 87.9731C333.071 87.9727 332.696 87.8249 332.412 87.5594C332.127 87.2939 331.954 86.9305 331.927 86.5423C330.921 72.8738 324.791 60.0892 314.763 50.7468C304.735 41.4045 291.549 36.1935 277.843 36.1566C276.203 36.1566 274.48 36.24 272.722 36.4045C272.428 36.4321 272.132 36.3745 271.87 36.2384C271.607 36.1024 271.39 35.8938 271.243 35.6375C264.948 24.6179 255.546 15.6964 244.212 9.98634C232.878 4.27627 220.113 2.03053 207.511 3.52937C194.909 5.02821 183.027 10.2053 173.348 18.4144C163.67 26.6236 156.623 37.5013 153.088 49.6901C152.995 50.0167 152.795 50.3031 152.521 50.504C152.247 50.7049 151.914 50.8091 151.575 50.8001L151.166 50.7877C150.953 50.7806 150.74 50.7731 150.526 50.7731C140.131 50.8056 130.059 54.3915 121.982 60.9358C113.905 67.48 108.308 76.5892 106.12 86.7519C106.047 87.0973 105.858 87.4071 105.584 87.6294C105.31 87.8517 104.968 87.9731 104.615 87.9731H1.53858C1.13052 87.9731 0.739176 87.811 0.450637 87.5225C0.162098 87.2339 0 86.8426 0 86.4345C0 86.0265 0.162098 85.6351 0.450637 85.3466C0.739176 85.058 1.13052 84.8959 1.53858 84.8959H103.383C105.947 74.3253 111.978 64.9181 120.513 58.1755C129.048 51.4328 139.596 47.7434 150.473 47.6959C154.345 35.1704 161.771 24.039 171.85 15.654C181.928 7.26901 194.225 1.99132 207.246 0.462088C220.267 -1.06714 233.451 1.21791 245.198 7.03966C256.945 12.8614 266.749 21.9692 273.417 33.2567C274.931 33.1388 276.416 33.0794 277.843 33.0794C292.327 33.1186 306.261 38.6257 316.858 48.4987C327.455 58.3716 333.934 71.8821 334.996 86.3267C335.01 86.5283 334.985 86.7307 334.921 86.9223C334.857 87.114 334.755 87.2911 334.623 87.4437C334.49 87.5962 334.329 87.7211 334.148 87.8113C333.967 87.9015 333.771 87.9552 333.569 87.9693C333.532 87.972 333.496 87.9731 333.46 87.9731Z" fill="#E5E5E5" style="fill:#E5E5E5;fill:color(display-p3 0.8980 0.8980 0.8980);fill-opacity:1;"/>
<path d="M315.154 107.7H62.8272C62.4191 107.7 62.0278 107.538 61.7392 107.25C61.4507 106.961 61.2886 106.57 61.2886 106.162C61.2886 105.754 61.4507 105.362 61.7392 105.074C62.0278 104.785 62.4191 104.623 62.8272 104.623H315.154C315.562 104.623 315.953 104.785 316.242 105.074C316.53 105.362 316.692 105.754 316.692 106.162C316.692 106.57 316.53 106.961 316.242 107.25C315.953 107.538 315.562 107.7 315.154 107.7Z" fill="#E5E5E5" style="fill:#E5E5E5;fill:color(display-p3 0.8980 0.8980 0.8980);fill-opacity:1;"/>
<path d="M124.37 130.01H39.7485C39.3405 130.01 38.9491 129.847 38.6606 129.559C38.3721 129.27 38.21 128.879 38.21 128.471C38.21 128.063 38.3721 127.672 38.6606 127.383C38.9491 127.094 39.3405 126.932 39.7485 126.932H124.37C124.778 126.932 125.17 127.094 125.458 127.383C125.747 127.672 125.909 128.063 125.909 128.471C125.909 128.879 125.747 129.27 125.458 129.559C125.17 129.847 124.778 130.01 124.37 130.01Z" fill="#E5E5E5" style="fill:#E5E5E5;fill:color(display-p3 0.8980 0.8980 0.8980);fill-opacity:1;"/>
<path d="M883.875 345.239C911.319 276.634 903.017 200.03 867.623 141.196L497.12 192.492L852.18 118.502C702.537 -68.0886 411.28 55.6744 439.355 291.258L883.875 345.239Z" fill="#E6E6E6" style="fill:#E6E6E6;fill:color(display-p3 0.9020 0.9020 0.9020);fill-opacity:1;"/>
<path d="M900.215 269.403H428.189V416.376H900.215V269.403Z" fill="#225CF2" style="fill:#225CF2;fill:color(display-p3 0.1333 0.3608 0.9490);fill-opacity:1;"/>
<path d="M559.833 251.479C564.068 254.768 565.617 255.83 566.518 255.695C610.215 268.419 571.909 283.33 550.677 258.019L559.833 251.479Z" fill="#FFB8B8" style="fill:#FFB8B8;fill:color(display-p3 1.0000 0.7216 0.7216);fill-opacity:1;"/>
<path d="M415.642 385.905V415.778L437.152 414.584L431.177 383.516L415.642 385.905Z" fill="#FFB8B8" style="fill:#FFB8B8;fill:color(display-p3 1.0000 0.7216 0.7216);fill-opacity:1;"/>
<path d="M535.142 385.905V415.778L513.632 414.584L519.607 383.516L535.142 385.905Z" fill="#FFB8B8" style="fill:#FFB8B8;fill:color(display-p3 1.0000 0.7216 0.7216);fill-opacity:1;"/>
<path d="M469.417 231.764L501.682 230.569C576.113 308.593 547.965 290.797 545.897 397.855L506.462 385.906L514.827 311.822C514.831 311.819 517.034 310.351 515.203 310.317C503.754 314.252 495.4 265.541 470.612 271.195C442.404 269.846 437.812 311.688 426.397 311.822L434.762 385.906L395.327 397.855C390.912 280.209 369.272 306.786 439.542 230.569L469.417 231.764Z" fill="#2F2E41" style="fill:#2F2E41;fill:color(display-p3 0.1843 0.1804 0.2549);fill-opacity:1;"/>
<path d="M421.617 406.219C421.617 406.219 416.837 396.66 410.862 401.439C404.887 406.219 390.547 420.558 390.547 420.558C390.547 420.558 355.892 436.091 377.402 445.651C398.912 455.21 416.837 432.507 416.837 432.507C437.325 428.235 449.143 425.5 438.278 403.154C432.109 405.823 423.38 408.913 421.617 406.219Z" fill="#2F2E41" style="fill:#2F2E41;fill:color(display-p3 0.1843 0.1804 0.2549);fill-opacity:1;"/>
<path d="M529.167 406.219C529.167 406.219 533.947 396.66 539.922 401.439C545.897 406.219 560.237 420.558 560.237 420.558C560.237 420.558 594.892 436.091 573.382 445.651C551.872 455.21 533.947 432.507 533.947 432.507C513.459 428.235 501.642 425.5 512.507 403.154C518.675 405.823 527.405 408.913 529.167 406.219Z" fill="#2F2E41" style="fill:#2F2E41;fill:color(display-p3 0.1843 0.1804 0.2549);fill-opacity:1;"/>
<path d="M501.682 96.7398C499.905 126.486 459.305 123.867 458.662 96.7396C460.439 66.9939 501.039 69.6127 501.682 96.7398Z" fill="#FFB8B8" style="fill:#FFB8B8;fill:color(display-p3 1.0000 0.7216 0.7216);fill-opacity:1;"/>
<path d="M470.612 112.273C481.066 143.867 456.385 126.666 490.927 151.705L504.072 125.417C504.072 125.417 494.512 121.833 495.707 108.689L470.612 112.273Z" fill="#FFB8B8" style="fill:#FFB8B8;fill:color(display-p3 1.0000 0.7216 0.7216);fill-opacity:1;"/>
<path d="M535.142 130.197L499.52 122.067C500.522 143.544 477.599 139.221 473.6 128.418L439.542 148.12C453.837 201.357 450.214 203.553 431.177 237.738C423.912 244.372 434.777 248.174 444.236 244.544C451.451 240.091 455.115 236.135 462.845 237.142C499.374 244.747 529.784 246.542 534.596 243.57C536.318 241.106 534.546 130.625 535.142 130.197Z" fill="#575A89" style="fill:#575A89;fill:color(display-p3 0.3412 0.3529 0.5373);fill-opacity:1;"/>
<path d="M525.582 132.587C526.777 132.587 532.933 129.693 532.933 129.693C550.842 129.391 562.86 249.848 563.822 253.272L551.872 261.636L532.752 212.645L525.582 132.587Z" fill="#575A89" style="fill:#575A89;fill:color(display-p3 0.3412 0.3529 0.5373);fill-opacity:1;"/>
<path d="M441.932 272.39C442.543 276.9 443.583 327.543 461.726 303.886C464.106 286.627 456.013 281.475 453.882 270L441.932 272.39Z" fill="#FFB8B8" style="fill:#FFB8B8;fill:color(display-p3 1.0000 0.7216 0.7216);fill-opacity:1;"/>
<path d="M446.713 148.121L443.051 146.091C433.235 145.768 436.329 171.75 432.175 190.778C428.783 212.945 429.749 237.387 433.729 270.065C434.077 282.056 455.557 274.502 458.663 273.585C458.663 273.585 451.493 224.594 455.078 216.23C458.663 207.866 446.713 148.121 446.713 148.121Z" fill="#575A89" style="fill:#575A89;fill:color(display-p3 0.3412 0.3529 0.5373);fill-opacity:1;"/>
<path d="M500.743 75.8897C497.424 70.5012 492.23 66.5305 486.159 64.7418L481.7 68.3085L483.434 64.1483C481.976 63.926 480.5 63.8407 479.027 63.8936L475.015 69.0512L476.675 64.0703C459.461 65.9185 449.276 85.6785 458.213 99.508C459.591 95.2718 461.265 91.2968 462.643 87.0606C463.727 87.2082 464.825 87.2136 465.91 87.0765L467.587 83.1632L468.056 86.911C473.254 86.458 480.965 85.4638 485.893 84.5528L485.414 81.6778L488.281 84.0669C489.791 83.7193 490.688 83.4041 490.614 83.1632C494.279 89.0718 497.911 92.8457 501.576 98.7543C502.968 90.4201 505.424 83.4924 500.743 75.8897Z" fill="#2F2E41" style="fill:#2F2E41;fill:color(display-p3 0.1843 0.1804 0.2549);fill-opacity:1;"/>
<path d="M871.963 287.132H767.717V336.578H871.963V287.132Z" fill="white" style="fill:white;fill-opacity:1;"/>
<path d="M852.249 297.489H787.43V303.418H852.249V297.489Z" fill="#E6E6E6" style="fill:#E6E6E6;fill:color(display-p3 0.9020 0.9020 0.9020);fill-opacity:1;"/>
<path d="M852.249 308.891H787.43V314.82H852.249V308.891Z" fill="#E6E6E6" style="fill:#E6E6E6;fill:color(display-p3 0.9020 0.9020 0.9020);fill-opacity:1;"/>
<path d="M852.249 320.292H787.43V326.221H852.249V320.292Z" fill="#E6E6E6" style="fill:#E6E6E6;fill:color(display-p3 0.9020 0.9020 0.9020);fill-opacity:1;"/>
<path d="M676.935 298.878L673.544 293.005L670.153 287.132L666.762 293.005L663.371 298.878H667.015V315.883H673.291V298.878H676.935Z" fill="white" style="fill:white;fill-opacity:1;"/>
<path d="M906.7 419.881C922.121 419.881 934.622 407.382 934.622 391.962C934.622 376.543 922.121 364.044 906.7 364.044C891.28 364.044 878.779 376.543 878.779 391.962C878.779 407.382 891.28 419.881 906.7 419.881Z" fill="#3F3D56" style="fill:#3F3D56;fill:color(display-p3 0.2471 0.2392 0.3373);fill-opacity:1;"/>
<path d="M911.777 404.336C918.612 404.336 924.152 398.796 924.152 391.962C924.152 385.129 918.612 379.589 911.777 379.589C904.943 379.589 899.403 385.129 899.403 391.962C899.403 398.796 904.943 404.336 911.777 404.336Z" fill="#E6E6E6" style="fill:#E6E6E6;fill:color(display-p3 0.9020 0.9020 0.9020);fill-opacity:1;"/>
<path d="M889.091 411.474L950.011 436.855L948.107 442.883L913.046 438.916L853.714 412.584L886.711 416.392L889.091 411.474Z" fill="#3F3D56" style="fill:#3F3D56;fill:color(display-p3 0.2471 0.2392 0.3373);fill-opacity:1;"/>
<path d="M942.94 435.711L1018.71 187.195L1037.16 154.431L1037.22 154.115C1037.28 153.826 1038.64 146.978 1035.3 142.019C1034.46 140.786 1033.38 139.739 1032.12 138.944C1030.85 138.149 1029.44 137.623 1027.97 137.397C1017.78 135.488 995.002 134.548 994.038 134.508L993.856 134.501L993.675 134.526C993.053 134.61 978.494 136.739 975.202 149.451L959.363 178.276L959.3 178.481L887.594 414.205L891.54 415.405L963.184 179.887L979.077 150.964L979.141 150.698C981.469 141.132 992.595 138.894 994.075 138.638C996.402 138.737 1017.81 139.69 1027.21 141.451C1028.14 141.578 1029.03 141.898 1029.84 142.389C1030.64 142.88 1031.33 143.533 1031.87 144.305C1033.92 147.346 1033.41 151.823 1033.23 153L1014.89 185.562L1014.83 185.777L938.994 434.508L942.94 435.711Z" fill="#3F3D56" style="fill:#3F3D56;fill:color(display-p3 0.2471 0.2392 0.3373);fill-opacity:1;"/>
<path d="M954.018 202.109L953.285 206.168L1008 216.05L1008.74 211.991L954.018 202.109Z" fill="#3F3D56" style="fill:#3F3D56;fill:color(display-p3 0.2471 0.2392 0.3373);fill-opacity:1;"/>
<path d="M943.799 235.863L942.975 239.904L997.304 250.991L998.129 246.95L943.799 235.863Z" fill="#3F3D56" style="fill:#3F3D56;fill:color(display-p3 0.2471 0.2392 0.3373);fill-opacity:1;"/>
<path d="M925.602 296.23L924.468 300.195L977.51 315.371L978.645 311.406L925.602 296.23Z" fill="#3F3D56" style="fill:#3F3D56;fill:color(display-p3 0.2471 0.2392 0.3373);fill-opacity:1;"/>
<path d="M961.474 413.236L962.978 409.395L911.493 389.237L908.965 361.865L957.018 379.812L972.586 402.335L975.98 399.991L959.675 376.401L904.254 355.702L907.62 392.15L961.474 413.236Z" fill="#3F3D56" style="fill:#3F3D56;fill:color(display-p3 0.2471 0.2392 0.3373);fill-opacity:1;"/>
<path d="M979.359 446.531C994.779 446.531 1007.28 434.031 1007.28 418.612C1007.28 403.193 994.779 390.693 979.359 390.693C963.938 390.693 951.438 403.193 951.438 418.612C951.438 434.031 963.938 446.531 979.359 446.531Z" fill="#3F3D56" style="fill:#3F3D56;fill:color(display-p3 0.2471 0.2392 0.3373);fill-opacity:1;"/>
<path d="M986.657 432.255C993.491 432.255 999.031 426.715 999.031 419.881C999.031 413.048 993.491 407.508 986.657 407.508C979.823 407.508 974.283 413.048 974.283 419.881C974.283 426.715 979.823 432.255 986.657 432.255Z" fill="#E6E6E6" style="fill:#E6E6E6;fill:color(display-p3 0.9020 0.9020 0.9020);fill-opacity:1;"/>
</svg>
