<svg width="33" height="28" viewBox="0 0 33 28" fill="none" xmlns="http://www.w3.org/2000/svg">
<path d="M16.4995 3.6875C12.7641 3.6875 9.6933 5.42187 7.33861 7.6543C5.13288 9.75195 3.60892 12.2422 2.82975 14C3.60892 15.7578 5.13288 18.248 7.33288 20.3457C9.69329 22.5781 12.7641 24.3125 16.4995 24.3125C20.235 24.3125 23.3058 22.5781 25.6605 20.3457C27.8662 18.248 29.3902 15.7578 30.1693 14C29.3902 12.2422 27.8662 9.75195 25.6662 7.6543C23.3058 5.42187 20.235 3.6875 16.4995 3.6875ZM5.46517 5.59766C8.16361 3.03125 11.8704 0.875 16.4995 0.875C21.1287 0.875 24.8355 3.03125 27.5339 5.59766C30.2152 8.14648 32.0084 11.1875 32.862 13.2793C33.0511 13.7422 33.0511 14.2578 32.862 14.7207C32.0084 16.8125 30.2152 19.8594 27.5339 22.4023C24.8355 24.9687 21.1287 27.125 16.4995 27.125C11.8704 27.125 8.16361 24.9687 5.46517 22.4023C2.78392 19.8594 0.99069 16.8125 0.142773 14.7207C-0.0462891 14.2578 -0.0462891 13.7422 0.142773 13.2793C0.99069 11.1875 2.78392 8.14062 5.46517 5.59766ZM16.4995 18.6875C19.0318 18.6875 21.0829 16.5898 21.0829 14C21.0829 11.4102 19.0318 9.3125 16.4995 9.3125C16.4594 9.3125 16.4251 9.3125 16.385 9.3125C16.4594 9.61133 16.4995 9.92773 16.4995 10.25C16.4995 12.3184 14.8553 14 12.8329 14C12.5178 14 12.2084 13.959 11.9162 13.8828C11.9162 13.9238 11.9162 13.959 11.9162 14C11.9162 16.5898 13.9673 18.6875 16.4995 18.6875ZM16.4995 6.5C18.4445 6.5 20.3097 7.29018 21.685 8.6967C23.0603 10.1032 23.8329 12.0109 23.8329 14C23.8329 15.9891 23.0603 17.8968 21.685 19.3033C20.3097 20.7098 18.4445 21.5 16.4995 21.5C14.5546 21.5 12.6894 20.7098 11.3141 19.3033C9.93883 17.8968 9.16621 15.9891 9.16621 14C9.16621 12.0109 9.93883 10.1032 11.3141 8.6967C12.6894 7.29018 14.5546 6.5 16.4995 6.5Z" fill="#225CF2" style="fill:#225CF2;fill:color(display-p3 0.1333 0.3608 0.9490);fill-opacity:1;"/>
</svg>
