<svg width="1565" height="903" viewBox="0 0 1565 903" xmlns="http://www.w3.org/2000/svg"><path d="M1563.79 789.11L1369.17 676.75L1563.79 564.39L1563.29 563.52L1368.67 675.88V451.46L1563.79 338.82C1563.94 338.73 1564.04 338.57 1564.04 338.39C1564.04 338.21 1563.94 338.05 1563.79 337.96L1369.17 225.6L1563.79 113.24L1563.29 112.37L1368.67 224.73V0.02H1367.67V224.73L1173.29 112.52V0.02H1172.29V112.52L977.9 224.74V0.02H976.9V224.73L782.52 112.52V0H781.52V112.52L587.14 224.73V0.02H586.14V224.73L391.76 112.52V0.02H390.76V112.52L196.39 224.73V0H195.39V0.02H195.38V224.71L1 112.52V0.02H0V112.81C0 112.99 0.1 113.15 0.25 113.24L194.9 225.58L0.25 337.95C0.17 337.99 0.11 338.06 0.07 338.13C0.03 338.2 0 338.29 0 338.38V563.95C0 564.13 0.1 564.29 0.25 564.38L194.88 676.74L0.25 789.11C0.1 789.2 0 789.36 0 789.54V902.33H1V790.4L17.03 799.65L195.63 902.76C195.71 902.8 195.79 902.83 195.88 902.83C195.97 902.83 196.05 902.81 196.13 902.76L390.76 790.4V902.33H391.76V790.4L407.79 799.65L586.39 902.76C586.47 902.8 586.55 902.83 586.64 902.83C586.73 902.83 586.81 902.81 586.89 902.76L781.52 790.4V902.32H782.52V790.38L798.55 799.63L977.15 902.74C977.23 902.78 977.31 902.81 977.4 902.81C977.49 902.81 977.57 902.79 977.65 902.74L1004.39 887.3L1172.28 790.38V902.31H1173.28V790.38L1367.91 902.74C1367.99 902.78 1368.07 902.81 1368.16 902.81C1368.25 902.81 1368.33 902.79 1368.41 902.74L1563.78 789.95C1563.93 789.86 1564.03 789.7 1564.03 789.52C1564.03 789.34 1563.93 789.18 1563.78 789.09L1563.79 789.11ZM195.88 226.17L390.26 338.38L195.88 450.59L1.5 338.39L195.88 226.18V226.17ZM586.64 226.17L781.02 338.38L586.64 450.59L392.26 338.38L586.64 226.17ZM977.4 226.17L1171.78 338.38L977.4 450.59L783.02 338.38L977.4 226.17ZM1368.17 226.17L1562.54 338.38L1368.17 450.59L1319.58 422.54L1173.8 338.38L1368.18 226.17H1368.17ZM978.4 676.75L1172.79 564.53L1367.18 676.75L1172.79 788.97L978.4 676.75ZM587.64 676.75L782.02 564.54L976.4 676.75L782.02 788.96L587.64 676.75ZM196.88 676.75L391.27 564.53L585.65 676.75L391.26 788.96L196.87 676.75H196.88ZM1233.49 374L1367.67 451.46V675.88L1173.29 563.67V339.25L1233.49 374ZM1172.28 339.25V563.67L977.9 675.88V451.46L1076.18 394.73L1172.28 339.25ZM976.9 451.46V675.88L782.52 563.67V339.25L941.53 431.05L976.9 451.47V451.46ZM781.52 563.67L587.14 675.88V451.46L781.52 339.25V563.67ZM550.77 431.04L586.14 451.46V675.88L391.76 563.67V339.25L550.77 431.05V431.04ZM196.37 451.46L390.75 339.25V563.67L196.37 675.88V451.46ZM390.25 789.54L195.87 901.76L1.5 789.55L195.88 677.34L390.26 789.55L390.25 789.54ZM586.63 677.33L781.01 789.54L586.63 901.76L392.25 789.54L586.63 677.33ZM977.39 677.33L1171.77 789.54L977.39 901.76L783.01 789.54L977.39 677.33ZM1368.16 901.76L1173.78 789.54L1368.16 677.33L1562.53 789.54L1368.16 901.76ZM1367.16 225.59L1172.78 337.8L978.4 225.59L1172.78 113.38L1367.16 225.59ZM976.39 225.59L782.01 337.8L587.63 225.59L782.01 113.38L976.39 225.59ZM585.63 225.59L391.25 337.8L196.87 225.59L391.25 113.38L585.63 225.59ZM1 339.25L160.01 431.05L195.38 451.47V675.89L1 563.68V339.26V339.25Z" fill="white"/></svg>