<svg width="106" height="34" viewBox="0 0 106 34" xmlns="http://www.w3.org/2000/svg"><path d="M105.51 27.9801L96.43 22.4001V24.8101H86.76L93.59 18.7301C94.25 18.1201 94.9 17.5001 95.52 16.8801C96.14 16.2501 96.7 15.5801 97.19 14.8601C97.68 14.1401 98.06 13.3501 98.34 12.5101C98.62 11.6601 98.76 10.7101 98.76 9.66012C98.76 8.13012 98.46 6.80012 97.86 5.66012C97.26 4.52012 96.47 3.58012 95.47 2.83012C94.47 2.08012 93.33 1.53012 92.06 1.16012C90.78 0.800117 89.47 0.620117 88.1 0.620117C86.66 0.620117 85.29 0.840117 84 1.27012C82.71 1.70012 81.56 2.33012 80.56 3.16012C79.56 3.99012 78.73 4.98012 78.08 6.15012C77.43 7.32012 77.02 8.66012 76.85 10.1501L83.55 11.0701C83.69 9.74012 84.13 8.66012 84.86 7.84012C85.6 7.02012 86.55 6.61012 87.71 6.61012C88.87 6.61012 89.71 6.94012 90.38 7.59012C91.05 8.24012 91.38 9.09012 91.38 10.1501C91.38 11.0401 91.16 11.8401 90.71 12.5601C90.26 13.2801 89.68 13.9901 88.96 14.6801L77.47 25.0701V30.8901H96.42V33.5701L105.5 27.9901L105.51 27.9801ZM12.6 1.39012H0L5.32 7.99012H5.97C6.75 6.36012 7.76 4.94012 9.03 3.75012C10.07 2.78012 11.29 2.03012 12.61 1.39012H12.6ZM75.07 9.79012C74.26 7.89012 73.15 6.27012 71.72 4.94012C70.29 3.61012 68.59 2.58012 66.62 1.86012C64.66 1.14012 62.53 0.780117 60.23 0.780117V0.760117C59.34 0.760117 58.49 0.840117 57.65 0.950117C57.34 0.990117 57.03 1.03012 56.72 1.08012C56.66 1.09012 56.61 1.11012 56.55 1.12012C55.6 1.30012 54.69 1.54012 53.81 1.86012C53.74 1.88012 53.69 1.92012 53.62 1.95012C48.1 4.02012 44.05 8.50012 40.43 12.8901H39.11H26.64V19.1001H35.22C32.06 22.5501 28.82 25.0701 24.59 25.3401C24.31 25.3401 24.04 25.3401 23.81 25.3401C22.56 25.3401 21.42 25.1101 20.4 24.6501C19.37 24.1901 18.49 23.5601 17.76 22.7601C17.02 21.9601 16.45 20.9901 16.03 19.8701C15.61 18.7501 15.4 17.5201 15.4 16.1901C15.4 14.8601 15.6 13.7201 16 12.6101C16.4 11.5001 16.98 10.5501 17.73 9.76012C18.48 8.97012 19.37 8.34012 20.4 7.89012C21.43 7.43012 22.57 7.20012 23.81 7.20012C25.05 7.20012 26.2 7.43012 27.25 7.89012C27.78 8.12012 28.27 8.41012 28.72 8.73012H38.15C37.4 7.29012 36.47 6.03012 35.32 4.96012C33.89 3.63012 32.19 2.60012 30.22 1.88012C28.25 1.16012 26.11 0.800117 23.81 0.800117C21.51 0.800117 19.38 1.16012 17.42 1.88012C15.46 2.60012 13.77 3.63012 12.34 4.96012C10.91 6.29012 9.79 7.91012 8.99 9.81012C8.19 11.7101 7.78 13.8401 7.78 16.2001C7.78 18.5601 8.18 20.6601 8.99 22.5901C9.79 24.5201 10.91 26.1701 12.34 27.5401C13.77 28.9101 15.46 29.9801 17.42 30.7201C19.38 31.4601 21.51 31.8401 23.81 31.8401C26.11 31.8401 28.25 31.4701 30.22 30.7201C31.55 30.2101 32.75 29.5501 33.84 28.7601C37.93 26.1201 41.17 22.1601 44.16 18.4801C48.85 12.7201 53.28 7.29012 60.05 7.20012C60.1 7.20012 60.15 7.20012 60.2 7.20012C61.45 7.20012 62.59 7.43012 63.64 7.89012C64.68 8.35012 65.57 8.97012 66.3 9.76012C67.04 10.5501 67.61 11.5001 68.03 12.6101C68.45 13.7201 68.66 14.9101 68.66 16.1901C68.66 17.4701 68.45 18.7501 68.03 19.8701C67.61 20.9901 67.03 21.9601 66.28 22.7601C65.53 23.5701 64.64 24.2001 63.61 24.6501C62.58 25.1101 61.45 25.3401 60.2 25.3401C58.95 25.3401 57.81 25.1101 56.79 24.6501C55.76 24.1901 54.88 23.5601 54.15 22.7601C53.41 21.9601 52.84 20.9901 52.42 19.8701C52.04 18.8601 51.86 17.7501 51.83 16.5801C50.33 18.1601 48.89 19.9301 47.43 21.7301C46.92 22.3501 46.41 22.9801 45.88 23.6201C46.63 25.1101 47.58 26.4201 48.74 27.5401C50.17 28.9101 51.86 29.9801 53.82 30.7201C55.78 31.4601 57.91 31.8401 60.21 31.8401C62.51 31.8401 64.65 31.4701 66.62 30.7201C68.59 29.9701 70.29 28.9101 71.72 27.5401C73.15 26.1701 74.26 24.5101 75.07 22.5901C75.87 20.6601 76.28 18.5301 76.28 16.2001C76.28 13.8701 75.88 11.7101 75.07 9.81012V9.79012Z" fill="#225CF2"/></svg>