<svg width="214" height="42" viewBox="0 0 214 42" xmlns="http://www.w3.org/2000/svg"><path d="M133.95 31.35H126.94L121.13 11.49H121.01L115.2 31.35H108.15L99.8203 1.99H107.45L112.09 21.52H112.21L117.45 1.99H124.83L130.1 21.52H130.22L134.95 1.99H142.33L133.95 31.35ZM163.92 20.94C163.92 22.63 163.62 24.15 163.01 25.52C162.4 26.89 161.57 28.05 160.52 29C159.47 29.95 158.25 30.69 156.87 31.22C155.49 31.74 154.01 32.01 152.43 32.01C150.85 32.01 149.41 31.75 148.01 31.22C146.61 30.69 145.4 29.95 144.36 29C143.32 28.05 142.5 26.88 141.89 25.52C141.28 24.16 140.98 22.62 140.98 20.94C140.98 19.26 141.28 17.73 141.89 16.38C142.5 15.03 143.32 13.88 144.36 12.94C145.4 12 146.61 11.28 148.01 10.78C149.41 10.28 150.88 10.03 152.43 10.03C153.98 10.03 155.48 10.28 156.87 10.78C158.25 11.28 159.47 12 160.52 12.94C161.57 13.88 162.4 15.03 163.01 16.38C163.62 17.73 163.92 19.26 163.92 20.94ZM157.37 20.94C157.37 20.28 157.26 19.63 157.04 18.99C156.82 18.35 156.5 17.79 156.09 17.31C155.67 16.83 155.16 16.43 154.55 16.13C153.94 15.83 153.24 15.67 152.44 15.67C151.64 15.67 150.93 15.82 150.32 16.13C149.71 16.43 149.21 16.83 148.81 17.31C148.41 17.79 148.1 18.35 147.9 18.99C147.69 19.63 147.59 20.28 147.59 20.94C147.59 21.6 147.69 22.25 147.9 22.89C148.11 23.53 148.42 24.1 148.83 24.61C149.24 25.12 149.76 25.53 150.36 25.83C150.97 26.13 151.67 26.29 152.47 26.29C153.27 26.29 153.98 26.14 154.59 25.83C155.2 25.53 155.71 25.12 156.12 24.61C156.53 24.1 156.85 23.53 157.05 22.89C157.26 22.25 157.36 21.6 157.36 20.94H157.37ZM179.89 16.3C179.59 16.22 179.29 16.16 179 16.13C178.71 16.1 178.43 16.09 178.15 16.09C177.24 16.09 176.47 16.26 175.85 16.59C175.23 16.92 174.73 17.32 174.36 17.79C173.99 18.26 173.72 18.77 173.55 19.32C173.38 19.87 173.3 20.35 173.3 20.77V31.36H166.5V10.72H173.05V13.71H173.13C173.65 12.65 174.4 11.79 175.37 11.12C176.34 10.45 177.46 10.12 178.73 10.12C179.01 10.12 179.28 10.13 179.54 10.16C179.8 10.19 180.02 10.23 180.18 10.28L179.89 16.29V16.3ZM181.48 31.35V0H188.4V31.35H181.48ZM207.71 31.35V28.65H207.63C206.97 29.7 206.02 30.51 204.79 31.08C203.56 31.65 202.25 31.93 200.87 31.93C199.32 31.93 197.94 31.63 196.72 31.02C195.5 30.41 194.47 29.6 193.63 28.59C192.79 27.58 192.14 26.41 191.7 25.09C191.26 23.77 191.04 22.38 191.04 20.94C191.04 19.5 191.27 18.13 191.72 16.81C192.18 15.5 192.83 14.34 193.67 13.35C194.51 12.35 195.54 11.57 196.74 10.99C197.94 10.41 199.29 10.12 200.78 10.12C202.27 10.12 203.59 10.41 204.64 10.99C205.69 11.57 206.51 12.21 207.09 12.9H207.17V0H213.97V31.35H207.71ZM207.46 20.98C207.46 20.32 207.34 19.67 207.11 19.03C206.88 18.39 206.54 17.83 206.11 17.33C205.68 16.83 205.16 16.43 204.56 16.13C203.95 15.83 203.26 15.67 202.49 15.67C201.72 15.67 200.98 15.82 200.37 16.13C199.76 16.43 199.25 16.83 198.84 17.31C198.42 17.79 198.11 18.35 197.91 18.99C197.7 19.63 197.6 20.28 197.6 20.94C197.6 21.6 197.7 22.26 197.91 22.91C198.12 23.56 198.43 24.13 198.84 24.63C199.25 25.13 199.77 25.53 200.37 25.83C200.98 26.13 201.68 26.29 202.49 26.29C203.3 26.29 203.95 26.14 204.56 25.83C205.17 25.53 205.69 25.13 206.11 24.63C206.53 24.13 206.87 23.57 207.11 22.93C207.35 22.29 207.46 21.64 207.46 20.98Z" fill="#2F3542"/><path d="M105.51 28.9801L96.43 23.4001V25.8101H86.76L93.59 19.7301C94.25 19.1201 94.9 18.5001 95.52 17.8801C96.14 17.2501 96.7 16.5801 97.19 15.8601C97.68 15.1401 98.06 14.3501 98.34 13.5101C98.62 12.6601 98.76 11.7101 98.76 10.6601C98.76 9.13012 98.46 7.80012 97.86 6.66012C97.26 5.52012 96.47 4.58012 95.47 3.83012C94.47 3.08012 93.33 2.53012 92.06 2.16012C90.78 1.80012 89.47 1.62012 88.1 1.62012C86.66 1.62012 85.29 1.84012 84 2.27012C82.71 2.70012 81.56 3.33012 80.56 4.16012C79.56 4.99012 78.73 5.98012 78.08 7.15012C77.43 8.32012 77.02 9.66012 76.85 11.1501L83.55 12.0701C83.69 10.7401 84.13 9.66012 84.86 8.84012C85.6 8.02012 86.55 7.61012 87.71 7.61012C88.87 7.61012 89.71 7.94012 90.38 8.59012C91.05 9.24012 91.38 10.0901 91.38 11.1501C91.38 12.0401 91.16 12.8401 90.71 13.5601C90.26 14.2801 89.68 14.9901 88.96 15.6801L77.47 26.0701V31.8901H96.42V34.5701L105.5 28.9901L105.51 28.9801ZM12.6 2.39012H0L5.32 8.99012H5.97C6.75 7.36012 7.76 5.94012 9.03 4.75012C10.07 3.78012 11.29 3.03012 12.61 2.39012H12.6ZM75.07 10.7901C74.26 8.89012 73.15 7.27012 71.72 5.94012C70.29 4.61012 68.59 3.58012 66.62 2.86012C64.66 2.14012 62.53 1.78012 60.23 1.78012V1.76012C59.34 1.76012 58.49 1.84012 57.65 1.95012C57.34 1.99012 57.03 2.03012 56.72 2.08012C56.66 2.09012 56.61 2.11012 56.55 2.12012C55.6 2.30012 54.69 2.54012 53.81 2.86012C53.74 2.88012 53.69 2.92012 53.62 2.95012C48.1 5.02012 44.05 9.50012 40.43 13.8901H39.11H26.64V20.1001H35.22C32.06 23.5501 28.82 26.0701 24.59 26.3401C24.31 26.3401 24.04 26.3401 23.81 26.3401C22.56 26.3401 21.42 26.1101 20.4 25.6501C19.37 25.1901 18.49 24.5601 17.76 23.7601C17.02 22.9601 16.45 21.9901 16.03 20.8701C15.61 19.7501 15.4 18.5201 15.4 17.1901C15.4 15.8601 15.6 14.7201 16 13.6101C16.4 12.5001 16.98 11.5501 17.73 10.7601C18.48 9.97012 19.37 9.34012 20.4 8.89012C21.43 8.43012 22.57 8.20012 23.81 8.20012C25.05 8.20012 26.2 8.43012 27.25 8.89012C27.78 9.12012 28.27 9.41012 28.72 9.73012H38.15C37.4 8.29012 36.47 7.03012 35.32 5.96012C33.89 4.63012 32.19 3.60012 30.22 2.88012C28.25 2.16012 26.11 1.80012 23.81 1.80012C21.51 1.80012 19.38 2.16012 17.42 2.88012C15.46 3.60012 13.77 4.63012 12.34 5.96012C10.91 7.29012 9.79 8.91012 8.99 10.8101C8.19 12.7101 7.78 14.8401 7.78 17.2001C7.78 19.5601 8.18 21.6601 8.99 23.5901C9.79 25.5201 10.91 27.1701 12.34 28.5401C13.77 29.9101 15.46 30.9801 17.42 31.7201C19.38 32.4601 21.51 32.8401 23.81 32.8401C26.11 32.8401 28.25 32.4701 30.22 31.7201C31.55 31.2101 32.75 30.5501 33.84 29.7601C37.93 27.1201 41.17 23.1601 44.16 19.4801C48.85 13.7201 53.28 8.29012 60.05 8.20012C60.1 8.20012 60.15 8.20012 60.2 8.20012C61.45 8.20012 62.59 8.43012 63.64 8.89012C64.68 9.35012 65.57 9.97012 66.3 10.7601C67.04 11.5501 67.61 12.5001 68.03 13.6101C68.45 14.7201 68.66 15.9101 68.66 17.1901C68.66 18.4701 68.45 19.7501 68.03 20.8701C67.61 21.9901 67.03 22.9601 66.28 23.7601C65.53 24.5701 64.64 25.2001 63.61 25.6501C62.58 26.1101 61.45 26.3401 60.2 26.3401C58.95 26.3401 57.81 26.1101 56.79 25.6501C55.76 25.1901 54.88 24.5601 54.15 23.7601C53.41 22.9601 52.84 21.9901 52.42 20.8701C52.04 19.8601 51.86 18.7501 51.83 17.5801C50.33 19.1601 48.89 20.9301 47.43 22.7301C46.92 23.3501 46.41 23.9801 45.88 24.6201C46.63 26.1101 47.58 27.4201 48.74 28.5401C50.17 29.9101 51.86 30.9801 53.82 31.7201C55.78 32.4601 57.91 32.8401 60.21 32.8401C62.51 32.8401 64.65 32.4701 66.62 31.7201C68.59 30.9701 70.29 29.9101 71.72 28.5401C73.15 27.1701 74.26 25.5101 75.07 23.5901C75.87 21.6601 76.28 19.5301 76.28 17.2001C76.28 14.8701 75.88 12.7101 75.07 10.8101V10.7901Z" fill="#225CF2"/><path d="M143.24 38.7299H143.77V41.2299H145.03V41.6999H143.24V38.7299ZM151.39 40.1999C151.39 39.9599 151.43 39.7499 151.51 39.5599C151.59 39.3699 151.7 39.1999 151.84 39.0699C151.98 38.9399 152.15 38.8299 152.34 38.7599C152.53 38.6899 152.75 38.6499 152.98 38.6499C153.21 38.6499 153.43 38.6899 153.62 38.7599C153.82 38.8299 153.99 38.9399 154.13 39.0699C154.27 39.1999 154.38 39.3699 154.46 39.5599C154.54 39.7499 154.58 39.9699 154.58 40.1999C154.58 40.4299 154.54 40.6399 154.46 40.8399C154.38 41.0299 154.27 41.1999 154.13 41.3399C153.99 41.4799 153.82 41.5899 153.62 41.6599C153.42 41.7399 153.21 41.7799 152.98 41.7799C152.75 41.7799 152.54 41.7399 152.34 41.6599C152.14 41.5799 151.98 41.4799 151.84 41.3399C151.7 41.1999 151.59 41.0399 151.51 40.8399C151.43 40.6499 151.39 40.4399 151.39 40.1999ZM151.97 40.1999C151.97 40.3599 152 40.5099 152.04 40.6399C152.09 40.7699 152.16 40.8899 152.25 40.9899C152.34 41.0899 152.45 41.1599 152.57 41.2199C152.69 41.2699 152.83 41.2999 152.98 41.2999C153.13 41.2999 153.27 41.2699 153.4 41.2199C153.53 41.1699 153.63 41.0899 153.73 40.9899C153.82 40.8899 153.89 40.7799 153.94 40.6399C153.99 40.5099 154.01 40.3599 154.01 40.1999C154.01 40.0399 153.99 39.8999 153.94 39.7699C153.89 39.6399 153.82 39.5199 153.73 39.4299C153.64 39.3299 153.53 39.2499 153.41 39.1999C153.29 39.1499 153.14 39.1199 152.99 39.1199C152.84 39.1199 152.7 39.1499 152.57 39.1999C152.45 39.2599 152.34 39.3299 152.25 39.4299C152.16 39.5299 152.09 39.6399 152.04 39.7699C151.99 39.8999 151.97 40.0399 151.97 40.1999ZM163.9 41.5399C163.75 41.6099 163.58 41.6699 163.4 41.7099C163.22 41.7499 163.01 41.7699 162.78 41.7699C162.55 41.7699 162.32 41.7299 162.12 41.6499C161.92 41.5699 161.75 41.4699 161.61 41.3299C161.47 41.1899 161.36 41.0299 161.28 40.8299C161.2 40.6399 161.16 40.4299 161.16 40.1899C161.16 39.9499 161.2 39.7399 161.28 39.5499C161.36 39.3599 161.48 39.1899 161.62 39.0599C161.76 38.9299 161.93 38.8199 162.13 38.7499C162.33 38.6799 162.54 38.6399 162.77 38.6399C163 38.6399 163.23 38.6699 163.42 38.7399C163.62 38.8099 163.78 38.8999 163.9 39.0099L163.53 39.4099C163.45 39.3299 163.35 39.2499 163.21 39.1999C163.07 39.1399 162.93 39.1099 162.77 39.1099C162.61 39.1099 162.47 39.1399 162.34 39.1899C162.21 39.2499 162.1 39.3199 162.01 39.4199C161.92 39.5199 161.85 39.6299 161.8 39.7599C161.75 39.8899 161.73 40.0299 161.73 40.1899C161.73 40.3499 161.75 40.4999 161.8 40.6299C161.85 40.7599 161.92 40.8799 162.01 40.9799C162.1 41.0799 162.21 41.1499 162.34 41.2099C162.47 41.2599 162.62 41.2899 162.78 41.2899C163.01 41.2899 163.2 41.2599 163.37 41.1899V40.4299H162.74V39.9899H163.88V41.5299L163.9 41.5399ZM170.76 38.7299H171.29V41.6999H170.76V38.7299ZM179.68 39.3499C179.62 39.2799 179.55 39.2199 179.44 39.1699C179.34 39.1199 179.23 39.0999 179.13 39.0999C179.07 39.0999 179.01 39.0999 178.95 39.1199C178.89 39.1399 178.83 39.1599 178.78 39.1899C178.73 39.2199 178.69 39.2599 178.66 39.3199C178.63 39.3799 178.61 39.4299 178.61 39.5099C178.61 39.5799 178.62 39.6299 178.65 39.6799C178.68 39.7299 178.72 39.7699 178.77 39.7999C178.82 39.8299 178.88 39.8599 178.95 39.8899C179.02 39.9199 179.1 39.9399 179.18 39.9699C179.27 39.9999 179.37 40.0399 179.48 40.0799C179.59 40.1199 179.68 40.1699 179.76 40.2399C179.85 40.2999 179.92 40.3899 179.97 40.4799C180.02 40.5799 180.05 40.6999 180.05 40.8499C180.05 41.0099 180.02 41.1499 179.96 41.2699C179.9 41.3899 179.82 41.4899 179.72 41.5699C179.62 41.6499 179.51 41.7099 179.38 41.7499C179.25 41.7899 179.11 41.8099 178.96 41.8099C178.77 41.8099 178.58 41.7699 178.39 41.6999C178.2 41.6299 178.05 41.5199 177.94 41.3799L178.32 41.0299C178.39 41.1299 178.49 41.2099 178.61 41.2699C178.73 41.3299 178.85 41.3599 178.97 41.3599C179.03 41.3599 179.09 41.3599 179.16 41.3399C179.22 41.3199 179.28 41.2999 179.33 41.2599C179.38 41.2199 179.42 41.1799 179.46 41.1199C179.5 41.0599 179.51 40.9999 179.51 40.9199C179.51 40.8399 179.49 40.7799 179.46 40.7199C179.43 40.6599 179.37 40.6199 179.31 40.5899C179.25 40.5599 179.18 40.5199 179.09 40.4899C179 40.4599 178.92 40.4299 178.83 40.3999C178.74 40.3699 178.65 40.3399 178.56 40.2999C178.47 40.2599 178.39 40.2099 178.32 40.1399C178.25 40.0699 178.19 39.9999 178.15 39.8999C178.11 39.8099 178.08 39.6899 178.08 39.5499C178.08 39.3999 178.11 39.2699 178.17 39.1599C178.23 39.0499 178.32 38.9599 178.42 38.8899C178.52 38.8199 178.64 38.7699 178.77 38.7299C178.9 38.6999 179.03 38.6799 179.17 38.6799C179.32 38.6799 179.47 38.7099 179.63 38.7599C179.79 38.8099 179.92 38.8899 180.04 38.9999L179.7 39.3799L179.68 39.3499ZM187.43 39.1899H186.52V38.7299H188.87V39.1899H187.96V41.6999H187.43V39.1899ZM195.43 38.7299H195.96V41.6999H195.43V38.7299ZM204.97 39.4199C204.89 39.3099 204.79 39.2399 204.66 39.1899C204.53 39.1399 204.41 39.1199 204.29 39.1199C204.14 39.1199 204 39.1499 203.87 39.1999C203.74 39.2499 203.63 39.3299 203.54 39.4299C203.45 39.5299 203.38 39.6399 203.33 39.7699C203.28 39.8999 203.26 40.0399 203.26 40.1999C203.26 40.3599 203.28 40.5099 203.33 40.6499C203.38 40.7799 203.45 40.8999 203.53 40.9999C203.62 41.0999 203.72 41.1699 203.85 41.2199C203.97 41.2699 204.11 41.2999 204.27 41.2999C204.43 41.2999 204.57 41.2699 204.69 41.2099C204.81 41.1499 204.91 41.0599 204.99 40.9599L205.41 41.2599C205.28 41.4299 205.12 41.5499 204.93 41.6399C204.74 41.7299 204.52 41.7799 204.26 41.7799C204.03 41.7799 203.81 41.7399 203.62 41.6599C203.43 41.5799 203.26 41.4799 203.12 41.3399C202.98 41.1999 202.87 41.0399 202.79 40.8399C202.71 40.6499 202.67 40.4399 202.67 40.1999C202.67 39.9599 202.71 39.7499 202.79 39.5599C202.87 39.3699 202.99 39.1999 203.13 39.0699C203.27 38.9399 203.44 38.8299 203.64 38.7599C203.84 38.6899 204.05 38.6499 204.28 38.6499C204.37 38.6499 204.47 38.6499 204.58 38.6799C204.68 38.6999 204.78 38.7299 204.88 38.7599C204.98 38.7999 205.07 38.8399 205.15 38.8999C205.23 38.9599 205.31 39.0199 205.36 39.0999L204.96 39.4199H204.97ZM213.58 39.3499C213.52 39.2799 213.45 39.2199 213.34 39.1699C213.24 39.1199 213.13 39.0999 213.03 39.0999C212.97 39.0999 212.91 39.0999 212.85 39.1199C212.79 39.1399 212.73 39.1599 212.68 39.1899C212.63 39.2199 212.59 39.2599 212.56 39.3199C212.53 39.3799 212.51 39.4299 212.51 39.5099C212.51 39.5799 212.52 39.6299 212.55 39.6799C212.58 39.7299 212.62 39.7699 212.67 39.7999C212.72 39.8299 212.78 39.8599 212.85 39.8899C212.92 39.9199 213 39.9399 213.08 39.9699C213.17 39.9999 213.27 40.0399 213.38 40.0799C213.49 40.1199 213.58 40.1699 213.66 40.2399C213.75 40.2999 213.82 40.3899 213.87 40.4799C213.92 40.5799 213.95 40.6999 213.95 40.8499C213.95 41.0099 213.92 41.1499 213.86 41.2699C213.8 41.3899 213.72 41.4899 213.62 41.5699C213.52 41.6499 213.41 41.7099 213.28 41.7499C213.15 41.7899 213.01 41.8099 212.86 41.8099C212.67 41.8099 212.48 41.7699 212.29 41.6999C212.1 41.6299 211.95 41.5199 211.84 41.3799L212.22 41.0299C212.29 41.1299 212.39 41.2099 212.51 41.2699C212.63 41.3299 212.75 41.3599 212.87 41.3599C212.93 41.3599 212.99 41.3599 213.06 41.3399C213.12 41.3199 213.18 41.2999 213.23 41.2599C213.28 41.2199 213.32 41.1799 213.36 41.1199C213.4 41.0599 213.41 40.9999 213.41 40.9199C213.41 40.8399 213.39 40.7799 213.36 40.7199C213.33 40.6599 213.27 40.6199 213.21 40.5899C213.15 40.5599 213.08 40.5199 212.99 40.4899C212.9 40.4599 212.82 40.4299 212.73 40.3999C212.64 40.3699 212.55 40.3399 212.46 40.2999C212.37 40.2599 212.29 40.2099 212.22 40.1399C212.15 40.0699 212.09 39.9999 212.05 39.8999C212.01 39.8099 211.98 39.6899 211.98 39.5499C211.98 39.3999 212.01 39.2699 212.07 39.1599C212.13 39.0499 212.22 38.9599 212.32 38.8899C212.42 38.8199 212.54 38.7699 212.67 38.7299C212.8 38.6999 212.93 38.6799 213.07 38.6799C213.22 38.6799 213.37 38.7099 213.53 38.7599C213.69 38.8099 213.82 38.8899 213.94 38.9999L213.6 39.3799L213.58 39.3499Z" fill="#747D8C"/></svg>