<svg width="27" height="27" viewBox="0 0 27 27" fill="none" xmlns="http://www.w3.org/2000/svg">
<path d="M24.4688 13.5C24.4687 10.5909 23.3131 7.80096 21.2561 5.74392C19.199 3.68688 16.4091 2.53125 13.5 2.53125C10.5909 2.53125 7.80096 3.68688 5.74392 5.74392C3.68688 7.80096 2.53125 10.5909 2.53125 13.5C2.53125 16.4091 3.68688 19.199 5.74392 21.2561C7.80096 23.3131 10.5909 24.4688 13.5 24.4688C16.4091 24.4688 19.199 23.3131 21.2561 21.2561C23.3131 19.199 24.4688 16.4091 24.4688 13.5ZM0 13.5C0 9.91958 1.42232 6.4858 3.95406 3.95406C6.4858 1.42232 9.91958 0 13.5 0C17.0804 0 20.5142 1.42232 23.0459 3.95406C25.5777 6.4858 27 9.91958 27 13.5C27 17.0804 25.5777 20.5142 23.0459 23.0459C20.5142 25.5777 17.0804 27 13.5 27C9.91958 27 6.4858 25.5777 3.95406 23.0459C1.42232 20.5142 0 17.0804 0 13.5ZM13.5 19.4062C15.0664 19.4062 16.5687 18.784 17.6763 17.6763C18.784 16.5687 19.4062 15.0664 19.4062 13.5C19.4062 11.9336 18.784 10.4313 17.6763 9.32365C16.5687 8.21601 15.0664 7.59375 13.5 7.59375C11.9336 7.59375 10.4313 8.21601 9.32365 9.32365C8.21601 10.4313 7.59375 11.9336 7.59375 13.5C7.59375 15.0664 8.21601 16.5687 9.32365 17.6763C10.4313 18.784 11.9336 19.4062 13.5 19.4062ZM13.5 5.0625C15.7378 5.0625 17.8839 5.95145 19.4662 7.53379C21.0486 9.11612 21.9375 11.2622 21.9375 13.5C21.9375 15.7378 21.0486 17.8839 19.4662 19.4662C17.8839 21.0486 15.7378 21.9375 13.5 21.9375C11.2622 21.9375 9.11612 21.0486 7.53379 19.4662C5.95145 17.8839 5.0625 15.7378 5.0625 13.5C5.0625 11.2622 5.95145 9.11612 7.53379 7.53379C9.11612 5.95145 11.2622 5.0625 13.5 5.0625ZM13.5 14.3438C13.7238 14.3438 13.9384 14.2549 14.0966 14.0966C14.2549 13.9384 14.3438 13.7238 14.3438 13.5C14.3438 13.2762 14.2549 13.0616 14.0966 12.9034C13.9384 12.7451 13.7238 12.6562 13.5 12.6562C13.2762 12.6562 13.0616 12.7451 12.9034 12.9034C12.7451 13.0616 12.6562 13.2762 12.6562 13.5C12.6562 13.7238 12.7451 13.9384 12.9034 14.0966C13.0616 14.2549 13.2762 14.3438 13.5 14.3438ZM13.5 10.125C14.3951 10.125 15.2535 10.4806 15.8865 11.1135C16.5194 11.7464 16.875 12.6049 16.875 13.5C16.875 14.3951 16.5194 15.2535 15.8865 15.8865C15.2535 16.5194 14.3951 16.875 13.5 16.875C12.6049 16.875 11.7464 16.5194 11.1135 15.8865C10.4806 15.2535 10.125 14.3951 10.125 13.5C10.125 12.6049 10.4806 11.7464 11.1135 11.1135C11.7464 10.4806 12.6049 10.125 13.5 10.125Z" fill="#225CF2" style="fill:#225CF2;fill:color(display-p3 0.1333 0.3608 0.9490);fill-opacity:1;"/>
</svg>
