<svg width="35" height="28" viewBox="0 0 35 28" fill="none" xmlns="http://www.w3.org/2000/svg">
<path d="M16.2641 0.514069C16.9477 -0.169525 18.0578 -0.169525 18.7414 0.514069L23.9914 5.76407C24.675 6.44766 24.675 7.55782 23.9914 8.24141L18.7414 13.4914C18.0578 14.175 16.9477 14.175 16.2641 13.4914L11.0141 8.24141C10.3305 7.55782 10.3305 6.44766 11.0141 5.76407L16.2641 0.514069ZM3.9375 3.50001C6.11406 3.50001 7.875 5.26094 7.875 7.43751V14.4813C8.53672 13.907 9.40625 13.5625 10.3523 13.5625C11.3586 13.5625 12.3211 13.9617 13.032 14.6727L16.3898 18.0305C16.8109 18.4516 17.1828 18.9164 17.5055 19.4141C17.8227 18.9164 18.1945 18.457 18.6211 18.0305L21.9789 14.6727C22.6898 13.9617 23.6523 13.5625 24.6586 13.5625C25.6047 13.5625 26.4687 13.907 27.1359 14.4813V7.43751C27.1359 5.26094 28.8969 3.50001 31.0734 3.50001C33.25 3.50001 35.0109 5.26094 35.0109 7.43751V19.2609C35.0109 21 34.3219 22.668 33.0914 23.9039L29.3672 27.6172C28.8531 28.1313 28.0219 28.1313 27.5133 27.6172C27.0047 27.1031 26.9992 26.2719 27.5133 25.7633L31.2266 22.05C31.9648 21.3117 32.3805 20.3109 32.3805 19.2664V7.43751C32.3805 6.71016 31.7953 6.12501 31.068 6.12501C30.3406 6.12501 29.7555 6.71016 29.7555 7.43751V15.4164C29.7555 16.8164 29.1977 18.1617 28.2078 19.157L27.3383 20.0266L25.8672 21.4922L24.9922 22.3672C24.4781 22.8813 23.6469 22.8813 23.1383 22.3672C22.6297 21.8531 22.6242 21.0219 23.1383 20.5133L24.0133 19.6383L25.4734 18.1781C25.6922 17.9594 25.8125 17.6641 25.8125 17.3578C25.8125 16.718 25.293 16.193 24.6477 16.193C24.3414 16.193 24.0461 16.3133 23.8273 16.532L20.4695 19.8899C19.4086 20.9453 18.8125 22.3891 18.8125 23.8875V26.6875C18.8125 27.4149 18.2273 28 17.5 28C16.7727 28 16.1875 27.4149 16.1875 26.6875V23.8875C16.1875 22.3891 15.5914 20.9453 14.5305 19.8844L11.1727 16.5266C10.9539 16.3078 10.6586 16.1875 10.3523 16.1875C9.7125 16.1875 9.1875 16.707 9.1875 17.3523C9.1875 17.6586 9.30781 17.9539 9.52656 18.1727L10.9922 19.6328L11.8672 20.5078C12.3812 21.0219 12.3812 21.8531 11.8672 22.3617C11.3531 22.8703 10.5219 22.8758 10.0133 22.3617L9.13828 21.4867L7.67812 20.0266L6.80859 19.157C5.80781 18.1617 5.25 16.8164 5.25 15.4164V7.43751C5.25 6.71016 4.66484 6.12501 3.9375 6.12501C3.21016 6.12501 2.625 6.71016 2.625 7.43751V19.2609C2.625 20.3055 3.04062 21.3063 3.77891 22.0445L7.49219 25.7578C8.00625 26.2719 8.00625 27.1031 7.49219 27.6117C6.97812 28.1203 6.14687 28.1258 5.63828 27.6117L1.91953 23.9039C0.689062 22.6734 0 21.0055 0 19.2609V7.43751C0 5.26094 1.76094 3.50001 3.9375 3.50001Z" fill="#225CF2" style="fill:#225CF2;fill:color(display-p3 0.1333 0.3608 0.9490);fill-opacity:1;"/>
</svg>
