<svg width="3753" height="1398" viewBox="0 0 3753 1398" xmlns="http://www.w3.org/2000/svg">
<path d="M2154.94 701.718V519.202C2154.94 484.252 2139.03 463.088 2109.34 463.088C2069.95 463.088 2043.76 505.028 2043.76 561.918V701.913H1979.53V494.348C1979.53 471.437 1977.4 438.234 1976.43 419.206H2027.85C2033.67 419.206 2035.41 421.536 2035.41 426.972C2035.41 432.797 2036 462.117 2036 462.117H2037.35C2045.31 448.913 2064.91 413.187 2123.89 413.187C2182.88 413.187 2218.97 454.933 2218.97 501.727V701.913H2154.94V701.718ZM1653.75 639.585C1655.5 639.585 1657.82 640.556 1658.21 645.604C1659.38 659.196 1659.96 681.137 1659.96 687.932C1647.15 694.34 1619.41 706.961 1585.45 706.961C1499.88 706.961 1447.49 657.254 1447.49 560.171C1447.49 469.107 1494.25 413.187 1585.45 413.187C1615.72 413.187 1643.66 423.672 1659.96 432.215C1659.96 442.312 1658.99 465.029 1658.21 474.738C1657.82 478.621 1655.88 480.562 1653.75 480.562C1651.23 480.562 1650.26 479.98 1648.7 479.203C1628.14 469.107 1608.73 464.252 1591.27 464.252C1536.75 464.252 1514.43 499.979 1514.43 560.171C1514.43 613.955 1532.28 656.089 1591.27 656.089C1613.78 656.089 1634.35 648.128 1647.15 641.915C1650.45 640.168 1651.03 639.585 1653.75 639.585ZM1875.34 701.718C1870.1 701.718 1866.02 699.971 1865.25 692.398C1864.66 683.272 1863.31 665.409 1863.31 665.409H1862.53C1858.65 670.652 1835.36 706.961 1776.57 706.961C1717.78 706.961 1688.29 663.662 1688.29 616.091C1688.29 550.268 1752.32 517.066 1847.2 517.066H1859.81V506.775C1859.81 477.262 1838.66 461.34 1799.47 461.34C1764.15 461.34 1734.66 473.767 1723.41 479.786C1722.63 480.174 1720.5 481.339 1718.56 481.339C1715.65 481.339 1713.9 479.592 1713.71 476.097C1713.32 465.418 1711.96 445.224 1711.96 432.215C1723.41 427.749 1762.02 413.381 1804.13 413.381C1887.95 413.381 1924.04 452.602 1924.04 514.542V624.828C1924.04 665.021 1927.92 691.233 1929.08 701.913H1875.34V701.718ZM1859.81 558.423H1848.95C1768.42 558.423 1752.71 586.577 1752.71 614.926C1752.71 638.226 1768.04 660.361 1798.11 660.361C1838.08 660.361 1860.01 621.722 1860.01 580.947V558.423H1859.81ZM1055.74 639.779C1059.23 639.779 1060.2 642.886 1060.59 646.187C1061.56 658.225 1062.72 685.408 1062.53 692.398C1055.74 694.534 1021.2 707.155 975.019 707.155C884.988 707.155 831.046 660.555 831.046 560.365C831.046 474.543 877.032 413.381 960.079 413.381C1043.13 413.381 1080.19 467.747 1080.19 535.317C1080.19 543.278 1079.22 556.676 1077.86 574.539H896.824C896.824 622.887 927.481 657.448 984.139 657.448C1015.57 657.448 1040.41 646.187 1050.5 641.332C1052.44 640.362 1053.6 639.585 1055.74 639.585V639.779ZM897.6 531.434H1016.15C1018.48 485.999 994.811 460.369 958.721 460.369C922.63 460.369 899.346 487.747 897.6 531.434ZM720.253 701.913V520.949C720.253 488.523 706.671 463.088 673.297 463.088C636.042 463.088 614.311 504.057 614.311 561.336V701.718H550.28V520.173C550.28 490.659 537.861 462.893 503.517 462.893C465.681 462.893 444.337 503.863 444.337 563.278V701.524H380.112V495.708C380.112 469.107 377.784 431.438 377.007 419.012H428.232C434.053 419.012 435.8 420.953 436.188 426.972C436.188 434.545 436.576 462.117 436.576 462.117H438.128C442.009 454.156 463.158 413.187 521.951 413.187C576.862 413.187 597.818 452.603 602.863 464.835C608.102 454.156 632.356 413.187 687.655 413.187C742.955 413.187 784.284 444.059 784.284 506.192V701.718H720.059L720.253 701.913ZM1193.7 564.054V701.913H1129.47V491.824C1129.47 471.631 1127.14 433.186 1126.37 419.206H1178.17C1183.8 419.206 1185.35 421.536 1185.35 427.167C1185.35 435.516 1185.93 462.311 1185.93 462.311H1187.49C1192.53 450.272 1210.77 413.575 1264.13 413.575C1281.79 413.575 1295.17 419.206 1297.31 420.177C1297.31 432.215 1295.95 459.01 1295.37 466.194C1294.98 470.66 1293.04 472.213 1290.71 472.213C1288.38 472.213 1287.61 471.825 1286.25 471.243C1282.17 469.495 1272.86 466.777 1260.05 466.777C1225.71 466.777 1193.7 491.436 1193.7 564.248V564.054ZM1331.46 701.913V419.206H1395.49V701.913H1331.46ZM1330.68 377.848V315.909H1396.27V377.848H1330.68ZM282.901 701.718L253.408 618.421H96.4347L66.9416 701.718H0L140.674 330.666H215.183L353.723 701.718H282.707H282.901ZM175.601 398.236H174.436L114.48 568.132H235.751L175.795 398.236H175.601ZM2095.76 1170.24C2179.19 1170.24 2218.97 1136.07 2218.97 1085.39C2218.97 1034.71 2183.46 1014.33 2145.82 1001.9C2135.15 998.405 2124.47 994.716 2114.77 991.609C2088.97 983.066 2075.58 971.804 2075.58 955.106C2075.58 937.437 2091.68 925.204 2125.06 925.204C2154.74 925.204 2179 937.242 2188.7 941.902C2190.25 942.679 2191.8 943.65 2194.33 943.65C2196.27 943.65 2198.79 942.485 2199.18 937.437C2199.76 928.117 2200.92 910.836 2200.92 894.332C2193.16 890.643 2165.22 876.274 2120.01 876.274C2051.13 876.274 2008.64 912.195 2008.64 959.572C2008.64 1006.95 2040.07 1026.36 2074.61 1037.82C2082.56 1040.54 2097.12 1045.39 2105.85 1048.31C2141.94 1060.34 2152.03 1071.22 2152.03 1088.11C2152.03 1110.05 2128.74 1120.92 2088.38 1120.92C2055.4 1120.92 2032.7 1108.89 2023.58 1104.61C2021.83 1103.84 2020.67 1102.87 2018.14 1102.87C2013.49 1102.87 2013.29 1109.08 2013.29 1110.24C2012.91 1113.35 2011.55 1142.48 2011.55 1152.38C2019.11 1155.49 2051.91 1170.24 2095.95 1170.24H2095.76ZM1945.58 1102.87C1949.26 1102.87 1950.23 1105.97 1950.62 1109.08C1951.59 1121.12 1952.56 1148.5 1952.56 1155.29C1945.58 1157.62 1911.23 1170.24 1864.86 1170.24C1775.02 1170.24 1720.88 1123.84 1720.88 1023.45C1720.88 937.437 1766.87 876.274 1849.92 876.274C1932.96 876.274 1970.02 930.641 1970.02 998.405C1970.02 1006.37 1969.25 1019.76 1967.7 1037.63H1786.66C1786.66 1085.78 1817.51 1120.73 1874.17 1120.73C1905.41 1120.73 1930.44 1109.47 1940.34 1104.61C1942.28 1103.64 1943.44 1102.87 1945.58 1102.87ZM1787.44 994.522H1906.19C1908.52 948.893 1884.65 923.457 1848.56 923.457C1812.47 923.457 1789.18 950.834 1787.44 994.522ZM1610.29 1165V982.483C1610.29 947.533 1594.37 926.369 1564.49 926.369C1525.1 926.369 1498.91 968.309 1498.91 1025.01V1165H1434.88V957.242C1434.88 934.524 1432.74 901.127 1431.77 882.293H1483.39C1489.21 882.293 1490.76 884.623 1490.76 890.06C1490.76 895.885 1491.54 925.204 1491.54 925.204H1492.9C1500.66 911.807 1520.25 876.274 1579.43 876.274C1638.61 876.274 1674.32 918.02 1674.32 964.62V1164.81H1610.29V1165ZM1026.44 1027.14V1165H962.213V954.912C962.213 934.718 959.885 896.273 959.109 882.293H1010.72C1016.35 882.293 1017.9 884.623 1018.09 890.254C1018.09 898.603 1018.48 925.204 1018.48 925.204H1020.04C1025.08 913.166 1043.32 876.274 1096.68 876.274C1114.34 876.274 1127.53 882.099 1129.86 882.876C1129.86 894.914 1128.5 921.709 1127.92 928.893C1127.53 933.359 1125.59 934.913 1123.26 934.913C1121.13 934.913 1120.16 934.524 1118.8 933.942C1114.72 932.194 1105.41 929.476 1092.6 929.476C1058.26 929.476 1026.24 954.135 1026.24 1026.95L1026.44 1027.14ZM1230.76 1165V779.385H1166.72V1165H1230.76ZM828.33 1165V882.293H892.361V1165H828.33ZM827.554 840.936V778.803H893.137V840.936H827.554ZM1300.8 1165V882.293H1364.83V1165H1300.8ZM1300.03 840.936V778.803H1365.61V840.936H1300.03ZM730.925 1165L701.626 1081.51H544.459L514.965 1165H448.024L588.698 793.753H663.401L801.941 1165H730.925ZM623.624 861.517H622.654L562.698 1031.41H683.969L623.818 861.517H623.624Z M2990.64 1269.07C3070.58 1400.72 3198.45 1398 3232.41 1398H3643.37L3158.48 808.898C2934.76 818.218 2816.4 961.708 2840.65 1021.9L2990.64 1268.88V1269.07Z M3027.7 584.83C2823.38 584.83 2670.68 618.421 2670.68 698.612C2670.68 728.125 2679.8 753.561 2704.83 798.608L2840.65 1022.09C2840.07 1021.12 2827.46 991.415 2827.46 955.494C2827.46 820.937 2946.6 744.047 3082.03 716.087C3121.42 707.932 3161.58 704.048 3201.17 704.048C3234.35 704.048 3265.39 705.796 3289.45 714.533C3275.29 663.079 3238.03 584.83 3027.9 584.83H3027.7Z M2490.04 445.418C2546.3 537.647 2567.07 560.559 2700.95 560.753H2956.49L2604.13 115.335C2526.32 19.0283 2481.5 1.55333 2410.09 0H2219.16L2490.04 445.418Z M3753 1366.35C3753 1383.83 3739.03 1398 3721.37 1398C3703.72 1398 3689.75 1384.02 3689.75 1366.35C3689.75 1348.68 3703.72 1334.7 3721.37 1334.7C3739.03 1334.7 3753 1348.88 3753 1366.35ZM3695.96 1366.35C3695.96 1380.33 3707.21 1391.79 3721.37 1391.79C3735.54 1391.79 3746.79 1380.33 3746.79 1366.35C3746.79 1352.37 3735.34 1340.91 3721.37 1340.91C3707.4 1340.91 3695.96 1352.37 3695.96 1366.35ZM3720.6 1368.49H3717.69V1381.5H3712.06V1350.04H3721.37C3728.55 1350.04 3732.63 1353.73 3732.63 1359.36C3732.63 1365.77 3727.39 1367.32 3726.42 1367.71L3733.99 1381.5H3727.58L3720.6 1368.49ZM3720.02 1364.6C3724.67 1364.6 3727 1362.47 3727 1359.17C3727 1356.06 3724.48 1353.92 3720.02 1353.92C3718.66 1353.92 3717.88 1354.12 3717.69 1354.12V1364.21C3717.69 1364.21 3718.85 1364.41 3720.02 1364.41V1364.6Z"/>
</svg>
