<svg width="2202" height="907" viewBox="0 0 2202 907" xmlns="http://www.w3.org/2000/svg">
<path d="M89.6569 578.999C98.8265 574.408 101.109 565.264 101.109 556.095V352.314C101.109 345.44 98.8136 333.988 89.6569 329.409H185.841C229.341 329.409 272.842 347.735 272.842 398.097C272.842 423.284 249.95 443.893 224.763 448.472C261.403 448.472 293.451 469.081 293.451 508.003C293.451 565.251 236.202 578.986 194.984 578.986L89.6569 578.999ZM167.514 352.314H151.497V439.315H162.936C192.702 439.315 220.185 430.158 220.185 395.801C220.185 361.47 197.28 352.314 167.514 352.314ZM174.388 462.22H151.497V553.812C162.936 556.095 174.388 556.095 185.841 556.095C211.028 556.095 236.215 546.951 236.215 508.016C236.215 471.376 206.45 462.22 174.388 462.22ZM389.635 352.314H378.182V439.315H389.635C417.118 439.315 437.726 423.284 437.726 393.519C437.726 363.753 417.105 352.314 389.635 352.314ZM515.571 581.295C506.401 581.295 494.962 581.295 485.818 576.704C469.788 572.112 446.883 535.486 437.726 519.455C421.696 496.551 410.257 462.207 378.195 462.207V556.082C378.195 565.251 380.478 574.395 389.648 578.986H314.086C323.242 574.395 325.538 565.251 325.538 556.082V352.314C325.538 345.44 323.242 333.988 314.086 329.409H405.678C444.587 329.409 492.679 345.44 492.679 393.519C492.679 432.454 460.618 453.05 423.979 453.05C474.366 453.05 506.401 574.395 563.663 574.395C548.035 578.939 531.846 581.262 515.571 581.295ZM565.946 578.999C572.807 576.717 579.681 567.547 579.681 556.095V352.314C579.681 340.861 572.807 333.988 565.946 329.409H643.79C636.929 334 630.055 340.861 630.055 352.314V556.095C630.055 567.547 636.929 576.717 643.79 578.999H565.946ZM733.1 578.999C739.974 574.408 744.552 565.264 744.552 556.095V359.175H689.599C675.864 359.175 662.116 361.457 650.677 366.049L668.99 329.409H849.893C863.628 329.409 879.658 329.409 893.393 327.114C886.519 345.44 865.923 359.175 854.471 359.175H794.94V556.095C794.94 565.264 799.518 574.408 808.688 578.999H733.1ZM902.537 578.999C909.411 576.717 916.285 567.547 916.285 556.095V352.314C916.285 340.861 909.411 333.988 902.537 329.409H980.394C973.52 334 966.646 340.861 966.646 352.314V556.095C966.646 567.547 973.52 576.717 980.394 578.999H902.537ZM1129.25 521.751C1129.25 475.967 1017.03 464.515 1017.03 388.953C1017.03 343.157 1060.55 327.126 1099.48 327.126C1117.8 327.126 1142.98 329.422 1159.01 336.296L1161.3 384.388C1152.15 363.779 1126.95 347.748 1104.05 347.748C1085.73 347.748 1067.42 356.905 1067.42 377.514C1067.42 425.593 1181.92 439.341 1181.92 510.311C1181.92 560.699 1136.12 583.591 1090.33 583.591C1065.15 583.591 1033.08 578.999 1012.47 565.277C1012.47 556.108 1010.17 546.964 1010.17 540.077C1010.17 528.651 1012.47 519.481 1014.75 508.029C1026.2 537.794 1051.39 560.699 1085.73 560.699C1108.63 560.673 1129.25 549.234 1129.25 521.751ZM1367.36 578.999C1371.95 576.717 1378.81 567.547 1378.81 556.095V464.502C1365.08 462.22 1346.76 462.22 1326.14 462.22C1303.26 462.22 1284.92 462.22 1271.2 464.502V556.095C1271.2 567.547 1278.06 576.717 1282.65 578.999H1209.38C1213.97 576.717 1220.83 567.547 1220.83 556.095V352.314C1220.83 340.861 1213.97 333.988 1209.38 329.409H1282.65C1278.06 334 1271.2 340.861 1271.2 352.314V437.032C1284.94 437.032 1303.28 439.328 1326.14 439.328C1346.76 439.328 1365.08 437.032 1378.81 437.032V352.314C1378.81 340.861 1371.95 333.988 1367.36 329.409H1440.64C1433.78 334 1429.19 340.861 1429.19 352.314V556.095C1429.19 567.547 1433.78 576.717 1440.64 578.999H1367.36ZM185.841 901.869C188.123 899.56 190.419 897.277 190.419 892.699C190.419 892.699 188.123 888.108 188.123 883.529C188.123 883.529 167.514 828.59 165.232 821.716H73.6392C71.3436 828.577 48.452 883.529 48.452 883.529C46.1563 890.416 43.8736 892.699 43.8736 895.008C43.8736 899.573 48.452 899.573 50.7476 901.869H0.373047C7.56917 896.953 13.7807 890.732 18.6864 883.529L98.8265 670.592C101.122 670.592 101.122 668.309 101.122 668.309C101.122 661.422 96.5439 656.857 91.9526 654.548H156.075L238.498 883.516C243.089 892.686 249.95 897.277 256.824 901.856H185.841V901.869ZM119.435 700.357L82.7959 796.541C94.2482 798.824 105.701 798.824 117.14 798.824C128.579 798.824 142.327 798.824 156.062 796.541L119.435 700.357ZM268.264 901.869C275.138 899.56 282.011 890.416 282.011 878.964V675.183C282.011 663.731 275.138 656.87 268.264 654.561H346.121C339.247 656.87 332.373 663.731 332.373 675.183V878.977C332.373 890.429 339.247 899.573 346.121 901.882L268.264 901.869ZM460.618 675.183H449.166V762.197H460.618C488.101 762.197 508.697 748.436 508.697 716.401C508.697 686.622 488.088 675.183 460.618 675.183ZM593.416 904.151C581.976 904.151 572.807 904.151 563.65 901.869C547.632 895.008 522.432 858.355 513.275 842.311C499.527 819.433 481.214 785.089 449.166 785.089V878.964C449.166 888.108 451.448 897.277 460.618 901.869H385.056C394.213 897.277 396.509 888.108 396.509 878.964V675.183C396.509 668.322 394.213 656.87 385.056 654.561H476.649C515.571 654.561 563.663 668.322 563.663 716.401C563.663 755.31 527.023 775.932 501.836 775.932C554.506 778.241 586.555 897.29 639.225 897.29C625.477 901.869 609.446 904.151 593.416 904.151ZM902.537 677.453L826.975 901.869C820.101 901.869 813.227 899.56 810.944 897.277C804.083 890.416 792.631 860.651 788.053 849.198L753.696 762.184L703.321 901.869H680.43L595.698 677.453C594.396 672.576 592.096 668.022 588.944 664.08C585.792 660.137 581.856 656.891 577.385 654.548H650.651C648.355 656.857 646.073 659.14 646.073 663.718C646.073 666.001 646.073 670.579 648.355 672.861L703.308 821.716L760.557 654.548L824.666 814.841L875.041 668.296C875.041 665.988 877.337 663.705 877.337 661.409C877.337 656.844 875.041 656.844 872.745 654.548H920.837C916.371 656.895 912.439 660.142 909.289 664.084C906.139 668.026 903.84 672.578 902.537 677.453ZM991.847 700.357L955.22 796.541C966.659 798.824 978.112 798.824 989.564 798.824C1001.02 798.824 1014.75 798.824 1026.2 796.541L991.847 700.357ZM1055.96 901.869C1060.55 899.56 1060.55 897.277 1060.55 892.699C1060.55 892.699 1060.55 888.108 1058.25 883.529C1058.25 883.529 1039.93 828.59 1035.35 821.716H946.05C943.768 828.577 920.863 883.529 920.863 883.529C918.568 890.416 916.285 892.699 916.285 895.008C916.285 899.573 920.863 899.573 923.146 901.869H872.771C879.645 897.277 886.519 890.416 888.802 883.529L971.238 670.592L973.533 668.309C973.533 661.422 968.955 656.857 964.377 654.548H1028.49L1110.91 883.516C1115.5 892.686 1122.36 897.277 1129.25 901.856H1055.96V901.869ZM1280.37 679.735L1223.12 782.78V878.964C1223.12 888.108 1225.41 897.277 1232.29 901.869H1161.28C1168.14 897.277 1170.45 888.108 1170.45 878.964V782.78L1120.07 700.357C1115.47 693.496 1094.89 656.857 1067.4 656.857C1074.26 654.548 1097.16 649.97 1110.9 649.97C1136.1 649.97 1147.55 652.278 1161.28 675.17L1209.36 750.732C1213.95 743.845 1250.58 677.453 1250.58 677.453C1255.17 670.592 1257.47 663.718 1257.47 661.422C1257.47 659.14 1257.47 656.857 1252.88 654.561H1305.55C1296.39 659.14 1287.25 670.592 1280.37 679.735ZM1417.75 844.62C1417.75 798.824 1307.83 787.372 1307.83 711.81C1307.83 666.014 1351.34 649.97 1390.25 649.97C1408.57 649.97 1433.77 652.278 1449.81 659.139L1452.09 707.218C1442.92 686.622 1417.75 670.592 1394.84 670.592C1376.53 670.592 1358.22 679.735 1358.22 700.357C1358.22 748.436 1470.41 762.197 1470.41 833.168C1470.41 885.838 1426.9 906.421 1381.11 906.421C1355.93 906.421 1323.86 901.856 1303.26 888.108C1303.26 878.964 1300.96 872.103 1300.96 862.933C1300.96 851.481 1303.26 842.311 1303.26 833.168C1317 860.651 1342.17 883.529 1374.25 883.529C1399.43 883.529 1417.75 872.103 1417.75 844.62ZM2088.66 157.676C2045.16 198.894 1953.57 235.534 1910.07 251.565C1848.23 274.469 1820.74 283.626 1786.4 295.065C1747.49 306.518 1669.62 331.705 1669.62 331.705C1829.91 379.784 1944.42 393.532 1944.42 393.532C1944.42 393.532 1997.09 377.514 2081.8 331.705C2127.6 308.8 2148.22 295.065 2164.22 279.035C2171.08 274.456 2187.13 258.426 2189.42 237.817C2189.42 235.534 2191.71 233.238 2191.71 228.647V224.069C2189.42 221.786 2189.42 219.49 2189.42 219.49C2189.42 219.49 2189.42 214.912 2187.11 210.334C2187.11 208.038 2182.55 196.599 2173.38 189.725C2166.52 185.133 2157.35 173.694 2122.99 162.242C2111.54 157.651 2090.94 153.072 2090.94 153.072L2088.66 157.676Z"/>
<path d="M2201.71 207.378C2201.71 207.378 2201.71 202.799 2199.42 200.504C2199.42 195.925 2197.11 193.63 2194.83 189.051C2190.56 184.873 2186.72 180.271 2183.38 175.316C2178.79 173.021 2174.21 168.442 2169.64 163.864C2146.74 150.116 2119.26 143.255 2094.06 138.677C2055.15 134.098 2009.35 134.098 2004.76 134.098C1991.02 134.098 1897.15 134.098 1874.26 136.381C1768.93 138.677 1638.39 138.677 1604.05 138.677C1253.71 138.677 1100.3 131.803 930.85 97.4589C786.587 69.9759 706.447 42.5059 706.447 42.5059C834.679 37.9276 1578.86 5.86635 1713.95 3.58368C1803.27 1.301 1865.08 -0.994651 1915.46 3.58368C1942.95 3.58368 1965.85 5.87933 1995.62 12.7533C2023.07 17.3316 2048.29 24.2056 2062.01 28.7839C2091.77 40.2362 2119.26 56.2669 2130.71 74.5802C2130.71 74.5802 2135.3 76.8758 2139.85 83.7368C2144.44 92.9064 2151.31 102.063 2153.61 104.346C2171.93 134.111 2181.07 150.142 2183.38 157.016C2187.97 163.89 2190.24 170.764 2192.55 177.625C2197.11 182.203 2197.11 186.782 2197.11 189.064C2199.42 195.938 2199.42 202.812 2201.71 205.095V207.378Z"/>
</svg>
