<svg width="2133" height="1560" viewBox="0 0 2133 1560" xmlns="http://www.w3.org/2000/svg">
<path d="M1553.65 526.78L1331.06 400.649V148.387L1069.89 0L807.251 148.387V400.649L584.664 526.78V823.567L847.315 970.463L1069.9 845.81L1292.49 970.463L1553.66 823.567V526.78H1553.65ZM1292.48 629.163L1148.54 549.036L1292.48 467.43L1434.91 549.036L1292.48 629.163ZM1252.4 400.649L1109.97 480.776V319.03L1252.4 238.903V400.649ZM1029.83 480.776L887.378 400.649V238.903L1029.83 319.03V480.776ZM847.302 467.43L989.749 549.036L847.302 629.163L703.363 549.036L847.302 467.43ZM807.251 697.436V859.195L664.791 777.563V615.817L807.251 697.436ZM887.365 697.436L1029.81 615.83V777.563L887.365 859.182V697.436ZM1109.97 615.817L1252.4 697.423V859.182L1109.97 777.563V615.817ZM1331.06 697.436L1475 615.83V777.563L1331.06 859.182V697.436ZM1212.35 170.643L1069.89 252.249L925.95 170.643L1069.89 90.516L1212.35 170.643Z M276.01 1354.8C273.039 1385.95 247.813 1470.54 138.011 1470.54C25.2392 1470.54 0 1385.96 0 1323.64C0 1227.17 41.5422 1158.91 143.938 1158.91C191.421 1158.91 268.591 1181.18 276.01 1273.19H195.882C192.912 1253.92 179.553 1222.73 143.938 1224.23C93.4861 1224.23 81.6187 1273.19 81.6187 1310.28C81.6187 1342.94 81.6187 1406.75 142.46 1406.75C182.523 1406.75 195.882 1368.17 195.882 1354.82H276.01V1354.8ZM560.916 1405.26C560.916 1439.39 568.335 1446.8 578.724 1451.24V1463.12H492.657C488.208 1448.27 488.208 1443.85 486.716 1427.51C467.43 1445.31 442.204 1470.54 388.782 1470.54C344.269 1470.54 298.266 1445.31 298.266 1384.46C298.266 1326.6 335.359 1296.91 385.812 1289.49L455.55 1279.1C468.896 1277.64 483.746 1273.18 483.746 1255.37C483.746 1222.71 452.58 1221.25 431.815 1221.25C393.23 1221.25 385.812 1244.98 382.854 1262.79H307.176C316.086 1172.27 379.884 1158.9 442.217 1158.9C483.772 1158.9 560.929 1172.27 560.929 1244.98L560.916 1405.26ZM483.759 1319.18C476.341 1325.11 462.982 1329.57 430.337 1335.5C400.662 1339.96 376.914 1347.38 376.914 1378.53C376.914 1406.73 397.692 1414.15 414.008 1414.15C448.131 1414.15 483.746 1391.88 483.746 1356.26L483.759 1319.18ZM618.787 1167.82H694.466V1218.29C710.782 1188.6 730.068 1158.91 777.563 1158.91C782.012 1158.91 787.952 1160.41 792.401 1160.41V1239.05C786.461 1237.56 777.563 1237.56 770.145 1237.56C707.825 1237.56 697.436 1276.15 697.436 1308.79V1463.11H618.787V1167.82ZM1089.19 1167.82V1431.95C1089.19 1479.45 1084.73 1559.58 937.818 1559.58C875.498 1559.58 810.208 1535.82 807.238 1476.47H893.293C896.263 1489.81 902.203 1504.66 948.194 1504.66C989.749 1504.66 1010.51 1485.39 1010.51 1440.85V1406.73L1009.03 1420.07C995.676 1442.34 976.39 1448.27 928.908 1448.27C857.678 1448.27 799.806 1400.8 799.806 1302.87C799.806 1206.4 859.156 1158.9 924.446 1158.9C980.838 1158.9 1003.08 1182.66 1013.48 1201.93V1167.81L1089.19 1167.82ZM943.758 1385.95C997.18 1385.95 1010.53 1342.92 1010.53 1304.33C1010.53 1259.82 986.779 1222.71 943.758 1222.71C914.083 1222.71 881.438 1243.49 881.438 1307.29C881.438 1342.92 897.754 1385.95 943.758 1385.95ZM1270.21 1470.54C1190.08 1470.54 1117.38 1421.58 1117.38 1314.72C1117.38 1207.86 1190.08 1158.9 1270.21 1158.9C1351.83 1158.9 1424.52 1207.86 1424.52 1314.72C1424.52 1421.58 1351.83 1470.54 1270.21 1470.54ZM1270.21 1224.22C1209.37 1224.22 1198.98 1277.64 1198.98 1314.73C1198.98 1351.84 1209.37 1405.26 1270.21 1405.26C1331.05 1405.26 1342.93 1351.84 1342.93 1314.73C1342.94 1277.64 1331.06 1224.22 1270.21 1224.22ZM1446.8 1063.94H1525.45V1463.12H1446.8V1063.94ZM1825.2 1463.12H1749.5V1420.09H1748.04C1730.23 1452.74 1699.05 1470.55 1657.51 1470.55C1598.16 1470.55 1555.11 1436.43 1555.11 1360.74V1167.82H1633.76V1350.33C1633.76 1396.34 1660.47 1405.25 1685.69 1405.25C1710.92 1405.25 1746.53 1390.4 1746.53 1336.98V1167.82H1825.18L1825.2 1463.12ZM2132.35 1463.12H2034.41L1982.48 1374.07L1930.55 1463.12H1835.58L1937.98 1311.76L1840.02 1167.82H1934.99L1985.45 1253.9L2035.9 1167.82H2127.91L2029.96 1311.76L2132.35 1463.12Z"/>
</svg>
