<svg width="87" height="56" viewBox="0 0 87 56" fill="none" xmlns="http://www.w3.org/2000/svg">
<path d="M59.2986 33.4292H56.5505V41.1326H59.2986V33.4292Z" fill="black" style="fill:black;fill-opacity:1;"/>
<path d="M30.4273 33.4292H27.6792V41.1326H30.4273V33.4292Z" fill="black" style="fill:black;fill-opacity:1;"/>
<path d="M21.5542 33.4292V36.387H18.4198V33.4292H15.6387V41.1326H18.4198V38.0424H21.5542V41.1326H24.3243V33.4292H21.5542Z" fill="black" style="fill:black;fill-opacity:1;"/>
<path d="M61.2301 20.1193H67.267V17.2609H61.0094C54.6524 17.2609 52.3789 20.0531 52.3789 23.8165C52.3789 27.5909 54.3655 30.3721 61.0094 30.3721H67.267V27.5137H61.0646C57.9633 27.5137 57.4446 25.9244 57.4446 23.8165C57.4446 21.7196 57.9854 20.1193 61.2301 20.1193Z" fill="black" style="fill:black;fill-opacity:1;"/>
<path d="M78.3143 27.8558H77.6742C74.5729 27.8558 74.0542 25.9244 74.0542 23.8165C74.0542 21.7085 74.4295 19.7882 77.6742 19.7882H78.3143C81.4155 19.7882 81.9342 22.0175 81.9342 23.8165C81.9453 25.6264 81.559 27.8558 78.3143 27.8558ZM78.0053 16.8635H77.9832C71.6152 16.8635 68.9885 19.8765 68.9885 23.8165C68.9885 27.7675 71.3282 30.7804 77.9832 30.7804H78.0053C84.3622 30.7804 86.9999 27.7675 86.9999 23.8165C86.9999 19.8765 84.6602 16.8635 78.0053 16.8635Z" fill="black" style="fill:black;fill-opacity:1;"/>
<path d="M8.8512 20.1193H14.8881V17.2609H8.63047C2.2735 17.2609 0 20.0531 0 23.8165C0 27.5909 1.97552 30.3721 8.63047 30.3721H14.8881V27.5137H8.67462C5.57339 27.5137 5.05467 25.9244 5.05467 23.8165C5.05467 21.7196 5.59546 20.1193 8.8512 20.1193Z" fill="black" style="fill:black;fill-opacity:1;"/>
<path d="M25.9356 27.8558H25.2845C22.1832 27.8558 21.6645 25.9244 21.6645 23.8165C21.6645 21.7085 22.0398 19.7882 25.2845 19.7882H25.9246C29.0258 19.7882 29.5445 22.0175 29.5445 23.8165C29.5556 25.6264 29.1803 27.8558 25.9356 27.8558ZM25.6266 16.8635H25.6045C19.2365 16.8635 16.6099 19.8765 16.6099 23.8165C16.6099 27.7675 18.9496 30.7804 25.6045 30.7804H25.6266C31.9836 30.7804 34.6213 27.7675 34.6213 23.8165C34.6102 19.8765 32.2705 16.8635 25.6266 16.8635Z" fill="black" style="fill:black;fill-opacity:1;"/>
<path d="M43.7483 25.1077C45.0285 25.1077 45.3485 25.5161 45.3485 26.3107C45.3485 27.1164 45.0174 27.5137 43.7483 27.5137H36.8836V30.3721H45.8452C47.8428 30.3721 50.6681 29.2905 50.6681 26.4432C50.6681 23.6068 47.8538 22.5363 45.8452 22.5363H42.8984C41.6182 22.5363 41.2871 22.139 41.2871 21.3333C41.2871 20.5276 41.6182 20.1193 42.8984 20.1193H49.8955V17.2609H41.1437C39.1461 17.2609 36.3318 18.3535 36.3318 21.1898C36.3318 24.0262 39.1571 25.0967 41.1437 25.0967H43.7483V25.1077Z" fill="black" style="fill:black;fill-opacity:1;"/>
<path d="M8.66354 38.0424C9.41401 38.0424 9.60163 38.2741 9.60163 38.7487C9.60163 39.2233 9.41401 39.455 8.66354 39.455H4.14965V41.1326H9.89961C11.0695 41.1326 12.7249 40.4925 12.7249 38.826C12.7249 37.1484 11.0695 36.5304 9.89961 36.5304H7.6813C6.93082 36.5304 6.7432 36.2986 6.7432 35.8241C6.7432 35.3495 6.93082 35.1177 7.6813 35.1177H12.2724V33.4402H6.65491C5.48505 33.4402 3.82959 34.0803 3.82959 35.7468C3.82959 37.4133 5.48505 38.0424 6.65491 38.0424H8.66354Z" fill="black" style="fill:black;fill-opacity:1;"/>
<path d="M71.3726 33.4292V41.1326H70.004C68.6907 41.1326 68.0285 40.8567 67.4988 40.051C66.8697 39.0688 65.5122 37.0823 65.5122 37.0823V41.1437H62.7642V33.4402H64.1327C65.3798 33.4402 65.9426 33.7493 66.3731 34.4225C67.0684 35.5151 68.6355 37.9321 68.6355 37.9321V33.4292H71.3726Z" fill="black" style="fill:black;fill-opacity:1;"/>
<path d="M49.5094 37.1705H47.9201V34.9633H49.5094C50.6241 34.9633 51.0103 35.2833 51.0103 36.0669C50.9993 36.8505 50.6572 37.1705 49.5094 37.1705ZM49.5977 33.4292H45.1831V41.1326H47.9312V38.7046H49.6087C52.9086 38.7046 53.9019 37.7665 53.9019 36.0669C53.8908 34.3673 53.0521 33.4292 49.5977 33.4292Z" fill="black" style="fill:black;fill-opacity:1;"/>
<path d="M38.0978 37.1705H36.5195V34.9633H38.0978C39.2235 34.9633 39.5987 35.2833 39.5987 36.0669C39.5987 36.8505 39.2566 37.1705 38.0978 37.1705ZM38.186 33.4292H33.7715V41.1326H36.5195V38.7046H38.1971C41.508 38.7046 42.5013 37.7665 42.5013 36.0669C42.4902 34.3673 41.6515 33.4292 38.186 33.4292Z" fill="black" style="fill:black;fill-opacity:1;"/>
<path d="M79.087 35.107H83.1704V33.4294H79.0428C75.3015 33.4294 73.9661 35.0628 73.9661 37.2812C73.9661 39.4995 75.1359 41.1329 79.0428 41.1329H83.1704V37.2812H80.4334V39.4553H78.9876C77.1666 39.4553 76.8576 38.5172 76.8576 37.2812C76.8576 36.0451 77.1887 35.107 79.087 35.107Z" fill="black" style="fill:black;fill-opacity:1;"/>
<path d="M55.5241 43.6931C50.9109 49.5424 43.8366 53.2838 35.9014 53.2838C27.9662 53.2838 20.8919 49.5424 16.2787 43.6931H12.4932C17.7244 50.6461 26.2666 55.182 35.9124 55.182C45.5582 55.182 54.0894 50.6461 59.3317 43.6931H55.5241Z" fill="black" style="fill:black;fill-opacity:1;"/>
<path d="M70.7102 43.6931C66.097 49.5424 59.0226 53.2838 51.0875 53.2838C43.1523 53.2838 36.078 49.5424 31.4647 43.6931H27.6682C32.8995 50.6461 41.4306 55.182 51.0875 55.182C60.7333 55.182 69.2644 50.6461 74.5067 43.6931H70.7102Z" fill="black" style="fill:black;fill-opacity:1;"/>
<path d="M29.4451 14.4356C33.8376 6.93086 41.8831 1.89826 51.0875 1.89826C60.2808 1.89826 68.3264 6.93086 72.7188 14.4356H76.4381C71.56 5.83826 62.0356 0 51.0875 0C40.1394 0 30.615 5.83826 25.7258 14.4467H29.4451V14.4356Z" fill="black" style="fill:black;fill-opacity:1;"/>
<path d="M14.2701 14.4356C18.6625 6.93086 26.7081 1.89826 35.9124 1.89826C45.1168 1.89826 53.1513 6.93086 57.5438 14.4356H61.2631C56.385 5.83826 46.8606 0 35.9124 0C24.9643 0 15.4399 5.83826 10.5508 14.4467H14.2701V14.4356Z" fill="black" style="fill:black;fill-opacity:1;"/>
</svg>
