<svg width="703" height="484" viewBox="0 0 703 484" xmlns="http://www.w3.org/2000/svg">
<path d="M394.041 28.5541C388.33 35.9569 385.158 45.0518 385.158 54.3582C385.158 57.5308 385.158 132.616 385.158 135.366C384.735 141.5 382.408 147.211 378.601 152.075C376.486 154.19 364.007 165.4 362.949 166.669L369.929 166.881C372.256 164.766 396.368 143.403 398.694 140.442C405.674 132.828 409.693 122.887 409.693 112.523C409.693 109.139 409.693 37.8605 409.693 34.6878C409.481 26.862 412.442 19.0362 417.941 13.3255C420.903 10.1528 430.209 2.32701 431.901 0.423428L424.498 0.211914C423.018 2.11549 396.579 26.016 394.041 28.5541Z"/>
<path d="M334.606 323.185L364.006 348.778H383.676C402.501 348.778 420.691 341.375 434.016 328.05C446.072 315.994 450.513 299.708 450.513 284.479V242.389C450.302 232.871 446.283 223.776 439.092 217.431C437.823 216.162 429.151 207.913 429.151 207.913V240.274C429.151 240.274 438.669 250.003 440.361 251.907C449.033 261.213 449.033 278.134 421.325 304.996C416.46 309.649 402.712 322.762 383.676 322.762L334.606 323.185Z"/>
<path d="M416.461 150.383C413.288 153.767 410.116 162.228 410.116 169.842V185.705H426.19C432.536 185.705 440.785 179.994 442.477 177.033C442.477 176.822 442.477 161.17 442.477 161.17C444.803 164.554 447.764 167.727 451.149 170.265C452.841 168.15 467.646 150.383 479.914 150.172C500.43 149.96 495.777 175.976 487.528 184.225C484.778 186.974 472.722 197.973 468.915 201.568C459.186 210.875 442.477 206.433 442.477 182.533C442.477 182.533 424.71 199.453 421.96 201.78C419.211 204.106 410.116 213.836 410.116 213.836V255.926C410.116 276.019 403.559 282.788 398.06 288.921C395.945 291.248 373.313 311.976 370.141 314.302L362.738 314.514C362.738 314.514 376.063 302.458 378.601 299.708C381.562 296.536 385.158 290.19 385.158 279.615C385.158 276.865 384.735 213.624 384.735 213.624H281.518C245.562 213.624 237.948 173.861 237.736 163.074C237.736 159.901 237.736 128.175 237.736 123.099C237.736 116.542 233.506 105.543 226.949 102.159H237.102C238.371 102.582 244.716 105.12 244.716 129.655C244.716 129.655 244.293 157.997 244.293 159.69C244.293 172.169 254.234 186.34 268.405 186.34L385.158 186.128C385.158 182.956 388.33 171.111 394.041 164.766C397.214 161.17 422.383 138.327 425.133 136.001H432.536C431.478 137.058 419.211 147.845 416.673 150.806L416.461 150.383ZM454.744 174.284C457.705 178.302 461.089 182.321 464.685 185.917C477.376 196.069 483.298 185.071 474.837 173.649C471.453 168.996 458.551 170.265 454.744 174.284Z"/>
<path d="M329.531 249.58C329.531 255.291 311.553 270.308 310.495 271.154C309.226 265.02 304.573 258.464 291.248 244.927L310.918 225.257C324.243 238.582 329.531 241.543 329.531 249.58Z"/>
<path d="M363.795 23.4775C367.814 27.4961 376.274 38.0716 371.198 43.3593C366.756 47.801 359.777 54.9923 359.777 54.9923C359.354 52.4542 352.797 46.1089 352.797 46.1089C352.797 46.1089 352.797 65.1447 352.797 67.4713C352.585 76.1431 349.413 78.4698 349.413 78.4698C349.413 78.4698 365.276 94.1214 365.276 114.426C365.276 124.156 365.276 133.251 365.276 135.154C365.487 138.961 364.007 142.98 361.257 145.73C359.777 147.422 345.182 162.227 342.856 164.131C339.472 167.092 335.242 168.784 330.8 168.572H276.019C267.347 168.572 258.464 161.804 258.464 155.036C258.464 153.344 258.675 134.731 258.675 134.731C261.425 137.904 264.386 141.711 271.154 141.711C276.654 141.711 282.153 137.481 283.633 135.789C285.114 134.097 325.089 92.6408 325.089 92.6408C325.089 92.6408 306.476 75.2971 294.209 67.0483C288.287 63.0296 280.249 68.1058 278.98 73.3935C275.173 89.8912 278.98 114.849 278.98 114.849L263.963 99.8321C257.829 93.6984 258.041 79.9503 265.444 72.759C266.501 71.49 277.711 59.2224 291.671 59.2224H313.456C328.05 59.2224 344.125 73.8165 344.125 73.8165C345.394 72.336 346.24 70.6439 346.452 68.7403C346.452 61.126 346.24 41.0327 346.24 41.0327C335.242 30.0342 333.761 18.6128 339.049 13.325C348.99 3.38414 352.585 0 352.585 0C352.585 0 352.162 12.056 363.795 23.4775ZM295.055 133.462C289.556 139.173 288.71 140.442 283.633 143.614H345.394C362.103 143.614 358.719 133.251 355.758 127.963C349.624 117.176 330.165 97.294 330.165 97.294C330.165 97.294 296.112 132.404 295.055 133.462Z"/>
<path d="M224.622 189.724H214.47C214.47 189.724 225.257 195.646 225.257 211.086V260.368C225.257 292.305 251.695 321.917 283.845 321.917H310.706C326.781 321.917 332.492 318.109 342.221 309.438C345.817 306.265 350.47 300.977 352.162 299.074C357.661 292.728 363.795 287.652 363.795 271.155V255.08C363.795 241.12 355.758 235.41 351.739 231.391C349.201 228.853 342.433 222.296 342.433 222.296V255.291C342.433 255.291 349.201 262.483 352.162 264.809C366.122 275.808 355.123 294.844 342.01 294.844C339.471 294.844 286.806 294.844 282.999 294.844C261.425 295.267 232.025 276.019 232.025 243.447V216.797C232.236 189.724 224.622 189.724 224.622 189.724Z"/>
<path d="M289.344 249.792C289.344 255.503 271.365 270.52 270.308 271.366C269.039 265.232 264.386 258.676 251.061 245.139L270.731 225.469C283.844 238.582 289.344 241.543 289.344 249.792Z"/>
<path d="M83.1229 468.704H51.3966C41.4557 468.704 42.3018 460.455 41.2442 453.475V408.212C41.2442 408.212 48.224 408.001 56.0498 408.001C64.7217 408.001 75.7201 406.732 86.2956 412.654C80.7963 401.021 68.9519 393.83 56.0498 394.253H41.4557V379.659C41.4557 379.659 41.4557 366.968 38.2831 363.372H59.2225C77.2007 363.372 91.1603 363.161 105.754 372.679C105.754 372.679 103.005 348.778 68.1058 348.778H0C0 348.778 11.8445 358.931 11.4215 379.447L11.8445 461.936C11.8445 482.663 20.0933 483.298 20.0933 483.298H87.1416C102.37 483.298 107.658 472.511 107.658 466.589L107.869 458.763C107.869 458.763 103.005 468.704 83.1229 468.704Z"/>
<path d="M261.636 461.724V403.982C261.636 381.562 243.446 375.64 229.698 375.64C211.72 375.64 206.221 390.657 203.894 395.944C199.875 381.985 185.704 375.64 174.283 375.64C152.497 375.64 146.998 396.368 146.998 396.368C146.998 396.368 146.575 376.274 129.02 376.274H111.888C111.888 376.274 121.829 380.293 121.829 397.637V461.724C121.829 482.875 130.289 483.298 130.289 483.298H158.631C151.863 478.221 147.844 470.184 147.844 461.512V404.616C148.267 402.078 152.497 393.618 164.553 393.618C171.533 393.618 179.147 400.809 178.936 408.847V461.724C178.936 483.086 187.396 483.298 187.396 483.298H215.738C208.97 478.01 204.952 470.184 204.952 461.512V404.616C207.701 396.368 216.585 391.714 225.045 394.464C231.39 396.579 235.832 402.29 236.043 409.058C236.043 409.058 236.043 457.282 236.043 461.724C236.255 483.298 244.504 483.086 244.504 483.086C259.309 483.086 272.846 483.086 272.846 483.086C265.866 478.01 261.847 470.184 261.636 461.724Z"/>
<path d="M311.129 461.724C311.129 470.184 315.148 478.221 321.916 483.297C321.916 483.297 308.38 483.297 293.574 483.297C293.574 483.297 284.902 483.509 284.902 461.935V397.425C284.902 380.504 275.173 376.062 275.173 376.062H292.305C298.439 376.062 310.918 376.063 310.918 399.963V461.301L311.129 461.724Z"/>
<path d="M398.271 384.312C398.271 384.312 395.522 376.697 383.889 376.697C366.122 376.697 361.892 397.848 361.892 397.848C360.411 381.139 355.97 376.274 343.491 376.274H326.358C326.358 376.274 336.299 380.293 336.299 397.637V461.724C336.299 482.875 344.76 483.298 344.76 483.298H373.102C366.334 478.222 362.315 470.184 362.315 461.724V409.058C362.949 404.617 365.488 400.598 369.295 398.271C378.813 391.926 391.292 393.83 398.694 402.501L398.271 384.312Z"/>
<path d="M530.041 388.119C535.963 388.119 541.674 389.599 546.75 392.349V376.274H523.061V351.739C517.985 359.777 511.428 366.968 504.025 373.102C495.988 379.658 479.067 387.907 479.067 387.907L497.046 388.119V462.57C497.046 483.298 505.718 483.298 505.718 483.298C521.158 483.298 533.848 483.298 533.848 483.298C527.08 478.433 523.061 470.607 522.85 462.358V388.119C530.464 388.119 525.388 388.119 530.041 388.119Z"/>
<path d="M615.913 420.48C600.05 436.977 587.571 434.439 577.63 446.707C577.63 446.707 579.322 463.205 591.801 468.915C596.032 470.819 613.587 477.164 624.797 457.705V475.049C624.797 475.049 617.606 483.509 594.551 483.509C566.843 483.509 547.808 461.724 547.808 432.113C547.808 402.925 563.248 376.063 592.647 375.851C621.201 375.428 636.853 398.694 615.913 420.48ZM598.57 413.711C603.223 405.04 607.03 383.043 590.955 384.312C572.343 385.792 575.938 435.074 575.938 435.074C582.072 428.306 591.378 426.825 598.57 413.711Z"/>
<path d="M298.016 367.602C305.207 367.39 310.706 361.468 310.706 354.488C310.495 347.297 304.573 341.798 297.593 341.798C290.613 342.009 284.902 347.72 284.902 354.7C284.902 361.891 290.825 367.602 298.016 367.602Z"/>
<path d="M427.671 471.03C421.326 471.03 416.672 464.261 416.672 457.493C416.672 430.843 438.458 427.036 444.38 420.056V465.107C441.63 467.222 439.092 471.03 427.671 471.03ZM444.38 409.692C437.823 421.113 386.638 423.652 394.464 463.204C397.637 478.855 408.001 483.509 421.114 483.509C433.805 483.509 441.63 476.952 444.803 470.607C446.707 482.451 452.84 483.297 452.84 483.297C467.646 483.297 481.183 483.297 481.183 483.297C474.414 478.221 470.184 470.395 470.184 461.935V401.655C470.184 387.272 454.321 376.062 437.4 376.062C427.882 375.851 418.787 378.6 410.962 383.888V402.501C410.962 402.501 416.884 387.695 431.478 387.695C445.861 387.695 446.918 394.886 446.918 398.482C447.13 402.289 446.495 406.308 444.38 409.692Z"/>
<path d="M678.52 454.109C678.732 461.724 671.964 471.665 657.581 471.665C642.775 471.665 636.853 456.648 636.853 456.648V475.683C644.891 480.76 654.197 483.298 663.715 483.298C682.962 483.298 702.632 468.704 702.209 448.187C701.998 441.419 699.671 434.862 695.653 429.574C689.096 420.903 677.251 414.769 667.945 409.058C662.657 405.885 659.908 399.963 659.908 398.06C659.696 394.464 661.6 387.273 675.771 387.273C689.73 387.273 695.864 402.078 695.864 402.078V384.1C688.038 378.601 678.52 375.64 668.791 375.64C651.87 375.64 636.43 386.85 636.853 401.232C637.065 413.923 642.352 421.96 652.716 429.786C657.37 433.17 662.234 436.131 667.31 438.881C675.348 443.322 678.309 448.822 678.52 454.109Z"/>
</svg>
