<svg width="2920" height="1429" viewBox="0 0 2920 1429" xmlns="http://www.w3.org/2000/svg">
<path d="M649.883 1422.15L740.431 1192.92H769.773L859.404 1422.15H813.557L795.218 1374.93H735.617L723.467 1342.38H783.527L760.604 1279.34L754.185 1258.48L747.766 1279.34L693.438 1422.15H649.883Z M932.76 1422.15V1192.92H978.607V1422.15H932.76Z M1196.84 1422.15L1144.57 1347.43H1119.36V1422.15H1075.11V1192.92H1148.24C1170.26 1191.44 1192.07 1197.96 1209.67 1211.26C1217.14 1218.37 1222.91 1227.07 1226.56 1236.71C1230.21 1246.35 1231.65 1256.69 1230.76 1266.97C1230.96 1283.07 1226.76 1298.92 1218.61 1312.81C1210.78 1325.76 1198.95 1335.81 1184.92 1341.47L1247.96 1422.38L1196.84 1422.15ZM1119.36 1317.17H1148.01C1173.23 1317.17 1185.6 1302.04 1185.6 1271.32C1186.23 1260.71 1183.24 1250.21 1177.12 1241.52C1173.43 1237.6 1168.88 1234.58 1163.83 1232.71C1158.78 1230.84 1153.37 1230.17 1148.01 1230.75H1119.36V1317.17Z M1363.95 1422.15L1295.18 1192.92H1341.03L1384.35 1356.14H1386.19L1426.53 1230.06L1414.15 1194.07H1457.71L1511.35 1356.14H1512.72L1554.9 1193.61H1597.54L1528.77 1421.47H1492.09L1446.25 1280.03L1400.4 1421.47L1363.95 1422.15Z M1633.53 1422.15L1725.23 1192.92H1753.42L1843.05 1422.15H1797.21L1778.87 1374.93H1719.04L1706.43 1342.38H1766.72L1743.79 1279.34L1737.6 1258.48L1730.96 1279.34L1677.54 1421.92L1633.53 1422.15Z M1943.23 1422.15V1328.63L1868.73 1193.84H1918.47L1967.99 1289.89L2019.1 1193.84H2063.12L1987.24 1328.63V1422.15H1943.23Z M2182.09 1427.66C2161.91 1428.45 2141.94 1423.18 2124.78 1412.53V1366.68C2140.89 1381.68 2162.15 1389.89 2184.15 1389.6C2211.66 1389.6 2226.33 1379.06 2226.33 1357.74C2226.46 1354.12 2225.79 1350.52 2224.37 1347.19C2222.94 1343.86 2220.79 1340.89 2218.08 1338.49C2209.39 1332.58 2199.55 1328.6 2189.2 1326.8L2180.94 1324.96C2142.43 1315.56 2123.18 1293.79 2123.18 1259.4C2122.63 1249.67 2124.24 1239.95 2127.89 1230.91C2131.53 1221.88 2137.13 1213.76 2144.27 1207.14C2161.27 1193.64 2182.67 1186.95 2204.33 1188.34C2224.98 1187.17 2245.49 1192.46 2263.01 1203.47V1249.31C2255.38 1242.66 2246.71 1237.32 2237.34 1233.5C2226.39 1228.84 2214.62 1226.42 2202.72 1226.39C2192.87 1225.69 2183.03 1228.01 2174.53 1233.04C2169.31 1238.29 2166.27 1245.32 2166.01 1252.71C2165.76 1260.11 2168.31 1267.33 2173.15 1272.93C2181.55 1278.69 2191.09 1282.6 2201.12 1284.39L2209.37 1286.22C2226.49 1289.43 2242.37 1297.37 2255.22 1309.14C2260.32 1314.85 2264.23 1321.53 2266.71 1328.77C2269.19 1336.02 2270.19 1343.68 2269.66 1351.32C2270.22 1361.51 2268.65 1371.7 2265.06 1381.25C2261.47 1390.8 2255.93 1399.5 2248.8 1406.8C2230.19 1422.28 2206.21 1429.78 2182.09 1427.66Z M1557.2 92.3796L1596.17 53.4102L1631.7 88.9412L1635.36 92.1504L1596.17 131.349L1557.2 92.3796Z M1635.59 92.3796L1674.56 53.4102L1710.1 88.9412L1713.53 92.1504L1674.56 131.349L1635.59 92.3796Z M1582.41 481.158C1576.07 481.156 1569.81 479.747 1564.07 477.032C1556.33 470.448 1550.23 462.152 1546.25 452.802C1542.28 443.452 1540.53 433.305 1541.15 423.162V416.285H1210.13V118.284C1210.13 105.676 1202.11 102.238 1195 98.57C1187.9 94.9022 1183.08 92.3807 1181.94 83.6699V79.3145C1211.25 57.4526 1237.73 32.0436 1260.79 3.66797V366.771H1542.3V352.33C1542.3 339.951 1542.3 314.048 1479.26 313.589H1380.23C1362.35 311.985 1352.72 292.5 1352.72 274.849C1352.39 269.646 1353.37 264.444 1355.57 259.718C1357.78 254.992 1361.13 250.895 1365.33 247.8L1369.45 244.82L1371.97 249.405C1377.7 259.949 1400.86 264.763 1444.87 264.763H1513.64C1587.68 264.763 1596.4 329.406 1597.54 356.456V367.459H1668.83V255.823C1668.83 255.823 1668.83 248.029 1654.62 239.548C1651.38 237.68 1648.57 235.137 1646.4 232.092C1644.22 229.047 1642.73 225.57 1642.01 221.897C1673.26 201.858 1699.21 174.57 1717.66 142.353V416.285H1593.87V420.412C1592.09 436.776 1596.69 453.197 1606.71 466.258L1612.21 470.384L1605.34 475.198C1598.37 479.22 1590.45 481.28 1582.41 481.158Z M991.214 458.464V416.285H821.58V365.854H1038.21V433.019C1038.21 433.019 1035.92 454.109 1076.95 454.109C1080.23 454.02 1083.46 453.285 1086.46 451.946C1089.46 450.607 1092.16 448.691 1094.42 446.307C1096.67 443.922 1098.44 441.117 1099.61 438.05C1100.78 434.984 1101.34 431.716 1101.25 428.435V308.546C1101.54 306.316 1101.38 304.051 1100.78 301.882C1100.19 299.714 1099.17 297.685 1097.78 295.915C1096.39 294.144 1094.67 292.667 1092.71 291.57C1090.74 290.472 1088.58 289.775 1086.35 289.52H821.58V141.207C838.795 162.557 859.209 181.115 882.098 196.223C886.912 199.203 884.391 207.455 869.261 217.312C866.052 219.146 862.384 220.75 862.384 225.106V243.674H1120.73C1150.76 243.674 1153.51 275.766 1153.51 285.623V457.089C1153.51 457.089 1151.22 502.935 1077.18 502.935C985.713 502.018 991.214 458.464 991.214 458.464Z M2017.27 416.285V0.6875L2025.98 14.8999C2035.43 27.8295 2046.53 39.4665 2058.99 49.5139C2067.69 57.5742 2077.31 64.5763 2087.65 70.374C2092.46 72.2079 2095.9 73.8125 2095.9 78.6264V82.7526C2095.9 91.6926 2088.56 94.6726 2082.6 97.8819C2078.47 99.271 2074.88 101.919 2072.33 105.455C2069.78 108.991 2068.4 113.237 2068.39 117.596V416.285H2017.27Z M1773.36 470.842L1826.78 418.348L1763.74 356.456V0.916948C1779.34 31.0363 1800.77 57.7608 1826.78 79.5435V83.6697C1826.42 86.7809 1825.28 89.7525 1823.48 92.3147C1821.68 94.8768 1819.27 96.9481 1816.46 98.3405C1812.59 100.239 1809.39 103.279 1807.3 107.049C1805.21 110.82 1804.33 115.141 1804.77 119.43V329.406L1857.26 383.963L1909.76 329.406V118.284C1910.22 114.023 1909.34 109.725 1907.24 105.987C1905.15 102.249 1901.94 99.2558 1898.07 97.4235C1895.27 96.0861 1892.85 94.0595 1891.05 91.5337C1889.24 89.0078 1888.11 86.0654 1887.75 82.9819V80.2312C1915.69 59.3347 1937.92 31.7438 1952.4 0V350.725L1889.36 417.431L1941.85 469.925L1858.87 553.824L1773.36 470.842ZM1857.26 506.144L1892.34 470.842L1857.26 435.541L1822.19 470.842L1857.26 506.144Z M1640.64 949.25L1729.81 852.972V664.085C1730.05 662.905 1730.7 661.848 1731.64 661.105L1744.48 654.687V643.684H1624.82V654.458L1637.2 662.251C1640.87 664.544 1640.87 665.919 1640.87 667.065V775.721H1401.32L1347.45 844.491V664.314L1350.2 662.481L1361.43 655.604H1362.8V645.517H1243.6V656.291L1255.52 664.085C1257.36 664.085 1258.04 665.69 1258.5 665.69V993.492C1257.83 994.365 1256.97 995.071 1255.98 995.555L1244.29 1003.58V1014.12H1363.95V1003.35L1351.34 995.555L1348.36 993.95V844.949L1361.2 848.617L1377.7 839.218C1380.03 837.633 1382.58 836.398 1385.27 835.551C1387.48 835.321 1389.71 835.321 1391.92 835.551H1641.55L1640.64 949.25Z M2911.75 788.787C2895.31 741.655 2861.08 702.823 2816.39 680.59C2770.54 655.833 2708.88 643.684 2623.6 643.684H2298.31V654.228C2298.31 654.228 2312.07 663.398 2312.53 663.398V701.909H2623.14C2670.32 698.789 2717.55 707.29 2760.68 726.666C2780 735.92 2796.35 750.404 2807.85 768.475C2819.36 786.546 2825.57 807.48 2825.79 828.903C2825.81 849.781 2819.84 870.227 2808.59 887.816C2795.31 906.674 2777.49 921.888 2756.79 932.057C2713.68 949.795 2667.15 957.629 2620.62 954.981H2458.55V728.499H2370.07V993.262L2367.54 995.784L2356.77 1002.66V1012.29H2622.22C2662.22 1013.06 2702.2 1010.15 2741.66 1003.58C2778 996.383 2812.58 982.131 2843.44 961.628C2870.23 944.839 2891.95 921.064 2906.25 892.859C2915.45 873.858 2920.16 852.994 2920 831.883C2919.24 817.208 2916.46 802.707 2911.75 788.787Z M1744.25 1000.14H1739.44L1962.26 769.073L1910.68 713.828L1622.07 1012.29H1755.03V999.222H1750.44C1748.42 999.758 1746.34 1000.07 1744.25 1000.14Z M1934.75 697.553L1991.6 758.071L2050.51 817.212H1951.02L1895.55 874.75L1907.47 882.773L1920.3 875.896H2103.69L2221.06 1001.97C2221.06 1001.97 2219.46 1004.04 2209.14 1004.04H2204.56V1016.87H2337.28L1985.87 642.996L1934.75 697.553Z M1081.76 654.915L1093.68 662.709C1096.43 664.542 1097.81 666.147 1097.81 667.752V993.032L1094.83 995.553L1082.45 1003.35V1014.12H1201.19V1003.58L1190.19 995.783C1188.59 995.783 1187.67 994.178 1187.44 994.178V664.084L1190.19 661.562L1200.96 654.227V643.453H1081.76V654.915Z M584.78 943.518L569.192 952.458L562.315 956.126H296.86C249.877 958.841 202.882 951.009 159.319 933.203C138.89 924.741 121.442 910.391 109.195 891.98C96.9486 873.569 90.4575 851.931 90.5485 829.819C90.5835 809.098 96.7228 788.847 108.2 771.594C120.01 754.292 135.271 739.618 153.022 728.493C170.774 717.369 190.634 710.035 211.356 706.951C222.46 704.753 233.735 703.526 245.053 703.283H382.594C390.618 703.283 389.471 705.117 389.701 705.805L388.096 715.433H399.558L457.325 645.517H294.11C264.873 645.017 235.633 646.242 206.542 649.185C196.06 650.365 185.652 652.125 175.366 654.457C148.23 660.804 122.139 670.993 97.884 684.715C61.7274 703.933 32.4159 733.885 13.9839 770.448C4.57238 790.606 -0.205636 812.616 0.000540255 834.862C0.000540255 894.463 32.0935 942.143 95.5917 976.528C125.404 992.616 157.724 1003.54 191.183 1008.85C226.502 1013.66 262.139 1015.73 297.777 1015.04H543.059L602.66 943.518H584.78Z M467.182 854.118L524.491 783.057H137.542L98.8008 840.365H447.239C454.116 840.365 456.179 842.886 456.408 844.032L455.033 854.348L467.182 854.118Z M443.111 711.764L454.115 715.661H455.719L472.683 707.179C476.713 704.156 481.628 702.545 486.666 702.595H700.543V993.261L697.792 995.782L685.642 1003.81V1014.12H805.074V1003.58L792.695 996.012L789.715 993.261C789.486 992.203 789.486 991.109 789.715 990.052V702.824H978.605C986.17 702.824 986.858 705.346 986.858 705.575V715.661H996.485L1055.17 644.141H497.211L443.111 711.764Z"/>
</svg>