<svg width="238" height="56" viewBox="0 0 238 56" fill="none" xmlns="http://www.w3.org/2000/svg">
<g clip-path="url(#clip0_3035_3151)">
<path fill-rule="evenodd" clip-rule="evenodd" d="M83.9241 17.9374L90.375 37.2447H93.7162H97.0574L103.508 17.9374H97.0313L93.7162 30.9413L90.4011 17.9374H83.9241Z" fill="black" style="fill:black;fill-opacity:1;"/>
<path fill-rule="evenodd" clip-rule="evenodd" d="M81.8834 32.6288H71.296V29.1357H81.8834V25.3734H71.296V22.4154H81.8834V17.9374H65.158V37.1101H81.8834V32.6288Z" fill="black" style="fill:black;fill-opacity:1;"/>
<path fill-rule="evenodd" clip-rule="evenodd" d="M122.274 32.6288H111.687V29.1357H122.274V25.3734H111.687V22.4154H122.274V17.9374H105.549V37.1101H122.274V32.6288Z" fill="black" style="fill:black;fill-opacity:1;"/>
<path fill-rule="evenodd" clip-rule="evenodd" d="M199.164 32.6288H188.576V29.1357H199.164V25.3734H188.576V22.4154H199.164V17.9374H182.438V37.1101H199.164V32.6288Z" fill="black" style="fill:black;fill-opacity:1;"/>
<path fill-rule="evenodd" clip-rule="evenodd" d="M217.93 32.6288H207.343V29.1357H217.93V25.3734H207.343V22.4154H217.93V17.9374H201.205V37.1101H217.93V32.6288Z" fill="black" style="fill:black;fill-opacity:1;"/>
<path fill-rule="evenodd" clip-rule="evenodd" d="M226.112 17.9374H219.974V37.1101H226.112V27.0936L231.862 37.1101H238V17.9374H231.862V27.7962L226.112 17.9374Z" fill="black" style="fill:black;fill-opacity:1;"/>
<path fill-rule="evenodd" clip-rule="evenodd" d="M130.287 30.3668V37.1133H124.318V17.9374H139.16C140.434 17.9374 141.474 18.9879 141.474 20.2683V26.854C141.474 27.6189 140.851 28.246 140.092 28.246H140.134C140.871 28.246 141.474 28.8533 141.474 29.5953V37.0083C141.474 37.0641 141.428 37.1133 141.37 37.1133H135.75C135.694 37.1133 135.646 37.0674 135.646 37.0083V32.0641C135.646 31.1284 134.886 30.3668 133.96 30.3668H130.287ZM130.287 22.5861H134.785C135.238 22.5861 135.61 22.9604 135.61 23.4167V25.3537C135.61 25.81 135.238 26.1843 134.785 26.1843H130.287V22.5894V22.5861Z" fill="black" style="fill:black;fill-opacity:1;"/>
<path fill-rule="evenodd" clip-rule="evenodd" d="M145.832 17.9374H158.877C160.152 17.9374 161.192 18.9879 161.192 20.2683V23.8205H155.354V23.4364C155.354 22.921 154.933 22.4975 154.421 22.4975H150.229C149.718 22.4975 149.297 22.921 149.297 23.4364V31.611C149.297 32.1265 149.718 32.55 150.229 32.55H154.421C154.933 32.55 155.354 32.1265 155.354 31.611V29.986H151.892V26.0989H161.188V34.7791C161.188 36.0628 160.145 37.1101 158.874 37.1101H145.829C144.554 37.1101 143.514 36.0595 143.514 34.7791V20.2683C143.514 18.9847 144.558 17.9374 145.829 17.9374H145.832Z" fill="black" style="fill:black;fill-opacity:1;"/>
<path fill-rule="evenodd" clip-rule="evenodd" d="M169.207 30.3668V37.1133H163.236V17.9374H178.077C179.352 17.9374 180.391 18.9879 180.391 20.2683V26.854C180.391 27.6189 179.769 28.246 179.009 28.246H179.052C179.788 28.246 180.391 28.8533 180.391 29.5953V37.0083C180.391 37.0641 180.346 37.1133 180.287 37.1133H174.667C174.612 37.1133 174.563 37.0674 174.563 37.0083V32.0641C174.563 31.1284 173.804 30.3668 172.878 30.3668H169.204H169.207ZM169.207 22.5861H173.706C174.159 22.5861 174.53 22.9604 174.53 23.4167V25.3537C174.53 25.81 174.159 26.1843 173.706 26.1843H169.207V22.5894V22.5861Z" fill="black" style="fill:black;fill-opacity:1;"/>
<path d="M27.6227 0.409546H26.9871V9.15544H27.6227V0.409546Z" fill="black" style="fill:black;fill-opacity:1;"/>
<path d="M27.6227 52.6912H26.9871V54.8645H27.6227V52.6912Z" fill="black" style="fill:black;fill-opacity:1;"/>
<path d="M12.3998 27.271H0.316162V27.9112H12.3998V27.271Z" fill="black" style="fill:black;fill-opacity:1;"/>
<path d="M54.2934 27.271H42.1902V27.9112H54.2934V27.271Z" fill="black" style="fill:black;fill-opacity:1;"/>
<path d="M26.3611 11.1187C22.0257 10.9053 18.9713 9.07339 17.1427 7.5271C15.0369 5.74772 14.0459 3.94536 14.0362 3.92566L13.4788 4.23098C13.5211 4.30649 14.5251 6.1384 16.7156 7.99657C18.6226 9.61509 21.8073 11.5324 26.3285 11.7556L26.3611 11.1187Z" fill="black" style="fill:black;fill-opacity:1;"/>
<path d="M40.5767 3.91577C40.5669 3.93547 39.4847 5.75753 37.2909 7.55333C35.4362 9.07007 32.4144 10.8462 28.2485 11.1055L28.3724 11.7391C32.6719 11.4502 35.7947 9.6052 37.7114 8.03265C39.9867 6.16791 41.0787 4.31958 41.1243 4.24079L40.5767 3.91577Z" fill="black" style="fill:black;fill-opacity:1;"/>
<path d="M22.3256 20.357C23.1014 20.4226 23.9 20.4719 24.7149 20.4916L24.9333 19.858C23.6099 19.8284 22.3353 19.7332 21.1162 19.592L22.3223 20.357H22.3256Z" fill="black" style="fill:black;fill-opacity:1;"/>
<path d="M33.9301 19.3754C32.6686 19.5198 31.28 19.6347 29.7349 19.7266L29.8815 20.357C30.8627 20.2979 31.7852 20.2289 32.649 20.1469L33.9301 19.3721V19.3754Z" fill="black" style="fill:black;fill-opacity:1;"/>
<path d="M18.4205 19.1849C15.301 18.6104 12.6541 17.7568 10.6462 16.9689C6.62043 15.3898 4.23108 13.7253 4.20826 13.7089L3.84644 14.2341C3.94423 14.3031 6.3075 15.9511 10.3984 17.5565C12.5433 18.4003 15.4118 19.3162 18.8052 19.9006L18.4238 19.1816L18.4205 19.1849Z" fill="black" style="fill:black;fill-opacity:1;"/>
<path d="M50.4438 13.6859C49.6452 14.0831 48.9052 14.464 48.1913 14.8349C44.5177 16.7292 41.7045 18.1803 36.3586 19.0437L36.0066 19.7463C41.7371 18.8796 44.648 17.3793 48.4847 15.3996C49.1986 15.0319 49.9353 14.6511 50.7306 14.2571L50.4503 13.6826L50.4438 13.6859Z" fill="black" style="fill:black;fill-opacity:1;"/>
<path d="M18.5933 35.4194L19.1181 34.6938C18.8248 33.0819 18.6064 31.3878 18.4988 29.6347L17.8403 29.5001C17.9609 31.5651 18.2282 33.5481 18.5933 35.4226V35.4194Z" fill="black" style="fill:black;fill-opacity:1;"/>
<path d="M17.7913 25.7969L18.4498 25.5671C18.5215 23.7384 18.7106 21.9886 18.9844 20.3372L18.4857 19.4279C18.1173 21.4075 17.8631 23.5414 17.7881 25.7969H17.7913Z" fill="black" style="fill:black;fill-opacity:1;"/>
<path d="M26.3189 43.4233C24.4804 43.5153 22.8636 43.8862 21.4619 44.405L22.5441 44.7168C23.7078 44.3623 25.0117 44.1226 26.4558 44.057L26.3189 43.4233Z" fill="black" style="fill:black;fill-opacity:1;"/>
<path d="M28.3074 44.08C29.7514 44.1752 31.0553 44.451 32.219 44.8351L32.9981 44.4313C31.6583 43.9323 30.1263 43.5646 28.4052 43.4431L28.3074 44.0767V44.08Z" fill="black" style="fill:black;fill-opacity:1;"/>
<path d="M46.6136 8.14425C41.4568 2.95055 34.5984 0.0910645 27.3065 0.0910645C20.0145 0.0910645 13.1561 2.95055 7.99603 8.14425C2.83919 13.3412 0 20.2454 0 27.5927C0 34.94 2.83919 41.8442 7.99603 47.0379C13.1529 52.2316 20.0113 55.0911 27.3032 55.0911C34.5951 55.0911 41.4535 52.2316 46.6104 47.0379C51.7672 41.8442 54.6064 34.9368 54.6064 27.5927C54.6064 20.2486 51.7672 13.3412 46.6104 8.14753L46.6136 8.14425ZM40.9776 50.6459L39.9149 49.3228L39.5205 49.6446L40.5343 50.9085C36.6324 53.1607 32.1178 54.4509 27.3065 54.4509C22.4951 54.4509 18.0228 53.1738 14.1373 50.9414L14.9424 49.8941L14.5415 49.5822L13.7168 50.6557L13.9091 50.8068C5.97502 46.1482 0.63564 37.4844 0.63564 27.5927C0.63564 12.7798 12.5987 0.731248 27.3065 0.731248C42.0142 0.731248 53.9773 12.7798 53.9773 27.5927C53.9773 37.376 48.7585 45.9512 40.9776 50.6492V50.6459Z" fill="black" style="fill:black;fill-opacity:1;"/>
<path d="M18.8477 36.6438C19.4898 39.5296 20.3504 42.1232 21.2207 44.3195L22.0193 44.5657C21.0708 42.2381 20.1026 39.3819 19.4116 36.158L18.8509 36.6438H18.8477Z" fill="black" style="fill:black;fill-opacity:1;"/>
<path d="M28.3463 52.6912C27.8606 53.4069 27.4858 53.8763 27.2869 54.07C27.0881 53.8632 26.723 53.3937 26.2503 52.6912H25.4778C26.8403 54.7791 27.1402 54.7791 27.2706 54.7791C27.401 54.7791 27.7661 54.7791 29.1286 52.6912H28.3463Z" fill="black" style="fill:black;fill-opacity:1;"/>
<path d="M9.04236 28.9321H9.678C9.64215 28.4856 9.61607 28.0392 9.60629 27.5861C9.38463 17.944 14.988 10.6951 18.3488 7.23483C21.9605 3.51191 25.7385 1.28605 27.3064 1.28605C28.6918 1.28605 32.7306 3.50863 36.7172 7.6846C39.9703 11.0923 45.3716 18.2066 45.0066 27.5828C44.9903 28.0392 44.9577 28.4889 44.9153 28.9354H45.5509C45.59 28.4955 45.6226 28.0556 45.6389 27.6091C46.0138 17.9965 40.4951 10.7214 37.1703 7.2414C33.2847 3.16392 29.021 0.642578 27.3064 0.642578C25.5918 0.642578 21.7649 2.79294 17.8957 6.78178C14.4665 10.3176 8.74573 17.7207 8.97391 27.596C8.98369 28.0457 9.00976 28.4889 9.04562 28.9289L9.04236 28.9321Z" fill="black" style="fill:black;fill-opacity:1;"/>
<path d="M31.5376 51.9459C29.6339 53.3904 28.0823 54.139 27.3032 54.139C26.5242 54.139 24.9823 53.3478 23.0363 51.854L22.9744 52.5992C24.8324 53.9847 26.4166 54.7792 27.3032 54.7792C28.2714 54.7792 29.911 53.988 31.831 52.5369L31.5376 51.9459Z" fill="black" style="fill:black;fill-opacity:1;"/>
<path d="M35.9478 18.3937C34.0605 8.9617 29.5001 2.6091 28.0202 1.12847C27.6226 0.727949 27.4302 0.645874 27.2705 0.645874C27.1108 0.645874 26.9576 0.737798 26.7066 0.987305C26.0025 1.68658 23.6946 4.5986 21.5074 9.60188C20.5197 11.8573 19.4342 14.8645 18.6877 18.4134L19.2549 18.8698C20.0731 14.8284 21.3574 11.4338 22.5179 8.93543C24.5519 4.5592 26.7131 1.80149 27.2836 1.32217C27.8605 1.74896 30.0543 4.40162 32.1144 8.8074C33.2684 11.2729 34.5396 14.6413 35.335 18.6991L35.9446 18.3905L35.9478 18.3937Z" fill="black" style="fill:black;fill-opacity:1;"/>
<path d="M36.3293 36.2729C38.4709 36.6176 40.2083 37.0576 41.7534 37.5796L42.0664 37.0083C40.3778 36.4305 38.4742 35.9512 36.0718 35.5835L36.326 36.2729H36.3293Z" fill="black" style="fill:black;fill-opacity:1;"/>
<path d="M24.7444 34.8251C23.8024 34.8513 22.8831 34.9071 21.9932 34.9925L20.7578 35.7706C22.1138 35.5998 23.5449 35.4882 25.0345 35.4554L24.7444 34.8218V34.8251Z" fill="black" style="fill:black;fill-opacity:1;"/>
<path d="M18.8574 35.4094C16.5104 35.8099 14.4144 36.3713 12.6313 36.959L12.9573 37.5237C14.5448 37.005 16.3833 36.5125 18.4238 36.135L18.8574 35.4094Z" fill="black" style="fill:black;fill-opacity:1;"/>
<path d="M48.6772 40.0187L48.2991 40.5407C48.9803 40.8919 49.6844 41.2564 50.4472 41.6339L50.7275 41.0594C50.0039 40.6982 49.3324 40.3535 48.6772 40.0154V40.0187Z" fill="black" style="fill:black;fill-opacity:1;"/>
<path d="M34.0345 35.8591L32.7925 35.1829C31.8961 35.0975 30.9378 35.0253 29.9142 34.9629L29.7871 35.5965C31.505 35.6983 33.0272 35.8329 34.3963 36.0003L34.0377 35.8591H34.0345Z" fill="black" style="fill:black;fill-opacity:1;"/>
<path d="M5.81212 39.8972C4.57995 40.5735 3.89542 41.0495 3.84326 41.0857L4.20509 41.6109C4.20509 41.6109 4.89288 41.1316 6.12505 40.4553L5.80886 39.8972H5.81212Z" fill="black" style="fill:black;fill-opacity:1;"/>
<path d="M35.9804 35.114C36.3194 33.3116 36.5737 31.4075 36.6943 29.4246L36.0261 29.6544C35.9185 31.2466 35.7262 32.7863 35.4719 34.2604C35.6088 34.4837 35.7914 34.7955 35.9804 35.114Z" fill="black" style="fill:black;fill-opacity:1;"/>
<path d="M36.7627 25.6656C36.7073 23.5316 36.4954 21.5027 36.1694 19.592L35.6511 20.4883C35.8891 22.0444 36.0488 23.6925 36.1042 25.4194L36.7627 25.6689V25.6656Z" fill="black" style="fill:black;fill-opacity:1;"/>
<path d="M35.1231 36.0857C34.4158 39.4212 33.4281 42.3595 32.4697 44.7233L33.314 44.3556C34.1811 42.1395 35.0384 39.5 35.6838 36.5584L35.1199 36.0857H35.1231Z" fill="black" style="fill:black;fill-opacity:1;"/>
<path d="M27.3064 9.75623L25.0311 22.0904L19.3397 19.3754L22.0192 25.16L13.4788 27.5927L22.0192 29.7628L19.4049 35.4818L24.9366 32.8948L27.3064 45.2323L29.7349 32.8291L35.2079 35.5835L32.4697 29.8252L41.1242 27.5927L32.6327 25.334L35.4719 19.5888L29.5262 22.2841L27.3064 9.75623Z" fill="black" style="fill:black;fill-opacity:1;"/>
<path fill-rule="evenodd" clip-rule="evenodd" d="M10.7864 35.5769L7.08667 40.137L7.6017 40.961L8.11673 41.785L13.7984 40.4029L12.8042 38.8074L9.13376 39.9925L11.7839 37.1724L10.7864 35.5769Z" fill="black" style="fill:black;fill-opacity:1;"/>
<path fill-rule="evenodd" clip-rule="evenodd" d="M6.1511 35.3143L5.75994 32.1561L6.78674 32.0248L7.17791 35.183L8.2862 35.0451L7.89504 31.8869L8.76212 31.7785L9.15328 34.9368L10.4702 34.7693L9.85411 29.7825L4.21484 30.4916L4.83419 35.4785L6.1511 35.3143Z" fill="black" style="fill:black;fill-opacity:1;"/>
<path fill-rule="evenodd" clip-rule="evenodd" d="M15.5128 47.6189L13.0973 45.5703L13.7623 44.7725L16.181 46.8211L16.8981 45.9642L14.4827 43.9124L15.0466 43.2393L17.4621 45.2879L18.3194 44.2669L14.499 41.0266L10.8384 45.4028L14.6587 48.6432L15.5128 47.6189Z" fill="black" style="fill:black;fill-opacity:1;"/>
<path fill-rule="evenodd" clip-rule="evenodd" d="M43.0965 44.2309L40.5996 46.1777L39.9639 45.3537L42.4641 43.4036L41.7796 42.5171L39.2827 44.464L38.7448 43.768L41.245 41.8179L40.4301 40.7607L36.4858 43.8402L39.9639 48.3642L43.9114 45.288L43.0965 44.2309Z" fill="black" style="fill:black;fill-opacity:1;"/>
<path fill-rule="evenodd" clip-rule="evenodd" d="M47.2981 37.8454L45.8313 40.6655L44.9153 40.1829L46.3789 37.3628L45.3912 36.8408L43.9276 39.6609L43.1518 39.2505L44.6154 36.4337L43.4386 35.8132L41.1243 40.2683L46.1605 42.9209L48.4749 38.4659L47.2981 37.8454Z" fill="black" style="fill:black;fill-opacity:1;"/>
<path fill-rule="evenodd" clip-rule="evenodd" d="M44.071 33.1607L43.7744 34.9827L49.3843 35.9086L49.681 34.0865L46.7505 33.6039L49.9581 32.3793L50.2547 30.5573L44.6448 29.6315L44.3481 31.4535L47.2329 31.9296L44.071 33.1607Z" fill="black" style="fill:black;fill-opacity:1;"/>
<path fill-rule="evenodd" clip-rule="evenodd" d="M19.6429 48.6401L19.0985 50.5935L17.3708 50.1076L18.0847 47.5436L18.1108 47.4484L18.9127 44.5593L23.209 45.7708C23.5773 45.8758 23.7957 46.2632 23.6914 46.6342L23.1601 48.5383C23.0981 48.7583 22.8667 48.8896 22.6483 48.8272H22.6613C22.8732 48.8896 23.0003 49.1161 22.9417 49.3295L22.3451 51.4733C22.3419 51.4897 22.3223 51.4996 22.306 51.4963L20.6794 51.0367C20.6631 51.0334 20.6534 51.0137 20.6566 50.9973L20.7903 50.518L20.9109 50.0813L21.0543 49.5692C21.1293 49.3 20.9728 49.0143 20.7023 48.9388L20.0634 48.7583L19.7569 48.6729L19.6363 48.6401H19.6429ZM20.2687 46.388L21.5693 46.7557C21.6997 46.7918 21.778 46.9296 21.7421 47.0643L21.5856 47.6256C21.5498 47.757 21.4129 47.8358 21.2792 47.7996L19.9786 47.4319L20.2687 46.3912V46.388Z" fill="black" style="fill:black;fill-opacity:1;"/>
<path fill-rule="evenodd" clip-rule="evenodd" d="M33.6857 48.9945L34.3278 50.9151L32.6263 51.4896L31.7853 48.965L31.7559 48.8731L30.8074 46.03L35.0352 44.5986C35.397 44.4772 35.7947 44.6741 35.9153 45.0385L36.5412 46.9131C36.6129 47.1298 36.4955 47.3695 36.2804 47.4417H36.2934C36.5021 47.3662 36.7335 47.4811 36.8019 47.6912L37.506 49.8022C37.506 49.8022 37.5028 49.835 37.4865 49.8416L35.886 50.3833C35.886 50.3833 35.8534 50.38 35.8469 50.3636L35.6904 49.8908L35.547 49.4607L35.3775 48.9552C35.2895 48.6892 34.9993 48.5448 34.7353 48.6334L34.1062 48.8468L33.8063 48.9486L33.6889 48.988L33.6857 48.9945ZM32.9457 46.7785L34.2268 46.3452C34.3572 46.3025 34.4973 46.3714 34.5397 46.5028L34.7223 47.0543C34.7646 47.1856 34.6962 47.3268 34.5658 47.3695L33.2847 47.8028L32.9425 46.7785H32.9457Z" fill="black" style="fill:black;fill-opacity:1;"/>
<path fill-rule="evenodd" clip-rule="evenodd" d="M25.3964 45.9971H29.2917C29.6731 45.9971 29.9828 46.309 29.9828 46.6931V47.7535H28.2388V47.6386C28.2388 47.4843 28.115 47.3595 27.9618 47.3595H26.71C26.5568 47.3595 26.433 47.4843 26.433 47.6386V50.0778C26.433 50.2321 26.5568 50.3569 26.71 50.3569H27.9618C28.115 50.3569 28.2388 50.2321 28.2388 50.0778V49.5919H27.2055V48.4331H29.9828V51.0233C29.9828 51.4074 29.6731 51.7193 29.2917 51.7193H25.3964C25.015 51.7193 24.7053 51.4074 24.7053 51.0233V46.6931C24.7053 46.309 25.015 45.9971 25.3964 45.9971Z" fill="black" style="fill:black;fill-opacity:1;"/>
</g>
<defs>
<clipPath id="clip0_3035_3151">
<rect width="238" height="55" fill="white" style="fill:white;fill-opacity:1;" transform="translate(0 0.0910645)"/>
</clipPath>
</defs>
</svg>
