<svg width="268" height="42" viewBox="0 0 268 42" fill="none" xmlns="http://www.w3.org/2000/svg">
<path d="M16.7018 0.160645H34.6314L23.4018 18.7509H26.3271L37.5568 0.160645H55.5808L44.4455 18.7509H56.9019L51.9005 27.0551H39.3497L49.1639 40.4552H31.1398L21.4201 27.0551H18.306L28.0257 40.4552H10.1905L0.470703 27.0551L16.7018 0.160645Z" fill="black" style="fill:black;fill-opacity:1;"/>
<path d="M78.5117 34.1326H83.985V23.2805H94.1766V34.1326H99.7442V8.93677H94.1766V18.6565H83.985V8.93677H78.5117V34.1326Z" fill="black" style="fill:black;fill-opacity:1;"/>
<path fill-rule="evenodd" clip-rule="evenodd" d="M113.144 27.0552C113.144 28.1876 113.05 31.2074 109.087 31.2074C107.482 31.2074 106.067 30.7355 106.067 28.8482C106.067 27.0552 107.482 26.489 108.992 26.2059C110.502 25.9228 112.295 25.9228 113.144 25.1679V27.0552ZM106.633 21.4876C106.822 19.5059 108.049 18.751 109.936 18.751C111.729 18.751 113.144 19.0341 113.144 21.2045C113.144 23.2806 110.313 23.1862 107.199 23.5637C104.085 23.9411 100.971 24.9791 100.971 29.1313C100.971 32.9059 103.708 34.6045 107.199 34.6045C109.464 34.6045 111.729 34.0383 113.333 32.3397C113.333 32.9059 113.522 33.5665 113.711 34.1327H118.806C118.335 33.3778 118.146 31.7735 118.146 30.0749V20.6383C118.146 16.2974 113.805 15.4481 110.125 15.4481C106.067 15.4481 101.82 16.8636 101.537 21.5819H106.633V21.4876Z" fill="black" style="fill:black;fill-opacity:1;"/>
<path fill-rule="evenodd" clip-rule="evenodd" d="M119.75 40.5495H124.751V31.8678H124.846C126.073 33.6608 128.149 34.6044 130.319 34.6044C135.604 34.6044 138.34 30.0748 138.34 25.1678C138.34 19.9776 135.792 15.3536 130.036 15.3536C127.771 15.3536 125.789 16.2029 124.563 18.1846H124.468V15.9198H119.75V40.5495ZM128.998 30.8298C125.789 30.8298 124.657 27.9988 124.657 25.0734C124.657 22.148 125.695 19.2227 128.998 19.2227C132.206 19.2227 133.339 22.2424 133.339 25.0734C133.339 28.0931 132.301 30.8298 128.998 30.8298Z" fill="black" style="fill:black;fill-opacity:1;"/>
<path fill-rule="evenodd" clip-rule="evenodd" d="M151.174 27.0552C151.174 28.1876 151.08 31.2074 147.116 31.2074C145.512 31.2074 144.097 30.7355 144.097 28.8482C144.097 27.0552 145.512 26.489 147.022 26.2059C148.532 25.9228 150.325 25.9228 151.174 25.1679V27.0552ZM144.568 21.4876C144.757 19.5059 145.984 18.751 147.871 18.751C149.664 18.751 151.08 19.0341 151.08 21.2045C151.08 23.2806 148.249 23.1862 145.135 23.5637C142.021 23.9411 138.906 24.9791 138.906 29.1313C138.906 32.9059 141.643 34.6045 145.135 34.6045C147.399 34.6045 149.664 34.0383 151.268 32.3397C151.268 32.9059 151.457 33.5665 151.646 34.1327H156.742C156.27 33.3778 156.081 31.7735 156.081 30.0749V20.6383C156.081 16.2974 151.74 15.4481 148.06 15.4481C144.002 15.4481 139.756 16.8636 139.473 21.5819H144.568V21.4876Z" fill="black" style="fill:black;fill-opacity:1;"/>
<path fill-rule="evenodd" clip-rule="evenodd" d="M175.993 15.92H171.274V18.3735H171.18C169.953 16.2974 168.16 15.4481 165.707 15.4481C160.611 15.4481 157.874 19.789 157.874 24.5073C157.874 29.5087 160.233 33.6609 165.707 33.6609C167.877 33.6609 170.048 32.7172 171.18 30.8299H171.274V33.189C171.274 35.8313 170.048 37.7186 167.217 37.7186C165.424 37.7186 163.914 37.0581 163.442 35.1707H158.44C158.724 39.3229 162.876 41.0215 166.462 41.0215C174.86 41.0215 175.898 35.9257 175.898 32.9059V15.92H175.993ZM166.933 29.8862C163.914 29.8862 162.876 27.0552 162.876 24.4129C162.876 21.6763 164.102 19.2228 166.933 19.2228C170.142 19.2228 171.18 21.865 171.18 24.7904C171.18 27.4327 169.859 29.8862 166.933 29.8862Z" fill="black" style="fill:black;fill-opacity:1;"/>
<path d="M177.314 26.6777H187.977V22.3368H177.314V26.6777Z" fill="black" style="fill:black;fill-opacity:1;"/>
<path d="M189.298 34.1326H207.134V29.5087H194.866V8.93677H189.298V34.1326Z" fill="black" style="fill:black;fill-opacity:1;"/>
<path d="M208.266 34.1326H213.267V8.93677H208.266V34.1326Z" fill="black" style="fill:black;fill-opacity:1;"/>
<path fill-rule="evenodd" clip-rule="evenodd" d="M214.4 25.0735C214.4 30.8299 218.08 34.6989 223.836 34.6989C229.593 34.6989 233.273 30.9243 233.273 25.0735C233.273 19.2228 229.593 15.4481 223.836 15.4481C218.08 15.4481 214.4 19.2228 214.4 25.0735ZM219.401 25.0735C219.401 22.1482 220.439 19.2228 223.836 19.2228C227.234 19.2228 228.272 22.1482 228.272 25.0735C228.272 27.9989 227.234 30.9242 223.836 30.9242C220.439 30.8299 219.401 27.9045 219.401 25.0735Z" fill="black" style="fill:black;fill-opacity:1;"/>
<path d="M250.825 15.9199H245.635L241.672 28.3763H241.577L237.425 15.9199H232.046L238.463 33.0003C239.029 34.4158 238.463 36.2087 236.764 36.3975C235.821 36.3975 234.783 36.3031 233.839 36.2087V40.3609C234.877 40.4552 235.915 40.5496 236.859 40.5496C240.35 40.5496 242.049 39.3228 243.087 36.3975L250.825 15.9199Z" fill="black" style="fill:black;fill-opacity:1;"/>
<path fill-rule="evenodd" clip-rule="evenodd" d="M263.282 34.1326H268V8.93677H262.999V18.0903H262.904C261.772 16.2973 259.601 15.3537 257.431 15.3537C252.052 15.3537 249.315 19.8833 249.315 24.7903C249.315 29.7918 251.958 34.5101 257.525 34.5101C259.884 34.5101 261.866 33.6608 263.093 31.6791H263.187V34.1326H263.282ZM263.187 24.9791C263.187 27.9988 262.244 30.8298 258.846 30.8298C255.732 30.8298 254.411 27.8101 254.411 24.9791C254.411 21.9594 255.544 19.1283 258.846 19.1283C262.149 19.2227 263.187 22.0537 263.187 24.9791Z" fill="black" style="fill:black;fill-opacity:1;"/>
</svg>
