<svg width="2363" height="392" viewBox="0 0 2363 392" xmlns="http://www.w3.org/2000/svg">
<path d="M87.7979 307.758H250.318V383.889H0.330078V5.93491H87.7979V307.758ZM446.853 111.763H528.381V383.889H451.713V352.573C440.373 373.63 417.158 391.986 374.501 391.986C304.853 391.986 268.677 360.67 268.677 271.042V111.763H350.207V267.261C350.207 303.438 365.866 319.634 398.801 319.634C428.497 319.634 446.853 303.438 446.853 267.261V111.763ZM591.015 101.505C591.015 35.6348 632.592 0.536285 697.923 0.536285C718.983 0.536285 732.479 3.77625 732.479 3.77625V69.6467C732.479 69.6467 721.14 68.5708 711.419 68.5708C686.043 68.5708 672.543 77.2094 672.543 100.965V111.763H732.479V178.174H672.543V383.889H591.015V178.174H549.982V111.763H591.015V101.505ZM876.09 111.763H938.184V178.174H876.09V284.001C876.09 313.158 891.211 320.717 914.97 320.717C924.69 320.717 938.184 319.098 938.184 319.098V384.429C938.184 384.429 919.29 388.746 899.317 388.746C833.984 388.746 794.571 359.051 794.571 293.182V178.174H753.531V111.763H794.571V32.3935H876.09V111.763ZM1118.69 103.664C1187.81 103.664 1223.98 134.979 1223.98 224.608V383.889H1142.45V228.386C1142.45 192.213 1126.8 176.017 1092.78 176.017C1062 176.017 1043.65 192.213 1043.65 228.386V383.889H962.117V6.47626H1044.18V138.219C1058.22 118.24 1080.36 103.664 1118.69 103.664ZM1431.85 278.061C1431.85 307.758 1403.77 329.897 1360.58 329.897C1339.53 329.897 1327.1 320.178 1327.1 301.818C1327.1 287.781 1335.74 275.904 1363.29 272.126L1410.26 265.644C1418.36 264.562 1427 262.945 1431.85 261.325V278.061ZM1386.5 103.665C1306.05 103.665 1267.17 134.443 1263.94 192.214H1343.3C1344.38 177.094 1353.02 165.756 1386.5 165.756C1416.2 165.756 1430.24 175.477 1430.24 190.052C1430.24 203.014 1422.13 207.872 1402.16 210.03L1350.33 215.429C1280.13 222.986 1248.28 252.145 1248.28 305.061C1248.28 354.193 1278.52 391.986 1342.77 391.986C1386.5 391.986 1412.42 377.949 1435.09 349.87V383.889H1509.61V205.172C1509.61 130.121 1465.88 103.665 1386.5 103.665ZM1698.13 103.664C1768.86 103.664 1805.03 134.979 1805.03 224.608V383.889H1723.5V228.386C1723.5 192.213 1707.85 176.017 1673.84 176.017C1643.05 176.017 1624.7 192.213 1624.7 228.386V383.889H1543.17V111.764H1619.84V143.081C1631.18 122.021 1654.4 103.664 1698.13 103.664ZM1977.02 213.269C2046.13 222.45 2080.69 244.046 2080.69 300.74C2080.69 357.973 2040.19 391.987 1954.34 391.987C1860.94 391.987 1827.99 354.735 1826.38 300.197H1906.83C1908.99 320.178 1923.02 329.897 1954.34 329.897C1986.19 329.897 1999.15 322.335 1999.15 307.22C1999.15 293.182 1988.35 286.704 1960.29 282.924L1931.66 279.141C1871.73 271.044 1837.18 247.828 1837.18 193.833C1837.18 142 1875.51 103.664 1955.97 103.664C2030.47 103.664 2070.43 133.36 2074.21 192.213H1994.83C1992.14 176.559 1983.5 166.837 1955.97 166.837C1928.97 166.837 1918.71 176.017 1918.71 187.897C1918.71 199.772 1925.19 206.252 1948.41 209.493L1977.02 213.269ZM2284.78 278.066C2284.78 307.759 2256.7 329.897 2213.51 329.897C2192.45 329.897 2180.03 320.178 2180.03 301.818C2180.03 287.781 2188.67 275.904 2216.21 272.126L2263.18 265.644C2271.29 264.568 2279.91 262.945 2284.78 261.325V278.066ZM2239.42 103.665C2158.98 103.665 2120.1 134.443 2116.86 192.214H2196.23C2197.31 177.094 2205.95 165.76 2239.42 165.76C2269.13 165.76 2283.17 175.477 2283.17 190.056C2283.17 203.014 2275.06 207.872 2255.09 210.03L2203.25 215.429C2133.06 222.99 2101.21 252.146 2101.21 305.061C2101.21 354.193 2131.43 391.986 2195.69 391.986C2239.42 391.986 2265.34 377.949 2288.02 349.87V383.889H2362.53V205.172C2362.53 130.125 2318.79 103.665 2239.42 103.665Z"/>
</svg>
