<svg width="194" height="44" viewBox="0 0 194 44" fill="none" xmlns="http://www.w3.org/2000/svg">
<path fill-rule="evenodd" clip-rule="evenodd" d="M58.8674 31.0638V12.1212H63.908L70.2949 26.2768L76.587 12.1212H81.4158V31.0638H77.2593V20.044L72.4636 31.0638H68.033L63.1756 20.104V31.0638H58.8674Z" fill="black" style="fill:black;fill-opacity:1;"/>
<path fill-rule="evenodd" clip-rule="evenodd" d="M98.1432 23.7296L94.6654 15.7002L91.2673 23.7296H98.1432ZM88.1584 31.0638H83.2703L91.6726 12.1212H97.6905L106.153 31.0638H101.328L99.6625 27.2904H89.7725L88.1584 31.0638Z" fill="black" style="fill:black;fill-opacity:1;"/>
<path fill-rule="evenodd" clip-rule="evenodd" d="M108.102 31.0638V12.1212H126.188V15.9088H112.47V19.6711H124.232V23.3678H112.47V27.2746H126.221V31.0638H108.102Z" fill="black" style="fill:black;fill-opacity:1;"/>
<path fill-rule="evenodd" clip-rule="evenodd" d="M134.169 20.819H143.672V15.9088H134.169V20.819ZM129.74 31.0638V12.1212H144.874C146.896 12.1212 148.07 13.2913 148.07 15.2981V21.662C148.07 23.126 146.773 24.4494 144.26 24.4494C144.118 24.4565 143.972 24.4494 143.823 24.4494L148.229 31.0638H143.367L139.189 24.5868H134.169V31.0638H129.74Z" fill="black" style="fill:black;fill-opacity:1;"/>
<path fill-rule="evenodd" clip-rule="evenodd" d="M156.039 31.075H154.539C152.582 31.075 151.639 29.9436 151.639 28.2963V25.8218H156.039V27.2874H165.388V23.4098C165.388 23.4098 156.376 23.4098 154.664 23.4098C152.952 23.4098 151.719 22.2586 151.719 20.6611V15.0375C151.719 13.3357 153.061 12.1332 154.694 12.1332C156.327 12.1332 166.953 12.1332 166.953 12.1332C168.61 12.1332 169.756 13.3696 169.756 15.1575C169.756 16.9431 169.756 17.4179 169.756 17.4179H165.388V15.9207H156.039V19.6514H166.732C168.31 19.6514 169.756 20.6959 169.756 22.7066V28.113C169.756 29.9546 168.735 31.075 166.824 31.075C164.914 31.075 156.039 31.075 156.039 31.075Z" fill="black" style="fill:black;fill-opacity:1;"/>
<path fill-rule="evenodd" clip-rule="evenodd" d="M173.978 31.0749V12.1307H178.469V19.7074L187.023 12.1307H193.103L182.899 20.9305L193.471 31.0749H187.175L178.469 22.4584V31.0749H173.978Z" fill="black" style="fill:black;fill-opacity:1;"/>
<path fill-rule="evenodd" clip-rule="evenodd" d="M35.8452 43.0911C38.5527 43.0911 40.7467 40.8963 40.7467 38.1887V4.9942C40.7467 2.28665 38.5527 0.0910645 35.8452 0.0910645H4.90313C2.1948 0.0910645 0 2.28665 0 4.9942V38.1887C0 40.8963 2.1948 43.0911 4.90313 43.0911H35.8452ZM34.9097 10.3918L26.8692 20.4754L38.4894 26.0714L38.48 26.1109H25.583L28.4517 38.6848L28.4153 38.703L20.3741 28.6194L12.3312 38.703L12.2949 38.6864L15.1652 26.1109H2.26819L2.25792 26.0714L13.879 20.4754L5.83769 10.3918L5.86298 10.3594L17.4832 15.9555L20.3535 3.3808H20.3938L23.2641 15.9555L34.8844 10.3594L34.9097 10.3918Z" fill="black" style="fill:black;fill-opacity:1;"/>
</svg>
