<svg width="62" height="56" viewBox="0 0 62 56" fill="none" xmlns="http://www.w3.org/2000/svg">
<path d="M26.6809 0.0910645C23.771 0.0910645 21.0399 1.26244 18.9805 3.28542V1.26342V0.764219H18.5315H8.46129H8.01229V1.26342V28.8277H7.96733C4.11696 28.8277 1.20732 27.1612 1.20732 27.1612L0 29.4126C0 29.4126 3.22194 31.3968 8.01223 31.3968C12.9362 31.3968 14.9956 29.1882 19.5167 29.1882C24.0832 29.1882 25.6491 31.3968 31.0212 31.3968C36.3486 31.3968 37.9617 29.1882 42.5282 29.1882C47.0941 29.1882 49.1093 31.3968 54.0327 31.3968C58.5502 31.3968 62 29.3697 62 29.3697L60.7902 27.1158C60.7902 27.1158 57.8818 28.8277 54.0327 28.8277V11.0356C54.0327 4.99666 49.1526 0.0910645 43.1992 0.0910645C39.976 0.0910645 37.0219 1.44168 34.9625 3.87285C32.8588 1.44168 29.904 0.0910645 26.6809 0.0910645ZM22.338 9.45732C23.9947 9.45732 25.3364 10.8064 25.3364 12.4752V27.7032C23.6356 27.1624 21.9343 26.6216 19.5168 26.6216H19.3821V12.4752C19.3821 10.8064 20.7267 9.45732 22.338 9.45732ZM39.707 9.45732C41.363 9.45732 42.6629 10.8064 42.6629 12.4752V26.6216H42.5282C40.1107 26.6216 38.4094 27.1624 36.7086 27.7032V12.4752C36.7086 10.8064 38.0503 9.45732 39.707 9.45732ZM19.427 30.764C16.5171 30.764 14.1012 31.532 12.3102 32.7482C10.3403 34.0994 9.22209 36.0364 9.22209 38.4688C9.22209 41.9372 11.7292 44.0086 17.6384 45.45C21.0406 46.2609 21.712 46.5313 21.7568 47.5224C21.7568 47.8375 21.6663 48.0631 21.4425 48.2888C20.9502 48.7841 20.0989 48.9645 19.427 48.9645C19.1584 48.9645 18.3995 48.9188 17.6833 48.5586C17.012 48.1534 16.6078 47.5669 16.4735 46.7559L8.46129 46.8014C8.46129 49.1437 9.75788 51.2605 12.1307 52.8825C14.1901 54.2338 16.83 55.0911 19.2923 55.0911C24.6197 55.0911 30.3502 52.4771 30.3502 46.8014C30.3502 42.4319 26.2329 40.6741 24.9796 40.2689C23.7712 39.8181 22.1588 39.505 20.7266 39.1899C19.6966 38.9642 18.7562 38.7822 18.04 38.557C17.5029 38.422 17.1894 38.0167 17.1894 37.5208C17.1894 36.2146 18.7107 36.0812 19.3821 36.0812C20.7702 36.0812 21.889 37.0707 21.889 38.2419H29.6792C29.6792 33.1064 24.3515 30.764 19.427 30.764ZM42.5282 30.8094C38.9022 30.8094 36.261 32.027 34.1568 34.3693C32.1869 36.5316 31.156 39.5932 31.156 42.9717C31.156 46.3051 32.1869 49.3695 34.1568 51.5311C36.261 53.8741 38.8573 55.0911 42.4833 55.0911C45.793 55.0911 48.7953 54.19 50.6752 52.343C52.376 50.7216 53.4084 48.4236 53.8082 45.4954L53.8556 45.0895H53.4066H45.9307H45.6139L45.5715 45.4046C45.0761 47.5669 43.7825 48.2435 42.6629 48.2435C40.1111 48.2435 39.5274 44.548 39.5274 42.9717C39.5274 41.3503 40.1111 37.657 42.6629 37.657C43.7347 37.657 45.0761 38.379 45.5715 40.5412L45.6139 40.811H45.9307H53.4066H53.8556L53.8082 40.4051C53.4084 37.4769 52.376 35.1789 50.6752 33.5575C48.7953 31.7554 45.7932 30.8094 42.5282 30.8094Z" fill="black" style="fill:black;fill-opacity:1;"/>
</svg>
