<svg width="2336" height="792" viewBox="0 0 2336 792" xmlns="http://www.w3.org/2000/svg">
<path d="M615.546 581.32C609.803 601.003 595.851 632.218 571.627 686.508L543.764 748.417C547.104 747.937 550.498 746.993 554.56 746.993C558.405 746.993 562.991 747.937 566.091 748.417C569.912 734.742 577.605 714.797 585.271 696.34C594.884 695.835 604.51 695.375 614.099 695.375C624.433 695.375 634.522 695.836 644.879 696.34L654.917 721.793L665.024 748.417C669.35 748.177 676.076 746.993 682.781 746.993C689.509 746.993 697.92 748.177 701.524 748.417C690.71 725.129 674.845 688.855 665.737 667.97C657.085 647.83 642.677 614.222 631.166 581.32C628.523 582.041 626.113 582.538 623.494 582.538C620.61 582.538 618.19 582.041 615.546 581.32ZM1210.32 581.32C1204.58 601.003 1190.62 632.218 1166.38 686.508L1138.54 748.417C1141.92 747.937 1145.25 746.993 1149.33 746.993C1153.18 746.993 1157.74 747.937 1160.89 748.417C1164.71 734.742 1172.42 714.797 1180.09 696.34C1189.68 695.835 1199.28 695.375 1208.87 695.375C1219.21 695.375 1229.27 695.836 1239.61 696.34L1249.69 721.793L1259.77 748.417C1264.12 748.177 1270.85 746.993 1277.55 746.993C1284.28 746.993 1292.69 748.177 1296.27 748.417C1285.48 725.129 1269.62 688.855 1260.49 667.97C1251.83 647.83 1237.45 614.222 1225.94 581.32C1223.3 582.041 1220.89 582.538 1218.24 582.538C1215.38 582.538 1212.96 582.041 1210.32 581.32ZM1485.83 581.803C1442.35 581.803 1429.87 608.69 1429.87 629.791C1429.87 649.738 1436.86 662.001 1460.12 672.312C1466.83 675.196 1478.16 679.488 1484.86 682.396C1489.43 684.295 1504.57 690.999 1504.57 709.985C1504.57 727.289 1492.04 740.032 1473.1 740.032C1458.92 740.032 1446.92 736.429 1435.89 712.42H1432.51C1431.33 723.932 1431.08 727.054 1427 739.527C1435.65 743.853 1451.26 751.794 1471.88 751.794C1515.84 751.794 1532.87 723.725 1532.87 699.212C1532.87 692.482 1531.2 678.301 1521.13 667.51C1514.16 659.82 1506.95 657.193 1488.47 649.983C1467.37 641.812 1455.09 636.997 1455.09 619.477C1455.09 605.321 1464.45 593.541 1483.41 593.541C1498.53 593.541 1511.3 600.771 1514.88 614.446H1518.24C1520.4 605.337 1520.87 603.411 1525.68 591.635C1513.9 586.371 1503.35 581.803 1485.83 581.803ZM720.153 583.709C722.557 606.973 722.565 624.045 722.565 639.186C722.565 680.235 722.567 719.866 719.924 748.417C725.235 748.201 731.935 746.993 737.198 746.993C742.725 746.993 748.485 748.201 754.012 748.417C752.089 728.974 751.623 703.042 751.623 667.281C751.623 643.007 751.621 601.494 754.264 583.709C748.497 584.43 742.508 585.179 737.197 585.179C733.617 585.179 724.695 584.214 720.153 583.709ZM794.784 583.709C796.442 614.688 796.438 618.041 796.438 649.5C796.438 695.812 796.2 701.12 794.302 748.417C799.589 747.72 805.361 746.993 810.841 746.993C816.873 746.993 822.137 747.936 826.943 748.417C826.943 742.193 825.978 711.212 825.978 704.242V670.152H831.744C844.721 688.393 859.571 709.514 871.827 728.5C875.432 734.004 880.718 742.913 884.323 748.417C891.533 747.456 894.43 746.993 903.802 746.993C912.429 746.993 918.437 747.72 925.142 748.417C910.026 729.479 903.513 721.063 884.576 694.41C880.971 689.363 875.685 681.423 872.08 676.4L865.35 666.798C887.218 662.713 907.133 648.999 907.133 622.371C907.133 612.277 903.292 602.44 896.107 595.471C885.797 585.641 874.009 583.709 858.412 583.709C852.885 583.709 825.013 584.904 818.789 584.904C806.532 584.904 800.288 584.214 794.784 583.709ZM920.547 583.709C930.4 609.641 938.774 632.66 945.286 650.925C956.341 682.144 963.533 703.79 972.185 730.154L978.157 748.417C981.521 747.72 985.344 746.993 988.011 746.993C990.655 746.993 993.069 747.456 997.131 748.417C1000.98 735.944 1005.55 720.574 1008.94 710.72C1018.26 683.347 1019.47 679.513 1031.72 645.435L1038.91 625.518C1041.56 633.184 1046.13 645.44 1048.75 653.107C1051.39 660.557 1063.64 697.289 1066.52 705.46C1070.37 716.251 1071.32 719.361 1080.21 748.417C1082.38 748.177 1086.9 746.993 1090.53 746.993C1093.89 746.993 1096.53 747.72 1100.13 748.417C1109.26 719.866 1110.22 716.989 1123.65 678.56C1136.87 641.092 1145.02 619.735 1159.42 583.709C1155.81 584.671 1152.25 585.156 1148.62 585.156C1144.05 585.156 1140.24 584.43 1137.59 583.709C1128.94 614.928 1124.65 630.075 1117.68 650.695C1106.38 684.293 1104.94 688.136 1097.99 706.402C1090.3 685.757 1082.84 664.859 1075.87 643.758C1072.05 632.222 1057.37 584.214 1057.15 583.709C1053.81 584.43 1051.39 585.156 1046.59 585.156C1042.31 585.156 1039.14 584.214 1036.04 583.709C1028.83 613.005 1003.37 683.603 1000.97 690.092L994.971 705.69L990.4 692.251C979.154 658.869 963.532 612.044 956.082 583.709C950.075 584.671 944.818 585.156 939.291 585.156C933.524 585.156 925.354 584.214 920.547 583.709ZM1271.74 583.709C1284.21 604.594 1304.62 637.725 1316.86 658.85L1331.03 683.361C1331.03 698.262 1330.3 729.695 1329.6 748.417C1334.15 747.937 1340.88 746.993 1345.66 746.993C1351.19 746.993 1356.74 747.937 1362.27 748.417C1361.28 726.09 1360.55 713.128 1360.55 692.94V684.073C1360.55 681.934 1361.99 679.286 1363.67 676.378C1373.76 659.098 1383.13 641.075 1393.94 623.795C1397.53 618.027 1415.05 590.198 1418.68 583.709C1416.02 584.671 1413.38 585.179 1408.6 585.179C1403.29 585.179 1398.48 584.43 1394.63 583.709C1377.35 621.658 1373.5 629.805 1353.13 664.869C1332.72 629.108 1323.59 610.146 1311.09 583.709C1304.15 584.911 1297.17 585.179 1291.43 585.179C1286.14 585.179 1280.61 584.671 1271.74 583.709ZM843.045 595.471C850.952 595.471 858.909 596.683 865.349 601.49C873.76 607.714 875.433 616.366 875.433 626.46C875.433 642.033 866.57 659.608 842.563 659.608C836.315 659.608 830.544 659.091 825.978 658.85V596.688C829.583 596.424 838.479 595.471 843.045 595.471ZM615.317 622.371L637.873 681.431C630.448 681.936 623.249 682.396 615.799 682.396C607.388 682.396 599.241 681.672 590.83 681.431L615.317 622.371ZM1210.07 622.371L1232.67 681.431C1225.22 681.936 1218.02 682.396 1210.55 682.396C1202.16 682.396 1193.99 681.672 1185.6 681.431L1210.07 622.371Z"/>
<path d="M806.407 -0.00390625C789.104 59.0933 747.346 152.738 674.603 315.514L591.013 501.356C601.107 499.938 611.193 497.037 623.425 497.037C634.936 497.037 648.67 499.938 658.018 501.356C669.529 460.283 692.629 400.501 715.651 345.032C744.441 343.614 773.252 342.184 802.065 342.184C833.042 342.184 863.291 343.614 894.292 345.032L924.498 421.414L954.773 501.356C967.726 500.635 987.926 497.037 1008.06 497.037C1028.27 497.037 1053.43 500.635 1064.27 501.356C1031.85 431.491 984.305 322.715 956.909 260.037C930.979 199.546 887.778 98.6758 853.221 -0.00390625C845.29 2.1831 838.088 3.6256 830.181 3.6256C821.53 3.6256 814.313 2.18313 806.407 -0.00390625ZM1608.3 -0.00390625C1591.05 59.0933 1549.24 152.738 1476.48 315.514L1392.96 501.356C1403.03 499.938 1413.14 497.037 1425.37 497.037C1436.88 497.037 1450.56 499.938 1459.96 501.356C1471.5 460.283 1494.5 400.501 1517.55 345.032C1546.34 343.614 1575.17 342.184 1604.01 342.184C1634.99 342.184 1665.24 343.614 1696.19 345.032L1726.44 421.414L1756.69 501.356C1769.65 500.635 1789.84 497.037 1810.01 497.037C1830.17 497.037 1855.38 500.635 1866.19 501.356C1833.77 431.491 1786.22 322.715 1758.85 260.037C1732.92 199.546 1689.7 98.6758 1655.14 -0.00390625C1647.21 2.1831 1640.01 3.6256 1632.1 3.6256C1623.45 3.6256 1616.23 2.18313 1608.3 -0.00390625ZM270.852 1.4662C125.389 1.4662 0.053688 82.1269 0.0537109 265.091C0.0537109 303.952 8.70707 377.452 69.1947 438.688C131.869 502.088 206.041 511.44 268.716 511.44C276.622 511.44 284.536 511.447 292.49 510.751L457.418 639.692C479.022 624.551 512.889 605.826 537.378 595.012L374.609 494.142C474.701 458.862 537.378 369.52 537.378 247.793C537.378 74.9471 405.549 1.4662 270.852 1.4662ZM1034.5 7.23207C1036.69 15.884 1038.11 25.2275 1038.11 33.8794C1038.11 42.5312 1036.69 51.8758 1034.5 60.5037C1071.27 56.9228 1140.41 55.4728 1146.87 55.4728H1182.91C1183.64 83.5916 1184.34 108.785 1184.34 135.438L1185.07 336.395C1185.07 391.166 1180.77 446.632 1177.86 501.355C1203.79 498.496 1214.6 497.037 1226.83 497.037C1235.49 497.037 1258.53 499.217 1279.44 501.355C1277.25 481.216 1274.38 457.415 1274.38 402.692V136.173C1274.38 108.799 1275.09 81.4286 1275.81 55.4728C1325.5 55.4728 1376.68 56.2017 1419.17 60.5037C1417 48.9918 1415.56 42.5224 1415.56 34.5914C1415.56 28.8236 1417 19.4409 1419.17 7.23207C1350.03 10.813 1286.62 11.5279 1226.83 11.5279C1171.37 11.5279 1091.41 10.8131 1034.5 7.23207ZM1944.5 7.23207C1949.52 100.144 1949.53 110.206 1949.53 204.56C1949.53 343.615 1948.8 359.44 1943.05 501.355C1958.89 499.217 1976.18 497.037 1992.74 497.037C2010.74 497.037 2026.6 499.938 2041 501.355C2041 482.61 2038.13 389.717 2038.13 368.808V266.515H2055.42C2094.31 321.262 2139 384.673 2175.72 441.583C2186.51 458.166 2202.35 484.821 2213.14 501.355C2234.77 498.496 2243.41 497.037 2271.48 497.037C2297.41 497.037 2315.43 499.217 2335.59 501.355C2290.22 444.469 2270.8 419.247 2213.87 339.289C2203.06 324.149 2187.22 300.377 2176.41 285.26L2156.26 256.476C2221.8 244.219 2281.59 203.176 2281.59 123.194C2281.59 92.9361 2270.05 63.4005 2248.42 42.5397C2217.47 13.0031 2182.17 7.23207 2135.36 7.23207C2118.78 7.23207 2035.26 10.8157 2016.51 10.8157C1979.77 10.8157 1961.03 8.65009 1944.5 7.23207ZM269.451 38.1751C387.566 38.1751 438.697 136.155 438.697 240.603C438.697 300.373 431.479 356.581 401.944 401.979C372.409 447.33 323.466 474.708 270.14 474.708C136.909 474.708 98.7116 347.911 98.7116 268.674C98.7116 87.1765 195.962 38.1751 269.451 38.1751ZM2089.26 42.5397C2113.03 42.5397 2136.77 46.1079 2156.26 60.5037C2181.45 79.2495 2186.49 105.156 2186.49 135.438C2186.49 182.254 2159.86 234.86 2087.83 234.86C2069.09 234.86 2051.8 233.373 2038.13 232.7V46.1234C2048.92 45.4264 2075.56 42.5397 2089.26 42.5397ZM805.695 123.194L873.389 300.398C851.039 301.864 829.446 303.293 807.073 303.293C781.888 303.293 757.398 301.119 732.213 300.398L805.695 123.194ZM1607.59 123.194L1675.31 300.398C1652.98 301.864 1631.36 303.293 1609.04 303.293C1583.81 303.293 1559.34 301.119 1534.11 300.398L1607.59 123.194ZM2160.49 583.709C2149.8 583.709 2146.89 588.406 2146.89 597.01C2146.89 605.614 2150.71 608.611 2160.49 608.611C2170.37 608.611 2177.3 604.821 2177.3 597.01C2177.3 589.247 2172.72 583.709 2160.49 583.709ZM2198.53 583.709C2187.76 583.709 2184.91 588.406 2184.91 597.01C2184.91 605.614 2188.58 608.611 2198.53 608.611C2208.33 608.611 2215.23 604.821 2215.23 597.01C2215.23 589.247 2210.64 583.709 2198.53 583.709ZM1601.18 585.961C1590.39 585.961 1587.52 590.681 1587.52 599.261C1587.52 607.913 1591.26 610.931 1601.18 610.931C1610.99 610.931 1617.91 607.072 1617.91 599.261C1617.91 591.426 1613.32 585.961 1601.18 585.961ZM1637.82 585.961C1626.98 585.961 1624.13 590.681 1624.13 599.261C1624.13 607.913 1627.87 610.931 1637.82 610.931C1647.72 610.931 1654.41 607.072 1654.41 599.261C1654.41 591.426 1649.88 585.961 1637.82 585.961ZM1910.11 586.902C1910.11 586.902 1893.45 598.598 1881.22 607.899C1869.01 617.199 1881.22 623.451 1881.22 623.451V722.482H1846.28L1845.54 637.486C1845.54 637.486 1821.23 655.257 1814.26 660.665C1807.46 666.048 1811.23 670.842 1818.85 670.842C1818.85 670.842 1817.45 733.59 1817.45 748.394C1817.45 763.295 1805.11 780.322 1779.23 772.584C1779.23 772.584 1771.02 774.17 1777.85 780.371C1784.65 786.547 1792.86 791.26 1802.06 791.26C1811.22 791.26 1844.76 784.924 1844.76 748.394H2284.48V589.981C2284.48 589.981 2258.6 607.074 2253.27 611.712C2247.91 616.35 2249.47 621.924 2256.37 621.107V722.482H2218.42V630.434C2218.42 630.434 2210.64 633.396 2200 638.107C2189.45 642.889 2151.3 658.407 2151.3 679.364V703.576H2190.17V722.482H2097.94C2098.01 718.036 2098.1 711.488 2098.1 701.899C2098.1 671.69 2072.38 655.243 2049.47 655.243H1942.84C1924.17 655.243 1915.16 659.77 1910.11 664.938L1910.11 586.902ZM2334.77 590.073C2334.77 590.073 2308.81 607.213 2303.55 611.827C2298.19 616.465 2299.76 622.014 2306.56 621.245V748.578H2334.77V590.073ZM1666.07 603.971C1666.07 603.971 1634.76 632.746 1631.83 636.568C1628.8 640.653 1639.27 644.355 1639.27 644.355L1637.5 655.588C1637.5 655.588 1625.03 662.051 1609.89 672.289C1594.85 682.407 1583.68 695.325 1583.68 704.265C1583.68 713.23 1579.89 748.394 1579.89 748.394H1779.04V654.256C1779.04 654.256 1761.05 664.605 1749.66 674.747C1738.34 684.792 1751.98 688.599 1751.98 688.599V722.482H1666.07L1666.07 603.971ZM2190.17 667.648V683.223H2171.91C2171.91 673.201 2190.17 667.648 2190.17 667.648ZM1932.14 682.419H2048.67C2073.83 682.419 2069.94 695.662 2069.94 704.265C2069.94 708.88 2069.72 716.402 2069.5 722.482H1910.11V694.457C1914.27 683.666 1921.28 682.419 1932.14 682.419ZM1638.56 684.785V722.482H1608.95C1608.95 722.482 1604.96 704.252 1615.68 697.282C1626.44 690.216 1638.56 684.785 1638.56 684.785ZM1693.29 758.594C1682.58 758.594 1679.63 763.175 1679.63 771.803C1679.63 780.358 1683.42 783.495 1693.29 783.495C1703.1 783.495 1710.04 779.589 1710.04 771.803C1710.04 763.944 1705.53 758.594 1693.29 758.594ZM1731.36 758.594C1720.64 758.594 1717.71 763.175 1717.71 771.803C1717.71 780.358 1721.6 783.495 1731.36 783.495C1741.31 783.495 1748.15 779.589 1748.15 771.803C1748.15 763.944 1743.64 758.594 1731.36 758.594Z"/>
</svg>
