<svg width="1241" height="710" viewBox="0 0 1241 710" xmlns="http://www.w3.org/2000/svg">
<path d="M644.99 709.28H843.58L644.99 0V709.28Z M992.551 0H670.961L843.591 616.56V506.63H992.561C1129.67 506.63 1240.85 393.22 1240.85 253.33C1240.85 113.44 1129.66 0 992.551 0ZM992.551 303.97H843.581V202.63H992.551C1019.94 202.63 1042.23 225.32 1042.23 253.33C1042.23 281.34 1019.94 303.97 992.551 303.97Z M495.969 0H347.059L148.439 709.28H347.029V202.63H495.969V0Z M148.44 616.57L321.09 0H0V202.63H148.44V616.57Z M520.969 0V202.63V227.63H503.339L548.169 379.98H443.879L488.659 227.63H372.029V624.37L384.309 582.63H607.089V580.29L619.989 624.16V0H520.969Z"/>
</svg>
