<svg width="120" height="49" viewBox="0 0 120 49" fill="none" xmlns="http://www.w3.org/2000/svg">
<path d="M13.8255 17.3114C11.8227 17.5597 10.057 17.1095 8.5283 15.9607C8.28393 15.7774 8.07143 15.5609 7.89081 15.3113C6.04806 12.7533 5.72333 10.0978 7.39077 7.37845C7.4605 7.2649 7.53421 7.22904 7.63183 7.14936C7.68525 7.10509 7.72524 7.04716 7.74737 6.98201C7.80913 6.79077 8.00038 6.76686 8.14182 6.64534C10.543 4.5788 13.263 3.05015 16.3017 2.05938C16.4744 2.0036 16.6477 1.95446 16.8217 1.91196C17.2022 1.82032 17.5289 1.63704 17.9154 1.5952C18.1837 1.56466 18.4606 1.50688 18.7461 1.42188C18.9174 1.3681 19.1366 1.4179 19.28 1.28841C19.2932 1.27652 19.308 1.26647 19.3238 1.25853C19.4155 1.21868 19.4839 1.21935 19.529 1.26052C19.5702 1.29638 19.6167 1.30568 19.6685 1.28841C19.9952 1.1795 20.3352 1.12837 20.6885 1.13501C20.741 1.13631 20.7932 1.12681 20.8419 1.10712C20.9521 1.06595 21.0723 1.04072 21.2024 1.03142C23.3805 0.869391 25.388 0.92318 27.2248 1.19279C27.2314 1.19279 27.4406 1.23529 27.8523 1.32028C28.0555 1.36146 28.2613 1.39931 28.4699 1.43384C29.1339 1.54141 30.3046 1.88008 31.982 2.44984C32.0817 2.48371 32.1155 2.53152 32.2012 2.58332C32.2503 2.61386 32.3034 2.62847 32.3606 2.62714C32.3938 2.62714 32.425 2.63113 32.4542 2.6391C32.575 2.67363 32.5731 2.68425 32.4482 2.67097C30.3803 2.45582 28.6153 3.09397 27.153 4.58544C26.5534 5.19903 25.9677 5.81859 25.5135 6.56565C25.0221 7.3758 24.5466 8.20188 24.0871 9.0439C23.2836 10.5181 22.3048 11.9186 21.1506 13.2454C19.7429 14.8617 18.0967 16.0729 16.2121 16.8791C16.1443 16.9083 16.074 16.9169 16.0009 16.905C15.8495 16.8811 15.7067 16.8963 15.5726 16.9508C15.1928 17.1049 14.7996 17.1919 14.3932 17.2118C14.3287 17.2156 14.2669 17.2416 14.2179 17.2855C14.1356 17.3585 14.0466 17.3731 13.951 17.3293C13.9111 17.312 13.8693 17.3061 13.8255 17.3114Z" fill="black" style="fill:black;fill-opacity:1;"/>
<path d="M39.7258 7.32258C39.9609 7.55168 40.2876 7.77481 40.4569 8.04176C40.5247 8.148 40.5007 8.17457 40.3852 8.12144C39.6773 7.79473 38.921 7.58289 38.1161 7.48594C37.8133 7.45008 37.5005 7.34184 37.1778 7.16122C34.0528 5.41476 30.6907 4.85363 27.0915 5.47784C27.0118 5.49245 26.9985 5.46921 27.0516 5.40812C29.1872 2.95111 31.8235 2.47499 34.9605 3.97973C35.1359 4.0634 35.3171 4.05942 35.4765 4.15106C37.0915 5.08339 38.5079 6.14057 39.7258 7.32258Z" fill="black" style="fill:black;fill-opacity:1;"/>
<path d="M62.554 11.1875H69.0286C69.055 11.1875 69.0803 11.198 69.099 11.2166C69.1177 11.2353 69.1282 11.2607 69.1282 11.2871V16.7157C69.1282 16.7821 69.095 16.8153 69.0286 16.8153H62.5022C62.4753 16.8153 62.4495 16.826 62.4304 16.8451C62.4114 16.8641 62.4007 16.89 62.4007 16.9169C62.4113 21.2851 62.4093 25.784 62.3947 30.4138C62.3933 30.9145 62.4783 31.3316 62.6497 31.6649C62.9804 32.309 63.5461 32.7241 64.347 32.91C65.3072 33.1318 66.3113 33.0734 67.3591 32.7347C68.2012 32.4624 69.0532 32.1636 69.9151 31.8382C69.9271 31.8338 69.94 31.8322 69.9526 31.8338C69.9653 31.8353 69.9775 31.8399 69.988 31.8471C69.9986 31.8544 70.0072 31.864 70.0133 31.8753C70.0193 31.8866 70.0225 31.8992 70.0227 31.9119L70.0247 37.8366C70.0247 37.915 69.9868 37.9641 69.9111 37.9841C69.1767 38.1886 68.4522 38.3659 67.7377 38.516C63.2194 39.4722 57.8187 37.8765 56.6871 32.8044C56.5835 32.3383 56.4859 31.8203 56.4859 31.3482C56.474 22.4126 56.4726 13.5156 56.4819 4.65715C56.4819 4.63337 56.4914 4.61057 56.5082 4.59376C56.525 4.57694 56.5478 4.5675 56.5716 4.5675L62.305 4.56152C62.3714 4.56152 62.4046 4.59539 62.4046 4.66312V11.038C62.4046 11.1377 62.4544 11.1875 62.554 11.1875Z" fill="black" style="fill:black;fill-opacity:1;"/>
<path d="M0 27.1786V21.8436C0.108905 21.562 0.177967 21.2652 0.207185 20.9531C0.244372 20.54 0.285543 20.2426 0.330699 20.0606C0.43562 19.6276 0.533236 19.1933 0.623547 18.7577C0.77628 18.0166 1.17139 16.8472 1.80888 15.2495C1.83146 15.1937 1.86931 15.1499 1.92244 15.118C1.98087 15.0835 2.00212 15.0291 1.98619 14.9547C1.97715 14.92 1.98067 14.8827 1.99615 14.8491C2.43575 13.8929 2.93579 12.9619 3.49625 12.0561C3.59453 11.8967 3.6357 11.91 3.61976 12.0959C3.42254 14.3969 4.43655 17.425 6.35102 19.0406C6.40149 19.0831 6.45992 19.111 6.52633 19.1243C6.59273 19.1376 6.65316 19.1641 6.70762 19.204C7.70237 19.9437 8.78279 20.4976 9.94887 20.8654C11.2597 21.2785 12.6038 21.4684 13.981 21.4352C14.8615 21.4153 15.8218 21.2904 16.8617 21.0607C16.892 21.0527 16.921 21.0393 16.9473 21.0208C17.0363 20.9531 17.1173 20.9577 17.1904 21.0348C17.2435 21.0919 17.3086 21.1145 17.3856 21.1025C17.622 21.0653 17.8538 21.0056 18.0809 20.9232C21.2723 19.7717 24.3243 17.4349 26.6492 14.8451C26.863 14.6074 27.3199 13.9779 28.0198 12.9565C28.9455 11.6072 30.1248 10.4484 31.5579 9.48022C32.4079 8.90648 33.471 8.46953 34.7473 8.16938C37.4766 7.5279 40.5206 8.00403 42.3116 10.2113C42.6184 10.5879 42.9849 10.9823 43.1722 11.4325C43.7579 12.8417 44.1165 14.3444 44.248 15.9408C44.2559 16.051 44.244 16.0537 44.2121 15.9488C43.6702 14.2156 42.6761 12.9127 41.2298 12.0402C40.2656 11.4584 39.2841 11.1888 38.2854 11.2313C37.1472 11.2778 36.1073 11.651 35.1657 12.3509C34.1696 13.0907 33.2585 14.027 32.4324 15.1599C31.2597 16.7669 30.2271 18.3918 29.3346 20.0347C29.2669 20.1582 29.2649 20.2977 29.1892 20.4391C27.8704 22.9054 26.5403 25.3803 25.1989 27.8639C25.171 27.913 25.1331 27.9522 25.0853 27.9814C25.0561 27.9987 25.0289 28.0173 25.0036 28.0372C24.9744 28.0598 24.9512 28.087 24.9339 28.1189C24.4093 29.0446 23.8748 29.9643 23.3302 30.8781C22.6144 32.0813 21.8421 33.2507 21.0133 34.3863C19.7025 36.1792 18.2044 37.7172 16.519 39.0001C16.4709 39.0366 16.4121 39.0587 16.3497 39.0639C16.2461 39.0718 16.1306 39.0878 16.0429 39.1475C12.7498 41.4146 8.85517 41.6377 5.51829 39.3109C5.12185 39.034 4.8051 38.6555 4.43057 38.3546C4.27917 38.2338 4.14636 38.0884 4.03214 37.9184C1.84209 34.7017 0.498041 31.1218 0 27.1786Z" fill="black" style="fill:black;fill-opacity:1;"/>
<path d="M4.84284 16.0802C4.17347 14.5642 3.8866 13.0043 4.2173 11.3648C4.3023 10.9451 4.49155 10.552 4.78507 10.1854C5.21139 9.6515 5.64767 9.13553 6.09392 8.63749C6.21212 8.50468 6.24067 8.52128 6.17958 8.68729C5.45045 10.6615 5.74927 12.7752 6.84098 14.6279C6.85429 14.6503 6.86295 14.6751 6.86644 14.701C6.86994 14.7268 6.8682 14.7531 6.86133 14.7783C6.85447 14.8036 6.84261 14.8272 6.82645 14.8479C6.8103 14.8686 6.79018 14.886 6.76727 14.8989C6.09923 15.2774 5.5215 15.7289 5.03409 16.2535C5.01988 16.269 4.99998 16.2781 4.97871 16.2789C4.95744 16.2796 4.93653 16.2719 4.92053 16.2575C4.8953 16.2349 4.87936 16.2064 4.87272 16.1719C4.86608 16.1413 4.85612 16.1108 4.84284 16.0802Z" fill="black" style="fill:black;fill-opacity:1;"/>
<path d="M101.154 37.4242V47.2436C101.154 47.3113 101.12 47.3452 101.052 47.3452L95.3827 47.3432C95.3685 47.3432 95.3548 47.3375 95.3447 47.3275C95.3346 47.3174 95.3289 47.3037 95.3289 47.2894C95.3236 39.516 95.3236 31.6284 95.3289 23.6265C95.3289 21.9704 95.5541 20.3188 96.0043 18.672C96.4957 16.8697 97.3364 15.3437 98.5264 14.094C100.457 12.068 103.272 11.1575 106.111 10.9623C108.696 10.785 111.324 11.0022 113.673 11.9903C118.713 14.1099 120.004 19.2497 120 24.2999C119.999 25.952 119.816 27.5411 119.452 29.0671C119.259 29.8746 118.966 30.6834 118.572 31.4936C117.364 33.9678 115.386 35.693 112.711 36.5457C111.291 36.9972 109.728 37.2356 108.021 37.2609C105.767 37.2954 103.528 37.3001 101.303 37.2748C101.204 37.2748 101.154 37.3246 101.154 37.4242ZM113.924 21.224C113.675 19.698 112.978 18.3254 111.647 17.5883C110.256 16.8193 108.814 16.6579 107.226 16.7057C104.156 16.7974 101.991 17.9548 101.415 21.1263C101.246 22.0587 101.161 22.981 101.158 23.8935C101.151 26.3943 101.15 28.8772 101.154 31.3422C101.154 31.4165 101.191 31.4537 101.266 31.4537C103.465 31.4643 105.776 31.4617 108.198 31.4457C109.076 31.4404 109.927 31.2957 110.75 31.0115C112.27 30.4868 113.246 29.4702 113.679 27.9615C114.29 25.8298 114.286 23.4472 113.924 21.224Z" fill="black" style="fill:black;fill-opacity:1;"/>
<path d="M91.0339 12.2772C91.6714 12.4911 92.19 12.6737 92.5898 12.8251C92.6854 12.861 92.7332 12.93 92.7332 13.0323L92.7352 18.8574C92.7352 18.953 92.6901 18.9835 92.5998 18.949C91.7697 18.6316 90.8905 18.3082 89.9621 17.9788C88.0842 17.3134 86.2302 16.9748 84.4 16.9628C83.2977 16.9562 82.291 17.0923 81.3799 17.3712C79.1327 18.0625 77.9952 19.8574 77.6247 22.0628C77.2887 24.0709 77.2986 26.0677 77.6546 28.0532C78.0032 30.0015 79.077 31.6889 80.9018 32.4081C81.603 32.6843 82.3361 32.857 83.1011 32.926C85.3005 33.1252 87.4872 32.8477 89.6613 32.0933C90.5923 31.7706 91.5619 31.3914 92.5699 30.9558C92.6801 30.908 92.7352 30.9438 92.7352 31.0634L92.7332 36.9004C92.7332 36.9947 92.6894 37.0598 92.6018 37.0956C88.7449 38.684 84.993 39.1881 81.346 38.6077C77.3312 37.9689 74.5136 35.8977 72.8933 32.3941C71.9968 30.4538 71.536 28.1269 71.5107 25.4136C71.5094 25.2927 71.4981 25.1705 71.4769 25.047C71.445 24.8578 71.5028 24.7522 71.5047 24.5669C71.5366 21.7593 72.0194 19.364 72.9531 17.3812C74.4611 14.1818 77.2163 12.2294 80.6767 11.4724C84.0195 10.7433 87.713 11.1656 91.0339 12.2772Z" fill="black" style="fill:black;fill-opacity:1;"/>
<path d="M17.7084 18.4331C17.3432 18.0692 16.96 17.7285 16.559 17.4111C16.4846 17.354 16.4906 17.3062 16.5769 17.2677C19.099 16.1361 20.7644 14.5304 22.5155 12.3729C22.57 12.3078 22.6238 12.3078 22.6769 12.3729L25.197 15.411C25.2262 15.446 25.241 15.4909 25.2384 15.5367C25.2358 15.5825 25.216 15.6258 25.183 15.658C23.4273 17.3712 21.4683 18.7824 19.3062 19.8913C19.2331 19.9285 19.178 19.9099 19.1408 19.8356C19.0319 19.6124 18.8665 19.4517 18.6448 19.3534C18.5943 19.3309 18.5551 19.295 18.5272 19.2459C18.4249 19.0652 18.2935 18.8999 18.1328 18.7498C17.9893 18.6144 17.8559 18.5805 17.7084 18.4331Z" fill="black" style="fill:black;fill-opacity:1;"/>
<path d="M47.1548 22.8975C47.1667 22.928 47.18 22.9593 47.1946 22.9911C47.2079 23.0217 47.2145 23.0542 47.2145 23.0887C47.2145 23.9268 47.2145 24.7422 47.2145 25.5351C47.2145 25.8698 47.1853 26.2629 47.1269 26.7145C47.0764 27.1076 47.0412 27.5027 47.0213 27.8998C47.0107 28.1136 46.9755 28.3095 46.9157 28.4875C46.8679 28.6323 46.84 28.7837 46.832 28.9417C46.8241 29.0865 46.8008 29.2313 46.7623 29.376C46.6348 29.8475 46.5193 30.3216 46.4157 30.7984C46.3997 30.8715 46.3552 30.9153 46.2822 30.9299C44.9992 31.1749 43.3497 30.9199 41.9672 30.5952C40.3754 30.2187 38.8096 29.7227 37.1999 29.5712C33.3418 29.2087 30.2851 30.7008 28.03 34.0476C27.9928 34.1034 27.9616 34.1008 27.9364 34.0397C27.1873 32.2202 26.3659 30.4657 25.4721 28.7764C25.4433 28.7231 25.4282 28.6636 25.4282 28.6031C25.4282 28.5425 25.4433 28.483 25.4721 28.4297L29.6476 20.6523C29.6547 20.639 29.6652 20.6279 29.6782 20.6203C29.6911 20.6126 29.7059 20.6086 29.721 20.6088C29.736 20.6091 29.7507 20.6134 29.7634 20.6214C29.7761 20.6295 29.7864 20.6408 29.7931 20.6543C29.8754 20.8124 29.9903 20.9565 30.1377 21.0866C30.4936 21.4014 30.8376 21.7248 31.1696 22.0568C31.4266 22.3118 31.7016 22.4971 31.9645 22.7341C32.9407 23.6094 33.9939 24.3066 35.1241 24.8259C35.9887 25.2224 36.9808 25.4793 37.941 25.4395C39.552 25.3731 40.9538 24.8093 42.1465 23.7482C42.1783 23.7189 42.2149 23.7003 42.256 23.6924C42.3052 23.6817 42.3444 23.6565 42.3736 23.6167C42.5356 23.3936 42.7083 23.183 42.8915 22.9852C43.2959 22.5469 43.5868 22.0249 43.8816 21.5189C43.9972 21.3177 43.9852 21.1046 44.0928 20.9014C44.4262 20.2825 44.6347 19.6323 44.7184 18.951C44.9388 17.1421 44.808 15.2622 44.3259 13.3112C44.3232 13.3006 44.3266 13.2933 44.3359 13.2893L44.3857 13.2734C44.3963 13.2694 44.4036 13.2727 44.4076 13.2833C44.6493 13.8385 44.8996 14.3817 45.1586 14.9129C45.4203 15.4508 45.6487 16.0006 45.8439 16.5624C46.3433 17.9968 46.7132 19.4451 46.9536 20.9073C47.0306 21.3708 47.0751 21.8357 47.087 22.3018C47.0897 22.3815 47.1143 22.4539 47.1607 22.519C47.2232 22.6053 47.2258 22.6903 47.1687 22.774C47.1422 22.8125 47.1375 22.8537 47.1548 22.8975Z" fill="black" style="fill:black;fill-opacity:1;"/>
<path d="M25.4658 48.2417H21.5253C21.1627 48.1182 20.7835 48.0511 20.3877 48.0405C20.1633 48.0339 19.9621 48.0013 19.7841 47.9429C19.646 47.8977 19.4999 47.8705 19.3458 47.8612C19.1984 47.8546 19.0537 47.836 18.9116 47.8054C13.9856 46.7748 9.79275 44.438 6.33303 40.795C6.31709 40.7791 6.31643 40.7631 6.33104 40.7472L6.33303 40.7452C6.34897 40.7279 6.36623 40.7266 6.38483 40.7412C8.47925 42.3389 10.8088 43.5541 13.3733 44.3869C14.8807 44.8756 16.1703 45.0967 17.2421 45.0503C21.4536 44.869 24.3043 42.3847 26.0714 38.7391C26.5163 37.8227 26.9685 36.8445 27.428 35.8046C27.5316 35.5656 27.7587 35.4321 27.8743 35.2309C28.3564 34.4021 28.8883 33.6591 29.47 33.0017C32.0419 30.0931 35.6238 29.4556 39.3452 30.4616C41.5664 31.0613 43.7738 31.639 46.1046 31.4637C46.1843 31.4584 46.2115 31.4936 46.1863 31.5693C44.5487 36.6706 41.6275 40.7405 37.4227 43.7793C33.9338 46.2987 29.9481 47.7862 25.4658 48.2417Z" fill="black" style="fill:black;fill-opacity:1;"/>
<path d="M19.5014 41.319C19.5186 41.3097 19.5319 41.2971 19.5412 41.2812C19.5558 41.2586 19.5757 41.2486 19.601 41.2513C20.1415 41.3084 20.6157 41.2752 21.0234 41.1517C21.1841 41.1025 21.3508 41.072 21.5234 41.06C21.7173 41.0441 21.9159 41.0009 22.1191 40.9306C22.4325 40.8203 22.7207 40.724 22.9837 40.6417C23.2925 40.5461 23.5455 40.3588 23.8463 40.2791C23.9539 40.2499 24.0588 40.2028 24.161 40.1377C24.3682 40.0035 24.5748 39.9033 24.7806 39.8369C24.8669 39.8076 24.8862 39.8322 24.8384 39.9106C22.9996 42.8689 20.368 44.5583 16.8418 44.5503C15.8391 44.5477 14.5701 44.2794 13.0348 43.7455C11.1555 43.092 9.34865 42.185 7.61413 41.0242C7.5225 40.9631 7.52914 40.9491 7.63406 40.9823C10.277 41.8137 12.8011 41.5627 15.2063 40.2293C15.266 40.1961 15.3258 40.1961 15.3856 40.2293C15.521 40.3037 15.6631 40.3654 15.8119 40.4146C15.9593 40.4624 16.0988 40.5248 16.2302 40.6018C16.4241 40.7161 16.6287 40.8011 16.8438 40.8568C17.0895 40.9206 17.3014 40.9817 17.4793 41.0401C17.9787 41.2061 18.4834 41.2805 18.9934 41.2632C19.1249 41.2579 19.2451 41.2785 19.354 41.325C19.4044 41.3463 19.4536 41.3443 19.5014 41.319Z" fill="black" style="fill:black;fill-opacity:1;"/>
</svg>
