<svg width="25" height="25" viewBox="0 0 25 25" xmlns="http://www.w3.org/2000/svg"><path d="M19.1071 2.67851H13.8393V7.1428H21.6741L19.9219 3.20864C19.7768 2.88498 19.4587 2.67851 19.1071 2.67851ZM22.3214 9.82137H2.67857V21.4285C2.67857 21.9196 3.08036 22.3214 3.57143 22.3214H21.4286C21.9196 22.3214 22.3214 21.9196 22.3214 21.4285V9.82137ZM3.32589 7.1428H11.1607V2.67851H5.89286C5.54129 2.67851 5.21763 2.88498 5.07812 3.20864L3.32589 7.1428ZM19.1071 -6.10352e-05C20.519 -6.10352e-05 21.7969 0.831412 22.3717 2.12047L24.6931 7.34369C24.894 7.80128 25 8.29235 25 8.79458V21.4285C25 23.3984 23.3984 24.9999 21.4286 24.9999H3.57143C1.60156 24.9999 0 23.3984 0 21.4285V8.79458C0 8.29235 0.106027 7.80128 0.30692 7.34369L2.62835 2.12047C3.20312 0.831412 4.48103 -6.10352e-05 5.89286 -6.10352e-05H19.1071Z"/></svg>