<svg width="28" height="21" viewBox="0 0 28 21" xmlns="http://www.w3.org/2000/svg"><path d="M7.7 0.135085L7.31938 -6.10352e-05L6.9475 0.156883L2.7475 1.90071L0.875 2.67235L2.59 3.74916L8.4 7.39375L6.60625 8.33106L4.61562 7.48094L4.095 7.25861L3.61812 7.57249L1.51813 8.96755L0.494375 9.64764L1.33 10.5501L5.53 15.084L5.84062 15.4197H6.3H11.2H11.4581L11.6856 15.302L22.9469 9.40787C24.9287 8.37029 26.5125 6.71802 27.4575 4.69954C28.315 2.86853 26.9762 0.771581 24.9463 0.771581H22.7281C21.6519 0.771581 20.5931 1.03315 19.6437 1.53014L16.4106 3.21293L7.7 0.135085ZM5.42063 3.05599L7.37625 2.24511L16.1437 5.3404L16.5769 5.49298L16.9837 5.27937L20.6194 3.38296C21.2712 3.04291 21.9931 2.86417 22.7325 2.86417H24.955C25.445 2.86417 25.7687 3.36988 25.5631 3.81455C24.8106 5.41887 23.5506 6.73546 21.98 7.55506L10.9419 13.3271H6.75938L3.70562 10.0313L4.30937 9.63021L6.23875 10.4542L6.69813 10.6503L7.14 10.4193L10.9944 8.40517L12.6088 7.55942L11.0644 6.59159L5.425 3.05599H5.42063ZM1.05 18.9074H0V20.9999H1.05H26.95H28V18.9074H26.95H1.05Z"/></svg>