<svg width="33" height="26" viewBox="0 0 33 26" xmlns="http://www.w3.org/2000/svg"><path d="M9.45141 0.949548C9.94641 0.446814 10.6528 -6.10352e-05 11.55 -6.10352e-05C12.4472 -6.10352e-05 13.1588 0.436658 13.6692 0.949548C14.1694 1.45228 14.5458 2.0972 14.8242 2.72181C15.2264 3.6308 15.4945 4.66674 15.6131 5.56556C14.4014 6.28158 13.5248 7.49017 13.2773 8.91205C13.2309 8.78002 13.2052 8.64291 13.2052 8.50072V6.49994C13.2052 5.80931 12.9886 4.65658 12.5606 3.69681C12.3492 3.21947 12.1223 2.86908 11.9058 2.65072C11.6995 2.44252 11.5861 2.43744 11.5552 2.43744C11.5448 2.43744 11.4417 2.43744 11.2303 2.65072C11.0138 2.86908 10.7817 3.22455 10.5652 3.70189C10.132 4.66674 9.90516 5.81947 9.90516 6.49994V8.50072C9.90516 8.87142 9.735 9.22181 9.44109 9.45541L2.76891 14.691C2.73281 14.7163 2.70187 14.7417 2.66578 14.7671C2.54719 14.8433 2.475 14.9703 2.475 15.1074V16.5648L8.19844 14.2898C8.58 14.1374 9.01312 14.1831 9.35344 14.4117C9.69375 14.6402 9.9 15.016 9.9 15.4222V19.0937C9.9 19.4796 9.71437 19.8402 9.405 20.0687L6.6 22.1406V23.3542C6.95062 23.2476 7.38891 23.1206 7.85297 22.9835C9.01828 22.6382 10.3847 22.232 11.1839 21.9882C11.4211 21.9171 11.6737 21.9171 11.9109 21.9882C12.3802 22.1304 13.0402 22.3285 13.7414 22.5367C14.0198 23.0699 14.3962 23.5472 14.8448 23.9433V24.7812C14.8448 25.0046 14.8706 25.223 14.9222 25.4363L14.5303 25.3195C13.5248 25.0199 12.3647 24.6796 11.5448 24.4308C10.725 24.6796 9.56484 25.0199 8.55937 25.3195C7.97672 25.4921 7.44047 25.6495 7.05375 25.7663L6.59484 25.9035L6.47109 25.939L6.44016 25.9492H6.42984C6.31641 25.9847 6.19781 25.9999 6.07406 25.9999C5.00156 25.9999 4.125 25.1367 4.125 24.0753V21.9374C4.125 21.2976 4.42922 20.6984 4.95 20.3124L7.425 18.4843V17.2249L2.77922 19.0734C2.75344 19.0835 2.7225 19.0937 2.69156 19.1038C1.36125 19.5203 0 18.5453 0 17.1691V15.1074C0 14.1628 0.474375 13.2792 1.26844 12.7511L7.425 7.91166V6.49994C7.425 5.44877 7.73953 3.96088 8.29641 2.71674C8.58 2.09213 8.95641 1.45228 9.45141 0.949548ZM14.85 9.74994C14.85 8.92728 15.1594 8.17064 15.675 7.60189C16.2783 6.9265 17.1652 6.49994 18.15 6.49994H29.7C31.5202 6.49994 33 7.95736 33 9.74994V19.0937V20.3124C33 21.516 32.3348 22.5671 31.35 23.1257V24.7812C31.35 25.4566 30.7983 25.9999 30.1125 25.9999C29.4267 25.9999 28.875 25.4566 28.875 24.7812V23.5624H18.975V24.0753V24.7812C18.975 25.4566 18.4233 25.9999 17.7375 25.9999C17.6292 25.9999 17.5209 25.9847 17.423 25.9593C17.1703 25.8933 16.9486 25.7511 16.7887 25.5581C16.6134 25.3449 16.5052 25.0757 16.5052 24.7812V23.3542V23.1257C15.7059 22.6687 15.1181 21.8917 14.9222 20.9726C14.8758 20.7593 14.8552 20.541 14.8552 20.3124V19.0937V14.2745V10.3847V9.74994H14.85ZM20.625 15.4374H21.2025H21.5325H22.3988H23.1H25.4513H26.6475H28.05L27.4364 13.5585C27.3075 13.2285 27.0033 12.9999 26.6475 12.9999H22.1513H21.2025C20.8467 12.9999 20.5373 13.2285 20.4136 13.5585L20.3311 13.8124L20.1042 14.5132L19.8 15.4374H20.625ZM18.0314 12.8831L18.0572 12.812L18.0778 12.7511L18.1036 12.6902C18.1139 12.6597 18.1294 12.6292 18.1397 12.5988C18.3253 12.157 18.6141 11.7507 18.9802 11.4156C19.1606 11.248 19.3669 11.1007 19.5834 10.9788C20.0527 10.7148 20.6044 10.5574 21.2077 10.5574H26.6475C28.1325 10.5574 29.2978 11.507 29.7516 12.6851L29.7773 12.746L29.798 12.807L30.4116 14.6859L30.5302 15.0515V9.74994C30.5302 9.30306 30.1589 8.93744 29.7052 8.93744H18.15C17.8561 8.93744 17.6034 9.0847 17.4539 9.31322C17.3714 9.44017 17.325 9.58744 17.325 9.74994V10.791V12.3296V15.0566L17.4436 14.691L18.0314 12.8831ZM22.9711 17.8749H21.7594H19.8H19.3875H18.5625C18.2995 17.8749 18.0572 17.9562 17.8561 18.0933C17.5364 18.3117 17.325 18.6773 17.325 19.0937V19.7031V20.3124C17.325 20.7339 17.6498 21.0792 18.0675 21.1199C18.0933 21.1249 18.1242 21.1249 18.15 21.1249H18.8048H29.7C30.1537 21.1249 30.525 20.7593 30.525 20.3124V19.0937C30.525 18.4183 29.9733 17.8749 29.2875 17.8749H28.05H22.9711ZM18.975 20.6476C18.8216 20.5942 18.6804 20.5117 18.5595 20.4046C18.4385 20.2975 18.3401 20.168 18.27 20.0234C18.1999 19.8789 18.1593 19.7222 18.1507 19.5622C18.142 19.4023 18.1654 19.2422 18.2196 19.0912C18.2738 18.9401 18.3576 18.801 18.4664 18.6819C18.5751 18.5628 18.7066 18.4659 18.8534 18.3968C19.0001 18.3277 19.1592 18.2878 19.3217 18.2793C19.4841 18.2708 19.6466 18.2939 19.8 18.3472C19.9534 18.4006 20.0946 18.4831 20.2155 18.5902C20.3365 18.6973 20.4349 18.8268 20.505 18.9714C20.5751 19.1159 20.6157 19.2726 20.6243 19.4326C20.633 19.5925 20.6096 19.7526 20.5554 19.9037C20.5012 20.0547 20.4174 20.1938 20.3086 20.3129C20.1999 20.432 20.0684 20.5289 19.9216 20.598C19.7749 20.6671 19.6158 20.707 19.4533 20.7155C19.2909 20.724 19.1284 20.7009 18.975 20.6476ZM28.4625 18.2812C28.7907 18.2812 29.1055 18.4096 29.3375 18.6382C29.5696 18.8667 29.7 19.1767 29.7 19.4999C29.7 19.8232 29.5696 20.1332 29.3375 20.3617C29.1055 20.5903 28.7907 20.7187 28.4625 20.7187C28.1343 20.7187 27.8195 20.5903 27.5875 20.3617C27.3554 20.1332 27.225 19.8232 27.225 19.4999C27.225 19.1767 27.3554 18.8667 27.5875 18.6382C27.8195 18.4096 28.1343 18.2812 28.4625 18.2812Z"/></svg>