<svg width="28" height="25" viewBox="0 0 28 25" xmlns="http://www.w3.org/2000/svg"><path d="M9.34294 1.56183C9.34294 0.697908 10.0381 -6.10352e-05 10.8986 -6.10352e-05H17.1211C17.9816 -6.10352e-05 18.6767 0.697908 18.6767 1.56183V3.12372H20.6213C22.1234 3.12372 23.3436 4.34883 23.3436 5.85703V11.636L24.6027 12.1095C26.4549 12.8074 26.9702 15.1942 25.5701 16.5999L22.2255 19.9628C21.7686 20.4216 21.0296 20.4216 20.5775 19.9628C20.1254 19.504 20.1206 18.7621 20.5775 18.3082L23.927 14.9453C24.1263 14.7452 24.0534 14.4035 23.7909 14.3059L14.146 10.6745C14.0585 10.6403 13.9612 10.6403 13.8737 10.6745L4.23852 14.301C3.97601 14.3986 3.89823 14.7403 4.10241 14.9404L7.44702 18.3033C7.90398 18.7621 7.90398 19.504 7.44702 19.958C6.99005 20.4119 6.25112 20.4168 5.79902 19.958L2.44955 16.5999C1.04948 15.1942 1.56478 12.8074 3.41696 12.1095L4.67605 11.636V5.85703C4.67605 4.34883 5.89625 3.12372 7.3984 3.12372H9.34294V1.56183ZM7.00949 5.85703V10.7575L13.0522 8.48295C13.6695 8.24867 14.3453 8.24867 14.9627 8.48295L21.0102 10.7575V5.85703C21.0102 5.64227 20.8352 5.46655 20.6213 5.46655H7.3984C7.1845 5.46655 7.00949 5.64227 7.00949 5.85703ZM5.449 20.9927C6.49419 21.9006 7.93801 22.6473 9.33808 22.6473C10.7381 22.6473 12.182 21.9006 13.2272 20.9927C13.6695 20.5974 14.3355 20.5974 14.7779 20.9927C15.828 21.9006 17.2669 22.6473 18.667 22.6473C20.0671 22.6473 21.5109 21.9006 22.5561 20.9927C22.9985 20.5974 23.6645 20.5974 24.1069 20.9927C24.9284 21.7297 26.0174 22.3008 27.0869 22.5448C27.714 22.6864 28.1126 23.3111 27.9716 23.9457C27.8307 24.5802 27.2084 24.9755 26.5764 24.834C25.1812 24.5216 24.0339 23.8334 23.3339 23.3502C21.9679 24.302 20.349 24.9999 18.667 24.9999C16.985 24.9999 15.3662 24.302 14.0001 23.3502C12.6341 24.302 11.0152 24.9999 9.33322 24.9999C7.65119 24.9999 6.03236 24.302 4.66632 23.3502C3.96629 23.8383 2.81901 24.5216 1.4238 24.834C0.796688 24.9755 0.169574 24.5802 0.0285949 23.9457C-0.112384 23.3111 0.281385 22.6864 0.913361 22.5448C1.99258 22.3008 3.05236 21.7249 3.88851 20.9976C4.33089 20.6022 4.9969 20.6022 5.43928 20.9976L5.449 20.9927Z"/></svg>