<svg width="29" height="23" viewBox="0 0 29 23" xmlns="http://www.w3.org/2000/svg"><path d="M17.4 2.15619H21.025V9.34369H7.975V2.15619H11.6V5.74994C11.6 6.01498 11.745 6.25756 11.9852 6.38334C12.2253 6.50912 12.5063 6.49564 12.7283 6.3474L14.5 5.17494L16.2717 6.3474C16.4938 6.49564 16.7792 6.50912 17.0148 6.38334C17.2505 6.25756 17.4 6.01498 17.4 5.74994V2.15619ZM5.8 2.15619V9.34369C5.8 10.5341 6.77422 11.4999 7.975 11.4999H21.025C22.2258 11.4999 23.2 10.5341 23.2 9.34369V2.15619C23.2 0.965759 22.2258 -6.10352e-05 21.025 -6.10352e-05H7.975C6.77422 -6.10352e-05 5.8 0.965759 5.8 2.15619ZM26.825 17.9687C26.825 19.5544 25.5245 20.8437 23.925 20.8437H5.075C3.47547 20.8437 2.175 19.5544 2.175 17.9687C2.175 16.3829 3.47547 15.0937 5.075 15.0937H23.925C25.5245 15.0937 26.825 16.3829 26.825 17.9687ZM5.075 12.9374C2.27016 12.9374 0 15.188 0 17.9687C0 20.7494 2.27016 22.9999 5.075 22.9999H23.925C26.7298 22.9999 29 20.7494 29 17.9687C29 15.188 26.7298 12.9374 23.925 12.9374H5.075ZM7.25 17.9687C7.25 17.5874 7.09723 17.2218 6.8253 16.9522C6.55338 16.6826 6.18456 16.5312 5.8 16.5312C5.41544 16.5312 5.04662 16.6826 4.7747 16.9522C4.50277 17.2218 4.35 17.5874 4.35 17.9687C4.35 18.3499 4.50277 18.7156 4.7747 18.9852C5.04662 19.2547 5.41544 19.4062 5.8 19.4062C6.18456 19.4062 6.55338 19.2547 6.8253 18.9852C7.09723 18.7156 7.25 18.3499 7.25 17.9687ZM14.5 19.4062C14.8846 19.4062 15.2534 19.2547 15.5253 18.9852C15.7972 18.7156 15.95 18.3499 15.95 17.9687C15.95 17.5874 15.7972 17.2218 15.5253 16.9522C15.2534 16.6826 14.8846 16.5312 14.5 16.5312C14.1154 16.5312 13.7466 16.6826 13.4747 16.9522C13.2028 17.2218 13.05 17.5874 13.05 17.9687C13.05 18.3499 13.2028 18.7156 13.4747 18.9852C13.7466 19.2547 14.1154 19.4062 14.5 19.4062ZM24.65 17.9687C24.65 17.5874 24.4972 17.2218 24.2253 16.9522C23.9534 16.6826 23.5846 16.5312 23.2 16.5312C22.8154 16.5312 22.4466 16.6826 22.1747 16.9522C21.9028 17.2218 21.75 17.5874 21.75 17.9687C21.75 18.3499 21.9028 18.7156 22.1747 18.9852C22.4466 19.2547 22.8154 19.4062 23.2 19.4062C23.5846 19.4062 23.9534 19.2547 24.2253 18.9852C24.4972 18.7156 24.65 18.3499 24.65 17.9687Z"/></svg>