<svg width="29" height="23" viewBox="0 0 29 23" xmlns="http://www.w3.org/2000/svg"><path d="M16.675 2.15619H5.075V4.31244H10.875H11.6V5.74994H10.875H0.725H0V4.31244H0.725H2.9V2.15619V-6.10352e-05H5.075H16.675H18.85V2.15619V4.31244H21.3875H21.8361L22.1533 4.62689L27.2328 9.65814L27.55 9.9726V10.4218V16.5312H27.9125H29V18.6874H27.9125H26.1C26.1 21.0683 24.1516 22.9999 21.75 22.9999C19.3484 22.9999 17.4 21.0683 17.4 18.6874H17.0375H16.675H14.5H11.6C11.6 21.0683 9.65156 22.9999 7.25 22.9999C4.84844 22.9999 2.9 21.0683 2.9 18.6874V16.5312V12.9374H5.075V14.9499C5.71391 14.5816 6.45703 14.3749 7.25 14.3749C8.85859 14.3749 10.2678 15.2419 11.02 16.5312H14.5H16.675V2.15619ZM18.85 6.46869V10.7812H25.2889L20.9389 6.46869H18.85ZM9.425 18.6874C9.425 18.1156 9.19585 17.5671 8.78796 17.1627C8.38007 16.7584 7.82685 16.5312 7.25 16.5312C6.67315 16.5312 6.11993 16.7584 5.71204 17.1627C5.30415 17.5671 5.075 18.1156 5.075 18.6874C5.075 19.2593 5.30415 19.8078 5.71204 20.2121C6.11993 20.6165 6.67315 20.8437 7.25 20.8437C7.82685 20.8437 8.38007 20.6165 8.78796 20.2121C9.19585 19.8078 9.425 19.2593 9.425 18.6874ZM21.75 20.8437C22.3268 20.8437 22.8801 20.6165 23.288 20.2121C23.6958 19.8078 23.925 19.2593 23.925 18.6874C23.925 18.1156 23.6958 17.5671 23.288 17.1627C22.8801 16.7584 22.3268 16.5312 21.75 16.5312C21.1732 16.5312 20.6199 16.7584 20.212 17.1627C19.8042 17.5671 19.575 18.1156 19.575 18.6874C19.575 19.2593 19.8042 19.8078 20.212 20.2121C20.6199 20.6165 21.1732 20.8437 21.75 20.8437ZM2.175 7.18744H12.325H13.05V8.62494H12.325H2.175H1.45V7.18744H2.175ZM0.725 10.0624H10.875H11.6V11.4999H10.875H0.725H0V10.0624H0.725Z"/></svg>